<svg data-name="Layer 2" xmlns="http://www.w3.org/2000/svg" viewBox="0 0 90 90"><path d="M18.7 21.88h31v2.29h-31zm0 8.3v2.29h31v-2.59h-31zm0 10.29h31v-2.29h-31zm60.8-17.72v37.46h-5.7a13.43 13.43 0 0 1-4 5.83l7.33 12.85h-1.68V79h-12.9v-9.91a13.37 13.37 0 0 1-1.42.08 14.42 14.42 0 0 1-1.75-.12V79H46.59v-.11h-1.65l7.4-13a13.34 13.34 0 0 1-3.9-5.72H11.05v-.07h-.55v-49h56.32l.06-.06 12.6 11.65-.09.1zm-12.58 0h9.29l-9.29-8.59zm-9.84 45.81a13.78 13.78 0 0 1-2.9-1.31l-5.37 9.46h8.27zm10.82-1.23a13.12 13.12 0 0 1-3.05 1.31v8.07h8.38zm4.27-8.78v-.63h.14a11.83 11.83 0 0 0 .19-2.08 11.37 11.37 0 1 0-.33 2.71zM77.2 25H64.63V13.36H12.8v44.56h35.07a13.12 13.12 0 0 1-.19-2.19 13.45 13.45 0 0 1 26.9 0 14.27 14.27 0 0 1-.19 2.19h2.81z" fill="#0087ff"/></svg>