<svg width="30" height="30" fill="none" xmlns="http://www.w3.org/2000/svg"><path d="M15.003 0C23.285 0 30 6.714 30 15c0 8.28-6.715 15-14.997 15C6.722 30 0 23.286 0 15S6.722 0 15.003 0z" fill="#fff"/><path fill-rule="evenodd" clip-rule="evenodd" d="M16.784 11.032c.357-.013.708 0 1.072-.007H18V9.09c-.188-.02-.389-.046-.59-.059-.363-.02-.733-.039-1.096-.026-.559.013-1.085.157-1.55.497-.526.4-.82.955-.927 1.616a6.177 6.177 0 00-.063.83c-.012.432 0 .87 0 1.302v.164H12v2.158h1.762V21h2.156v-5.422h1.756c.088-.72.175-1.433.27-2.172h-2.045s.007-1.072.02-1.537c.012-.621.376-.817.865-.837z" fill="#41414D"/></svg>