<svg width="441" height="137" fill="none" xmlns="http://www.w3.org/2000/svg"><g clip-path="url(#a)"><path d="M350.793 40.792c-39.851 0-71.795 11.963-71.795 26.916 0 14.883 32.208 26.916 71.795 26.916s71.795-12.072 71.795-26.916c0-14.843-32.203-26.916-71.795-26.916Z" fill="#00095B"/><path d="M392.973 59.987c.095-.165 0-.284-.214-.284h-3.625c-.269 0-.408.03-.533.279-.419.797-5.484 8.393-6.432 9.869-.159.224-.354.194-.379-.06a3.173 3.173 0 0 0-2.044-2.368 5.226 5.226 0 0 0-2.722-.314 9.703 9.703 0 0 0-4.457 2.099c-1.995 1.495-3.67 3.434-5.859 4.87-1.201.777-2.836 1.46-3.933.443-.998-.922-.883-2.99.638-4.546a.175.175 0 0 1 .319.125 1.997 1.997 0 0 0 .578 1.924 2.163 2.163 0 0 0 2.418.264 3.176 3.176 0 0 0 1.686-2.432 2.774 2.774 0 0 0-.586-2.128 2.779 2.779 0 0 0-1.957-1.022 5.097 5.097 0 0 0-3.65 1.325 7.012 7.012 0 0 0-1.441 1.58c-.124.18-.314.2-.309-.07.06-2.063-.798-3.224-2.493-3.264-1.326-.03-2.742.688-3.844 1.57a35.698 35.698 0 0 0-3.405 3.49c-.14.149-.264.139-.304-.15a6.942 6.942 0 0 0-.997-3.634.842.842 0 0 0-1.092-.27c-.465.21-.909.461-1.326.754a.724.724 0 0 0-.22.812 9.562 9.562 0 0 1-.349 6.335c-.763 1.794-2.243 3.42-3.988 3.988-1.147.363-2.339.184-3.077-.833-.997-1.4-.603-3.838.908-5.866a11.387 11.387 0 0 1 5.23-3.664.296.296 0 0 0 .239-.292.287.287 0 0 0-.03-.132c-.104-.314-.269-.747-.339-.942-.179-.468-.673-.543-1.271-.498-1.373.18-2.699.623-3.904 1.306-3.256 1.744-4.891 5.119-5.609 6.928a7.16 7.16 0 0 1-.997 1.89 19.583 19.583 0 0 1-2.338 2.267.413.413 0 0 0-.1.499c.242.439.548.84.907 1.19a.524.524 0 0 0 .499-.104 12.221 12.221 0 0 0 2.298-2.044c.17-.209.344-.12.434.195a5.065 5.065 0 0 0 3.261 3.489c2.991.997 6.087-.454 8.426-2.99a32.993 32.993 0 0 0 2.592-3.355c.968-1.196 2.872-3.873 5.141-5.593.832-.633 1.819-1.116 2.313-.797.399.26.529.857-.11 1.994-2.313 4.221-5.718 9.18-6.342 10.387-.114.21 0 .374.205.374h3.49a.413.413 0 0 0 .354-.22c1.775-2.78 3.445-5.422 5.235-8.159.105-.16.194-.035.199.035.022.727.217 1.438.569 2.074a3.096 3.096 0 0 0 2.702 1.495 5.128 5.128 0 0 0 2.184-.459 7.793 7.793 0 0 0 1.8-.962c.264-.19.314.125.304.17-.409 2.208.1 4.82 2.293 5.901 2.623 1.296 5.485-.523 7.165-2.163.159-.16.334-.14.354.2.046.709.343 1.378.837 1.889 1.386 1.395 4.193.842 7.005-1.336a35.223 35.223 0 0 0 5.41-5.453.243.243 0 0 0 .07-.17.24.24 0 0 0-.07-.17c-.264-.273-.638-.582-.898-.822a.317.317 0 0 0-.388 0c-1.75 1.665-3.326 3.564-5.604 5.134-.768.539-1.995.997-2.543.225a1.225 1.225 0 0 1 0-1.212c.653-1.64 11.173-17.644 11.716-18.591Zm-13.9 13.423c0 .124.18.239.339.299.055 0 .085.06 0 .19-.405.82-.88 1.603-1.421 2.342a8.78 8.78 0 0 1-1.8 1.944c-1.062.877-2.532 1.834-3.749 1.19a1.829 1.829 0 0 1-.763-1.649c.025-1.725.788-3.489 2.204-5.228 1.725-2.124 3.635-3.225 4.886-2.622 1.251.603.882 2.113.304 3.29a.332.332 0 0 0 0 .244Z" fill="#fff"/><path d="M316.696 82.52c-3.919.03-7.374-2.392-7.768-6.588a8.473 8.473 0 0 1 1.75-6.101 8.668 8.668 0 0 1 4.816-3.09c.544-.1 1.272-.035 1.576.323.474.549.339 1.157-.135 1.401-1.276.648-2.812 1.764-3.569 3.285a4.021 4.021 0 0 0 .199 4.167c1.575 2.372 5.983 2.442 10.046-1.351a34.998 34.998 0 0 0 2.832-2.876 64.68 64.68 0 0 0 4.787-6.116.115.115 0 0 0 .013-.055.116.116 0 0 0-.013-.055c0-.044-.05-.054-.12-.06a7.288 7.288 0 0 0-4.338 1.53.851.851 0 0 1-.942.085.839.839 0 0 1-.254-.214.96.96 0 0 1 .374-1.286c2.173-1.495 4.547-1.784 6.98-2.193a.387.387 0 0 0 .309-.174c.997-1.281 1.745-2.433 2.807-3.724a28.255 28.255 0 0 1 3.49-3.419 15.496 15.496 0 0 1 3.38-2.213c.254-.135-.035-.294-.11-.294-5.359-.997-10.933-2.308-16.258-.339-3.69 1.376-5.305 4.302-4.527 6.255.553 1.386 2.378 1.61 4.083.773a9.24 9.24 0 0 0 3.66-3.25c.498-.802 1.615-.224.997 1.161-1.556 3.664-4.532 6.57-8.157 6.69-3.086.1-5.08-2.169-5.07-4.985 0-5.523 6.162-9.156 12.624-9.7 7.782-.642 15.151 1.426 22.879 2.363 5.923.718 11.597.733 17.55-.633a.899.899 0 0 1 1.152.997c-.06 1.027-.853 1.994-2.817 3.085a14.334 14.334 0 0 1-6.98 1.61c-5.888.05-11.373-2.243-17.051-3.489 0 .25.069.549-.135.703-3.146 2.318-5.983 4.675-7.893 7.975-.064.075-.029.15.08.14 1.655-.085 3.141-.13 4.687-.25.269 0 .279-.09.254-.289a3.842 3.842 0 0 1 1.197-3.334c1.027-.922 2.313-1.027 3.166-.364.967.758.882 2.113.354 3.13a3.761 3.761 0 0 1-2.284 1.854s-.179.04-.154.205c.034.259 1.196.907 1.296 1.076a.54.54 0 0 1-.13.613.728.728 0 0 1-.563.27 1.202 1.202 0 0 1-.578-.215 5.54 5.54 0 0 1-1.611-1.296c-.149-.184-.224-.19-.593-.17-1.67.095-4.273.35-6.038.569-.429.055-.499.135-.578.28-2.812 4.64-5.819 9.639-9.114 12.958-3.495 3.659-6.437 4.601-9.558 4.626Zm26.823-20.6c.045.235.14.285.245.265a2.586 2.586 0 0 0 1.471-1.062c.314-.463.463-1.131.149-1.396a.822.822 0 0 0-1.072.125 2.392 2.392 0 0 0-.793 2.069Z" fill="#fff"/><path d="M350.793 92.28c-38.002 0-68.804-10.995-68.804-24.562 0-13.568 30.802-24.568 68.804-24.568 38.001 0 68.803 11 68.803 24.568 0 13.567-30.812 24.563-68.803 24.563Zm0-47.087c-36.665 0-66.386 10.129-66.386 22.525 0 12.396 29.721 22.524 66.386 22.524 36.665 0 66.375-10.128 66.375-22.524s-29.715-22.525-66.375-22.525ZM34.013 64.493C40.7 66.427 44.737 68.61 44.737 75.07c0 6.714-6.117 9.809-13.247 9.809-5.065 0-10.096-1.37-13.322-4.94a.579.579 0 0 1-.15-.608l3.49-3.937c.195-.24.574-.324.704-.15 2.727 2.881 6.038 3.654 9.687 3.654 3.435 0 6.192-1.286 6.192-3.699 0-2.412-2.413-3.409-6.825-4.685C23.573 68.231 19.5 65.58 19.5 59.46c0-5.982 5.26-9.097 12.09-9.097 4.487 0 9.249 1.092 11.806 4.446.195.29.29.529.095.713l-3.306 3.43c-.16.134-.538.328-.772.09a11.1 11.1 0 0 0-7.893-2.847c-3.744 0-5.16 1.495-5.16 3.18 0 2.373 1.75 3.374 7.638 5.084l.015.035ZM78.93 50.936h-5.903a.569.569 0 0 0-.574.498v19.892c0 4.307-1.545 7.063-6.775 7.063-4.936 0-6.741-2.462-6.741-6.878V51.574c0-.24-.194-.619-.499-.619H52.59a.658.658 0 0 0-.563.619v20.884c0 7.975 5.125 12.192 13.57 12.192 8.447 0 13.846-4.327 13.846-12.337V51.404a.498.498 0 0 0-.498-.498l-.015.03Zm22.336-.45c-8.396 0-13.85 4.317-13.85 12.327v20.925a.524.524 0 0 0 .498.498h5.923a.589.589 0 0 0 .569-.498V63.85c0-4.312 1.545-7.073 6.785-7.073 4.921 0 6.731 2.492 6.731 6.889v19.962c0 .24.195.618.524.618h5.833a.654.654 0 0 0 .573-.618V62.743c0-7.974-5.12-12.181-13.571-12.181l-.015-.075Zm74.059.47h-5.899a.571.571 0 0 0-.563.498v19.872c0 4.307-1.546 7.063-6.786 7.063-4.935 0-6.73-2.462-6.73-6.878V51.574c0-.24-.195-.619-.529-.619h-5.833a.66.66 0 0 0-.574.619v20.884c0 7.975 5.126 12.192 13.567 12.192 8.441 0 13.85-4.327 13.85-12.337V51.404a.496.496 0 0 0-.498-.498l-.005.05Zm22.321-.47c-8.386 0-13.841 4.317-13.841 12.327v20.925a.5.5 0 0 0 .464.498h5.933a.576.576 0 0 0 .574-.498V63.85c0-4.312 1.545-7.073 6.77-7.073 4.941 0 6.746 2.492 6.746 6.889v19.962c0 .24.184.618.528.618h5.824a.666.666 0 0 0 .583-.618V62.743c0-7.974-5.13-12.181-13.581-12.181v-.075Zm-56.339.11h-.21c-1.655 0-2.323-.07-2.906-.07-8.406 0-13.851 4.317-13.851 12.327v20.885a.496.496 0 0 0 .464.468h5.943a.55.55 0 0 0 .553-.468V63.85c0-4.312 1.551-7.063 6.781-7.063h3.226a1.036 1.036 0 0 0 .997-1.047v-4.067a1.041 1.041 0 0 0-1.022-1.052M246.048 17.939h-2.059v100.829h2.059V17.939Z" fill="#fff"/></g><defs><clipPath id="a"><path fill="#fff" d="M0 0h440.497v136.706H0z"/></clipPath></defs></svg>