<svg width="917" height="355" fill="none" xmlns="http://www.w3.org/2000/svg"><path d="M173 126.962c-28.302 0-34 56.4-154 39.39V195h897.003v-28.648c-10.333 1.492-76.003 2.238-114.002-6.266C750 148.448 721 135.914 695 102.79c-34.735-44.252-51-75.2-117-75.2-56 0-96 26.858-120 71.62-27.84 51.923-72 67.142-122 67.142-107.267 0-117-39.39-163-39.39z" fill="#EFEDEB"/><path d="M19 166.352c120 17.01 125.698-39.39 154-39.39 46 0 55.733 39.39 163 39.39 50 0 95.16-13.428 123-65.352 24-44.762 63-73.41 119-73.41 66 0 82.265 30.948 117 75.2 26 33.124 55 45.658 107.001 57.296 37.999 8.504 103.669 7.758 114.002 6.266" stroke="#B2ADA6" stroke-width="5"/><mask id="a" maskUnits="userSpaceOnUse" x="459" y="7" width="230" height="188"><path d="M459 7h230v188H459V7z" fill="#C4C4C4"/></mask><g mask="url(#a)"><path opacity=".5" d="M173 126.962c-28.302 0-34 56.4-154 39.39V195h897.003v-28.648c-10.333 1.492-76.003 2.238-114.002-6.266C750 148.448 721 135.914 695 102.79c-34.735-44.252-51-75.2-117-75.2-56 0-97 31.334-121 76.095-27.84 51.924-71 62.667-121 62.667-107.267 0-117-39.39-163-39.39z" fill="#F44D45"/><path d="M595.735 133.776c0-12.192-9.984-15.648-19.872-18.528v-27.36c6.432.48 12 2.976 16.032 8.256l2.4-2.208c-4.128-5.088-10.176-8.448-18.432-8.928v-8.736h-3.072v8.64c-10.272.288-19.296 6.24-19.296 16.32 0 10.848 9.696 13.728 19.296 16.512v30.528c-8.64-.384-15.072-4.896-18.816-9.504l-2.496 2.208c4.416 5.664 11.808 9.888 21.312 10.176v8.448h3.072v-8.544c15.648-.672 19.872-10.368 19.872-17.28zm-38.88-32.544c0-7.68 7.008-13.152 15.936-13.44v26.592c-8.448-2.496-15.936-5.088-15.936-13.152zm19.008 46.944v-29.568c8.64 2.496 16.512 5.664 16.512 15.168 0 5.76-3.36 13.728-16.512 14.4z" fill="#fff"/><path d="M575.863 115.248h-.5v.375l.36.105.14-.48zm0-27.36l.037-.499-.537-.04v.539h.5zm16.032 8.256l-.398.303.333.436.403-.371-.338-.368zm2.4-2.208l.338.368.346-.318-.296-.365-.388.315zm-18.432-8.928h-.5v.472l.471.027.029-.499zm0-8.736h.5v-.5h-.5v.5zm-3.072 0v-.5h-.5v.5h.5zm0 8.64l.014.5.486-.014v-.486h-.5zm0 32.832h.5v-.376l-.361-.104-.139.48zm0 30.528l-.023.5.523.023v-.523h-.5zm-18.816-9.504l.388-.315-.329-.405-.391.346.332.374zm-2.496 2.208l-.332-.374-.352.311.289.37.395-.307zm21.312 10.176h.5v-.485l-.485-.015-.015.5zm0 8.448h-.5v.5h.5v-.5zm3.072 0v.5h.5v-.5h-.5zm0-8.544l-.022-.5-.478.021v.479h.5zm-3.072-63.264h.5v-.516l-.516.016.016.5zm0 26.592l-.142.48.642.189v-.669h-.5zm3.072 33.792h-.5v.526l.525-.027-.025-.499zm0-29.568l.138-.48-.638-.185v.665h.5zm20.372 15.168c0-6.265-2.581-10.323-6.432-13.159-3.814-2.808-8.866-4.412-13.801-5.849l-.279.96c4.954 1.443 9.837 3.007 13.487 5.695 3.613 2.66 6.025 6.426 6.025 12.353h1zm-19.872-18.528v-27.36h-1v27.36h1zm-.538-26.861c6.316.47 11.742 2.913 15.672 8.06l.795-.606c-4.133-5.413-9.844-7.963-16.392-8.452l-.075.998zm16.408 8.125l2.4-2.208-.677-.736-2.4 2.208.677.736zm2.45-2.891c-4.22-5.202-10.401-8.624-18.791-9.112l-.058.998c8.121.472 14.037 3.77 18.072 8.744l.777-.63zm-18.32-8.613v-8.736h-1v8.736h1zm-.5-9.236h-3.072v1h3.072v-1zm-3.572.5v8.64h1v-8.64h-1zm.486 8.14c-5.223.147-10.156 1.733-13.795 4.595-3.65 2.87-5.987 7.018-5.987 12.225h1c0-4.873 2.175-8.741 5.605-11.439 3.44-2.706 8.155-4.24 13.205-4.381l-.028-1zm-19.782 16.82c0 5.614 2.528 9.193 6.27 11.696 3.7 2.475 8.606 3.91 13.386 5.296l.279-.96c-4.819-1.398-9.562-2.795-13.109-5.168-3.506-2.345-5.826-5.63-5.826-10.864h-1zm19.296 16.512v30.528h1v-30.528h-1zm.522 30.028c-8.469-.376-14.777-4.798-18.45-9.319l-.776.63c3.814 4.695 10.371 9.297 19.181 9.689l.045-1zm-19.17-9.378l-2.496 2.208.663.748 2.496-2.208-.663-.748zm-2.559 2.889c4.51 5.784 12.042 10.076 21.691 10.369l.031-1c-9.359-.283-16.611-4.439-20.933-9.983l-.789.614zm21.207 9.869v8.448h1v-8.448h-1zm.5 8.948h3.072v-1h-3.072v1zm3.572-.5v-8.544h-1v8.544h1zm-.479-8.044c7.93-.341 13.036-2.975 16.156-6.467 3.111-3.483 4.195-7.763 4.195-11.313h-1c0 3.362-1.028 7.386-3.941 10.647-2.905 3.252-7.735 5.802-15.453 6.133l.043 1zm-18.529-50.324c0-7.312 6.684-12.657 15.452-12.94l-.032-1c-9.088.293-16.42 5.892-16.42 13.94h1zm14.936-13.44v26.592h1V87.792h-1zm.641 26.112c-4.236-1.251-8.145-2.505-10.998-4.423-2.818-1.894-4.579-4.415-4.579-8.249h-1c0 4.23 1.982 7.037 5.021 9.079 3.002 2.018 7.061 3.308 11.273 4.553l.283-.96zm3.431 34.272v-29.568h-1v29.568h1zm-.639-29.088c4.321 1.249 8.367 2.645 11.334 4.876 2.933 2.205 4.817 5.23 4.817 9.812h1c0-4.922-2.053-8.233-5.216-10.612-3.129-2.353-7.339-3.789-11.658-5.036l-.277.96zm16.151 14.688c0 2.79-.815 6.093-3.198 8.776-2.376 2.675-6.366 4.794-12.84 5.125l.051.998c6.679-.341 10.945-2.542 13.536-5.459 2.585-2.909 3.451-6.47 3.451-9.44h-1z" fill="#fff"/><path d="M19 166.352c120 17.01 125.698-39.39 154-39.39 46 0 55.733 39.39 163 39.39 50 0 94.16-11.638 122-63.562 24-44.761 64-75.2 120-75.2 66 0 82.265 30.948 117 75.2 26 33.124 55 45.658 107.001 57.296 37.999 8.504 103.669 7.758 114.002 6.266" stroke="#F44D45" stroke-width="5"/></g><path stroke="#F44D45" d="M459 9.5h56M459.5 10v184M689 9.5h-56M688.5 194V10"/><path d="M533.11 7.168c0 1.018-.322 1.797-.966 2.338-.635.542-1.554.813-2.758.813h-2.324V14h-1.82V4.005h4.13c1.204 0 2.128.271 2.772.812.644.542.966 1.326.966 2.352zm-6.048-1.694v3.388h2.156c.69 0 1.204-.14 1.54-.42.345-.28.518-.704.518-1.274 0-.569-.173-.994-.518-1.274-.336-.28-.85-.42-1.54-.42h-2.156zm15.705 7.056V14h-7.238V4.005h7.182v1.47h-5.362V8.26h4.746v1.47h-4.746v2.8h5.418zM554.712 14h-1.904l-.938-2.45h-4.508L546.41 14h-1.82l4.018-9.996h2.086l4.018 9.997zm-5.054-8.204h-.042l-1.68 4.312h3.374l-1.652-4.312zM565.857 14h-2.24l-3.514-4.354-1.386 1.456v2.899h-1.862V4.004h1.862V9.03l4.62-5.026h2.128l-4.13 4.34 4.522 5.657zm7.774-3.738v3.739h-1.82V4.004h4.284c1.185 0 2.1.271 2.744.812.644.542.966 1.316.966 2.324 0 .691-.192 1.284-.574 1.778-.374.495-.892.85-1.554 1.064l2.506 4.019h-2.03l-2.282-3.739h-2.24zm0-4.788v3.332h2.254c.69 0 1.208-.14 1.554-.42.354-.28.532-.695.532-1.246 0-.55-.178-.966-.532-1.246-.346-.28-.864-.42-1.554-.42h-2.254zM591.719 14h-1.904l-.938-2.45h-4.508l-.952 2.45h-1.82l4.018-9.996h2.086l4.018 9.997zm-5.054-8.204h-.042l-1.68 4.312h3.374l-1.652-4.312zM597.707 14h-1.848V5.475h-3.584v-1.47h9.03v1.47h-3.598V14zm13.338-1.47V14h-7.238V4.005h7.182v1.47h-5.362V8.26h4.746v1.47h-4.746v2.8h5.418zm6.541 1.639c-1.297 0-2.333-.276-3.108-.827-.774-.56-1.204-1.348-1.288-2.366h1.792c.056.588.304 1.041.742 1.358.448.309 1.05.463 1.806.463.635 0 1.144-.136 1.526-.407.392-.28.588-.658.588-1.133 0-.374-.13-.663-.392-.868-.252-.215-.667-.378-1.246-.49l-1.834-.337c-.896-.158-1.563-.462-2.002-.91-.438-.457-.658-1.059-.658-1.806 0-.886.35-1.61 1.05-2.17.7-.56 1.601-.84 2.702-.84 1.195 0 2.138.252 2.828.756.691.504 1.083 1.223 1.176 2.156h-1.75a1.548 1.548 0 0 0-.7-1.12c-.392-.27-.905-.406-1.54-.406-.588 0-1.064.14-1.428.42-.354.28-.532.644-.532 1.092 0 .364.112.644.336.84.224.187.644.341 1.26.462l1.932.378c.887.168 1.545.476 1.974.924.43.448.644 1.05.644 1.807 0 .886-.364 1.614-1.092 2.184-.728.56-1.656.84-2.786.84z" fill="#F44D45"/><path d="M77.954 206.236L74.706 215h-.98l-3.248-8.764h-.028V215h-1.148v-9.996h1.862l3.08 8.428h.028l3.08-8.428h1.792V215h-1.162v-8.764h-.028zm6.561 1.554c1 0 1.806.341 2.422 1.022.616.672.924 1.563.924 2.674s-.308 2.002-.924 2.674c-.616.672-1.423 1.008-2.422 1.008-.998 0-1.806-.336-2.422-1.008-.616-.672-.924-1.563-.924-2.674s.308-2.002.924-2.674c.616-.681 1.424-1.022 2.422-1.022zm0 .938c-.68 0-1.218.247-1.61.742-.392.495-.588 1.167-.588 2.016s.196 1.521.588 2.016c.392.485.93.728 1.61.728.682 0 1.218-.243 1.61-.728.392-.495.588-1.167.588-2.016s-.196-1.521-.588-2.016c-.392-.495-.928-.742-1.61-.742zm8.68-.924c.104 0 .202.005.295.014.093.009.177.023.252.042v1.064a1.719 1.719 0 0 0-.28-.042 3.684 3.684 0 0 0-.322-.014 1.91 1.91 0 0 0-1.54.728c-.401.476-.602 1.12-.602 1.932V215h-1.162v-7.042h1.12v1.666c.15-.56.424-1.003.826-1.33a2.17 2.17 0 0 1 1.414-.49zm2.028.154h1.12v1.288c.168-.439.457-.789.868-1.05.42-.271.896-.406 1.428-.406.793 0 1.409.238 1.848.714.448.467.672 1.12.672 1.96V215h-1.162v-4.284c0-.653-.145-1.143-.434-1.47-.28-.336-.696-.504-1.246-.504-.607 0-1.083.205-1.428.616-.336.411-.504.999-.504 1.764V215h-1.162v-7.042zm9.585-1.47h-1.316v-1.414h1.316v1.414zm-.07 8.512h-1.162v-7.042h1.162V215zm2.488-7.042h1.12v1.288c.168-.439.458-.789.868-1.05.42-.271.896-.406 1.428-.406.794 0 1.41.238 1.848.714.448.467.672 1.12.672 1.96V215H112v-4.284c0-.653-.144-1.143-.434-1.47-.28-.336-.695-.504-1.246-.504-.606 0-1.082.205-1.428.616-.336.411-.504.999-.504 1.764V215h-1.162v-7.042zm11.112 8.806c.709 0 1.246-.191 1.61-.574.373-.373.56-.919.56-1.638v-1.036a2.305 2.305 0 0 1-.924.994c-.411.243-.882.364-1.414.364-.933 0-1.689-.322-2.268-.966-.569-.653-.854-1.517-.854-2.59 0-1.045.289-1.895.868-2.548.588-.653 1.339-.98 2.254-.98.523 0 .999.131 1.428.392.429.252.747.588.952 1.008v-1.232h1.134v6.51c0 1.017-.294 1.801-.882 2.352-.588.56-1.405.84-2.45.84-.868 0-1.573-.177-2.114-.532-.532-.355-.868-.863-1.008-1.526h1.176c.103.392.313.681.63.868.317.196.751.294 1.302.294zm.042-2.814c.653 0 1.185-.229 1.596-.686.411-.457.616-1.05.616-1.778v-.336c0-.728-.205-1.316-.616-1.764-.411-.457-.943-.686-1.596-.686-.672 0-1.204.238-1.596.714-.392.467-.588 1.101-.588 1.904 0 .803.196 1.442.588 1.918.392.476.924.714 1.596.714zM328.139 206.236L324.891 215h-.98l-3.248-8.764h-.028V215h-1.148v-9.996h1.862l3.08 8.428h.028l3.08-8.428h1.792V215h-1.162v-8.764h-.028zm4.965.252h-1.316v-1.414h1.316v1.414zm-.07 8.512h-1.162v-7.042h1.162V215zm5.106.168c-.914 0-1.666-.341-2.254-1.022-.588-.681-.882-1.568-.882-2.66s.29-1.979.868-2.66c.588-.691 1.344-1.036 2.268-1.036.532 0 1.004.131 1.414.392.42.252.728.593.924 1.022v-4.508h1.162V215h-1.12v-1.232a2.452 2.452 0 0 1-.952 1.008 2.694 2.694 0 0 1-1.428.392zm.238-6.468c-.672 0-1.208.252-1.61.756-.392.504-.588 1.181-.588 2.03 0 .84.196 1.512.588 2.016.402.504.938.756 1.61.756.663 0 1.186-.243 1.568-.728.392-.485.588-1.139.588-1.96v-.196c0-.821-.196-1.47-.588-1.946-.382-.485-.905-.728-1.568-.728zm8.376 6.468c-.915 0-1.666-.341-2.254-1.022-.588-.681-.882-1.568-.882-2.66s.289-1.979.868-2.66c.588-.691 1.344-1.036 2.268-1.036a2.58 2.58 0 0 1 1.414.392c.42.252.728.593.924 1.022v-4.508h1.162V215h-1.12v-1.232a2.465 2.465 0 0 1-.952 1.008 2.7 2.7 0 0 1-1.428.392zm.238-6.468c-.672 0-1.209.252-1.61.756-.392.504-.588 1.181-.588 2.03 0 .84.196 1.512.588 2.016.401.504.938.756 1.61.756.662 0 1.185-.243 1.568-.728.392-.485.588-1.139.588-1.96v-.196c0-.821-.196-1.47-.588-1.946-.383-.485-.906-.728-1.568-.728zm11.231 6.3h-1.162c-.037-.187-.07-.383-.098-.588a6.842 6.842 0 0 1-.028-.602c-.149.411-.448.737-.896.98-.439.243-.957.364-1.554.364-.672 0-1.223-.182-1.652-.546-.42-.373-.63-.863-.63-1.47s.201-1.087.602-1.442c.411-.355 1.022-.579 1.834-.672l2.268-.294v-.406c0-.513-.145-.905-.434-1.176-.28-.28-.686-.42-1.218-.42-.467 0-.84.117-1.12.35-.28.224-.443.541-.49.952h-1.12c.065-.691.345-1.237.84-1.638.504-.401 1.143-.602 1.918-.602.896 0 1.582.215 2.058.644.476.429.714 1.05.714 1.862v3.234c0 .327.014.607.042.84.028.224.07.434.126.63zm-4.844-1.89c0 .355.121.639.364.854.243.205.569.308.98.308.625 0 1.143-.187 1.554-.56.42-.383.63-.877.63-1.484v-.63l-1.918.21c-.607.084-1.027.229-1.26.434-.233.205-.35.495-.35.868zm7.585 3.528c.336 0 .606-.107.812-.322.205-.215.429-.635.672-1.26l-2.828-7.098h1.218l2.24 5.754h.028l2.114-5.754h1.204l-2.842 7.252c-.355.924-.714 1.549-1.078 1.876-.355.336-.826.509-1.414.518-.094 0-.206-.009-.336-.028a3.726 3.726 0 0 1-.35-.042v-.952c.084.019.163.033.238.042.074.009.182.014.322.014zM813.907 205.004h1.484l5.334 7.98h.028v-7.98h1.162V215h-1.12l-5.684-8.526h-.028V215h-1.176v-9.996zm11.799 1.484h-1.316v-1.414h1.316v1.414zm-.07 8.512h-1.162v-7.042h1.162V215zm5.247 1.764c.709 0 1.246-.191 1.61-.574.373-.373.56-.919.56-1.638v-1.036a2.305 2.305 0 0 1-.924.994c-.411.243-.882.364-1.414.364-.933 0-1.689-.322-2.268-.966-.569-.653-.854-1.517-.854-2.59 0-1.045.289-1.895.868-2.548.588-.653 1.339-.98 2.254-.98.523 0 .999.131 1.428.392.429.252.747.588.952 1.008v-1.232h1.134v6.51c0 1.017-.294 1.801-.882 2.352-.588.56-1.405.84-2.45.84-.868 0-1.573-.177-2.114-.532-.532-.355-.868-.863-1.008-1.526h1.176c.103.392.313.681.63.868.317.196.751.294 1.302.294zm.042-2.814c.653 0 1.185-.229 1.596-.686.411-.457.616-1.05.616-1.778v-.336c0-.728-.205-1.316-.616-1.764-.411-.457-.943-.686-1.596-.686-.672 0-1.204.238-1.596.714-.392.467-.588 1.101-.588 1.904 0 .803.196 1.442.588 1.918.392.476.924.714 1.596.714zm6.961-9.254v4.55a2.06 2.06 0 0 1 .854-1.064c.402-.261.868-.392 1.4-.392.794 0 1.41.238 1.848.714.448.467.672 1.12.672 1.96V215h-1.162v-4.284c0-.653-.144-1.143-.434-1.47-.28-.336-.695-.504-1.246-.504-.606 0-1.082.205-1.428.616-.336.411-.504.999-.504 1.764V215h-1.162v-10.304h1.162zm9.446 9.436c.168 0 .331-.014.49-.042.168-.028.345-.07.532-.126v.952a4.51 4.51 0 0 1-.644.14 3.164 3.164 0 0 1-.588.056c-.653 0-1.143-.159-1.47-.476-.317-.317-.476-.798-.476-1.442v-4.354h-1.036v-.882h1.036v-1.792h1.148v1.792h1.848v.882h-1.862v4.298c0 .345.079.597.238.756.168.159.429.238.784.238zM586.527 213.992V215h-6.762v-9.996h6.748v1.008h-5.558v3.486h4.942v1.022h-4.942v3.472h5.572zm5.426 1.008h-1.302l-2.814-7.042h1.19l2.268 5.894h.028l2.17-5.894h1.162L591.953 215zm8.77-2.072h1.092c-.149.7-.485 1.251-1.008 1.652-.523.392-1.157.588-1.904.588-1.017 0-1.839-.331-2.464-.994-.616-.663-.924-1.549-.924-2.66 0-1.111.308-2.007.924-2.688.625-.691 1.423-1.036 2.394-1.036.933 0 1.671.322 2.212.966.541.635.812 1.47.812 2.506v.462h-5.208c.028.803.238 1.423.63 1.862.401.439.943.658 1.624.658.457 0 .835-.107 1.134-.322.308-.224.537-.555.686-.994zm-1.89-4.2c-.588 0-1.069.191-1.442.574-.373.373-.607.901-.7 1.582h4.032c-.019-.672-.196-1.199-.532-1.582-.327-.383-.779-.574-1.358-.574zm4.993-.77h1.12v1.288c.168-.439.457-.789.868-1.05.42-.271.896-.406 1.428-.406.793 0 1.409.238 1.848.714.448.467.672 1.12.672 1.96V215H608.6v-4.284c0-.653-.145-1.143-.434-1.47-.28-.336-.695-.504-1.246-.504-.607 0-1.083.205-1.428.616-.336.411-.504.999-.504 1.764V215h-1.162v-7.042zm9.586-1.47h-1.316v-1.414h1.316v1.414zm-.07 8.512h-1.162v-7.042h1.162V215zm2.488-7.042h1.12v1.288c.168-.439.457-.789.868-1.05.42-.271.896-.406 1.428-.406.793 0 1.409.238 1.848.714.448.467.672 1.12.672 1.96V215h-1.162v-4.284c0-.653-.145-1.143-.434-1.47-.28-.336-.695-.504-1.246-.504-.607 0-1.083.205-1.428.616-.336.411-.504.999-.504 1.764V215h-1.162v-7.042zm11.112 8.806c.709 0 1.246-.191 1.61-.574.373-.373.56-.919.56-1.638v-1.036a2.305 2.305 0 0 1-.924.994c-.411.243-.882.364-1.414.364-.934 0-1.69-.322-2.268-.966-.57-.653-.854-1.517-.854-2.59 0-1.045.289-1.895.868-2.548.588-.653 1.339-.98 2.254-.98a2.7 2.7 0 0 1 1.428.392c.429.252.746.588.952 1.008v-1.232h1.134v6.51c0 1.017-.294 1.801-.882 2.352-.588.56-1.405.84-2.45.84-.868 0-1.573-.177-2.114-.532-.532-.355-.868-.863-1.008-1.526h1.176c.102.392.312.681.63.868.317.196.751.294 1.302.294zm.042-2.814c.653 0 1.185-.229 1.596-.686.41-.457.616-1.05.616-1.778v-.336c0-.728-.206-1.316-.616-1.764-.411-.457-.943-.686-1.596-.686-.672 0-1.204.238-1.596.714-.392.467-.588 1.101-.588 1.904 0 .803.196 1.442.588 1.918.392.476.924.714 1.596.714zM4.884 184.915c0 .664.248 1.18.744 1.548.488.36 1.184.54 2.088.54.904 0 1.604-.18 2.1-.54.488-.368.732-.884.732-1.548 0-.472-.12-.852-.36-1.14-.24-.288-.592-.476-1.056-.564v-2.016c.968.184 1.712.596 2.232 1.236.52.64.78 1.468.78 2.484 0 1.264-.404 2.28-1.212 3.048-.816.768-1.888 1.152-3.216 1.152-1.32 0-2.388-.384-3.204-1.152-.816-.768-1.224-1.784-1.224-3.048 0-1.024.26-1.852.78-2.484.52-.64 1.264-1.052 2.232-1.236v2.016c-.464.088-.816.276-1.056.564-.24.288-.36.668-.36 1.14zm.828-7.76c0-.984.292-1.772.876-2.364.584-.6 1.364-.9 2.34-.9.976 0 1.756.3 2.34.9.584.592.876 1.38.876 2.364 0 .992-.292 1.788-.876 2.388-.584.592-1.364.888-2.34.888-.976 0-1.756-.296-2.34-.888-.584-.6-.876-1.396-.876-2.388zm1.44 0c0 .408.156.72.468.936.304.216.74.324 1.308.324.568 0 1.008-.108 1.32-.324.304-.216.456-.528.456-.936 0-.4-.152-.708-.456-.924-.304-.216-.744-.324-1.32-.324-.576 0-1.016.108-1.32.324-.304.216-.456.524-.456.924zm-1.296-4.526v-1.98h.948c-.336-.16-.6-.408-.792-.744-.2-.336-.3-.72-.3-1.152 0-.712.208-1.268.624-1.668.416-.408.992-.612 1.728-.612H12v2.016H8.544c-.432 0-.752.084-.96.252-.216.168-.324.424-.324.768 0 .352.124.628.372.828.248.192.608.288 1.08.288H12v2.004H5.856zm6.288-10.315c0 .896-.176 1.612-.528 2.148-.36.536-.868.84-1.524.912v-1.872a.762.762 0 0 0 .552-.36c.128-.208.192-.472.192-.792 0-.28-.048-.504-.144-.672-.104-.168-.244-.252-.42-.252a.354.354 0 0 0-.324.18c-.08.112-.152.336-.216.672l-.18 1.092c-.104.616-.304 1.072-.6 1.368-.296.296-.688.444-1.176.444-.608 0-1.104-.252-1.488-.756-.384-.512-.576-1.156-.576-1.932 0-.832.176-1.492.528-1.98.344-.488.828-.768 1.452-.84v1.776a.685.685 0 0 0-.492.336 1.169 1.169 0 0 0-.192.684c0 .256.052.464.156.624a.446.446 0 0 0 .396.228.39.39 0 0 0 .336-.168c.072-.112.136-.328.192-.648l.204-1.188c.088-.576.288-1.012.6-1.308.304-.304.708-.456 1.212-.456.608 0 1.1.26 1.476.78.376.512.564 1.172.564 1.98zm-6.288-10.041H12v1.992h-.948c.336.152.604.396.804.732.192.336.288.712.288 1.128 0 .696-.204 1.24-.612 1.632-.416.392-.996.588-1.74.588H5.856v-2.028h3.48c.424 0 .74-.076.948-.228.208-.16.312-.404.312-.732 0-.336-.124-.596-.372-.78-.256-.184-.616-.276-1.08-.276H5.856v-2.028zm-.144-5.469c0-.464.092-.852.276-1.164.176-.32.452-.576.828-.768a2.257 2.257 0 0 1-.804-.864c-.2-.368-.3-.768-.3-1.2 0-.704.208-1.248.624-1.632.408-.384.984-.576 1.728-.576H12v2.016H8.52c-.416 0-.728.08-.936.24-.216.16-.324.396-.324.708 0 .336.124.596.372.78.24.176.592.264 1.056.264H12v2.016H8.52c-.416 0-.728.08-.936.24-.216.16-.324.396-.324.708 0 .336.124.596.372.78.24.184.592.276 1.056.276H12v2.004H5.856v-1.98h.948c-.336-.16-.6-.404-.792-.732a2.1 2.1 0 0 1-.3-1.116zm6.432-11.649c0 .408-.096.78-.288 1.116a1.808 1.808 0 0 1-.768.744h3.048v2.004h-8.28v-1.98h.924a1.808 1.808 0 0 1-.768-.744c-.2-.344-.3-.724-.3-1.14 0-.808.296-1.456.888-1.944.592-.496 1.368-.744 2.328-.744.96 0 1.736.248 2.328.744.592.488.888 1.136.888 1.944zm-5.004.624c0 .4.148.712.444.936.288.224.692.336 1.212.336h.264c.512 0 .916-.112 1.212-.336.288-.224.432-.536.432-.936 0-.416-.152-.736-.456-.96-.312-.224-.752-.336-1.32-.336-.568 0-1.008.116-1.32.348-.312.224-.468.54-.468.948zm3.36-7.409a5.45 5.45 0 0 0-.012-.384 3.374 3.374 0 0 0-.072-.372h1.488a4.2 4.2 0 0 1 .144.684c.032.208.048.432.048.672 0 .72-.148 1.248-.444 1.584-.304.336-.776.504-1.416.504H7.26v.816H5.856v-.816H4.332v-1.98h1.524v-1.332H7.26v1.344h2.568c.24 0 .412-.052.516-.156.104-.112.156-.3.156-.564zm-5.496-4.082v2.076h-1.74v-2.076h1.74zm6.996.036v2.004H5.856v-2.004H12zm-6.288-4.52c0-.984.292-1.772.876-2.364.584-.6 1.364-.9 2.34-.9.976 0 1.756.3 2.34.9.584.592.876 1.38.876 2.364 0 .992-.292 1.788-.876 2.388-.584.592-1.364.888-2.34.888-.976 0-1.756-.296-2.34-.888-.584-.6-.876-1.396-.876-2.388zm1.44 0c0 .408.156.72.468.936.304.216.74.324 1.308.324.568 0 1.008-.108 1.32-.324.304-.216.456-.528.456-.936 0-.4-.152-.708-.456-.924-.304-.216-.744-.324-1.32-.324-.576 0-1.016.108-1.32.324-.304.216-.456.524-.456.924zm-1.296-4.527v-1.98h.948c-.336-.16-.6-.408-.792-.744-.2-.336-.3-.72-.3-1.152 0-.712.208-1.268.624-1.668.416-.408.992-.612 1.728-.612H12v2.016H8.544c-.432 0-.752.084-.96.252-.216.168-.324.424-.324.768 0 .352.124.628.372.828.248.192.608.288 1.08.288H12v2.004H5.856zm2.376-11.431c.848 0 1.704-.164 2.568-.492a9.882 9.882 0 0 0 2.496-1.44v.972c-.792.648-1.612 1.136-2.46 1.464a7.225 7.225 0 0 1-2.604.492 7.194 7.194 0 0 1-2.592-.492 9.401 9.401 0 0 1-2.472-1.464v-.972c.864.632 1.724 1.112 2.58 1.44.856.328 1.684.492 2.484.492zM12 94.874v1.2l-2.844 2.292.756.78H12v.996H3.168v-.996h5.688L5.964 96.17v-1.188l2.556 2.664L12 94.874zm0-9.307v1.176l-7.2 1.932v.024l7.2 1.944v1.164l-8.568 2.412v-1.092l7.284-1.968v-.024l-7.284-1.932v-1.092l7.284-1.944v-.024l-7.284-1.956v-1.032L12 85.567zm-8.832-4.772h3.9a1.763 1.763 0 0 1-.912-.732 2.15 2.15 0 0 1-.336-1.2c0-.68.204-1.208.612-1.584.4-.384.96-.576 1.68-.576H12v.996H8.328c-.56 0-.98.124-1.26.372-.288.24-.432.596-.432 1.068 0 .52.176.928.528 1.224.352.288.856.432 1.512.432H12v.996H3.168v-.996zm5.064-7.736c-.8 0-1.628.164-2.484.492-.856.328-1.716.808-2.58 1.44v-.972a9.139 9.139 0 0 1 2.472-1.452 7.043 7.043 0 0 1 2.592-.504c.88 0 1.748.164 2.604.492.848.328 1.668.816 2.46 1.464v.972a9.596 9.596 0 0 0-2.496-1.428 7.047 7.047 0 0 0-2.568-.504zM6.276 284.049c.92 0 1.624.288 2.112.864.48.576.72 1.404.72 2.484v1.848H12v2.028H3.432v-3.852c0-1.088.244-1.92.732-2.496.488-.584 1.192-.876 2.112-.876zm-1.248 5.196h2.484v-1.608c0-.52-.1-.908-.3-1.164-.208-.256-.52-.384-.936-.384-.424 0-.736.128-.936.384-.208.248-.312.636-.312 1.164v1.608zm.732-10.132c0-.104.004-.192.012-.264a.535.535 0 0 1 .048-.18h1.848a3.421 3.421 0 0 0-.036.3 4.57 4.57 0 0 0-.012.348c0 .496.148.888.444 1.176.296.288.712.432 1.248.432H12v2.004H5.856v-1.98h1.308c-.456-.152-.804-.388-1.044-.708-.24-.32-.36-.696-.36-1.128zm-.048-4.419c0-.984.292-1.772.876-2.364.584-.6 1.364-.9 2.34-.9.976 0 1.756.3 2.34.9.584.592.876 1.38.876 2.364 0 .992-.292 1.788-.876 2.388-.584.592-1.364.888-2.34.888-.976 0-1.756-.296-2.34-.888-.584-.6-.876-1.396-.876-2.388zm1.44 0c0 .408.156.72.468.936.304.216.74.324 1.308.324.568 0 1.008-.108 1.32-.324.304-.216.456-.528.456-.936 0-.4-.152-.708-.456-.924-.304-.216-.744-.324-1.32-.324-.576 0-1.016.108-1.32.324-.304.216-.456.524-.456.924zm4.992-6.806c0 .808-.296 1.46-.888 1.956-.592.488-1.368.732-2.328.732-.96 0-1.736-.244-2.328-.732-.592-.496-.888-1.148-.888-1.956 0-.416.096-.788.288-1.116.192-.336.448-.584.768-.744h-3.6v-2.004H12v1.98h-.912c.32.16.576.412.768.756.192.344.288.72.288 1.128zm-5.004-.624c0 .408.156.728.468.96.312.224.752.336 1.32.336.568 0 1.008-.112 1.32-.336.304-.224.456-.544.456-.96 0-.4-.144-.712-.432-.936-.296-.224-.7-.336-1.212-.336h-.264c-.52 0-.924.112-1.212.336-.296.224-.444.536-.444.936zm-1.284-10.901H12v1.992h-.948c.336.152.604.396.804.732.192.336.288.712.288 1.128 0 .696-.204 1.24-.612 1.632-.416.392-.996.588-1.74.588H5.856v-2.028h3.48c.424 0 .74-.076.948-.228.208-.16.312-.404.312-.732 0-.336-.124-.596-.372-.78-.256-.184-.616-.276-1.08-.276H5.856v-2.028zm6.288-4.485c0 .976-.292 1.764-.876 2.364-.592.592-1.372.888-2.34.888-.968 0-1.744-.296-2.328-.888-.592-.6-.888-1.388-.888-2.364 0-.8.212-1.452.636-1.956.424-.512 1.004-.812 1.74-.9v1.896c-.288.04-.512.148-.672.324-.168.168-.252.388-.252.66 0 .384.156.684.468.9.312.208.744.312 1.296.312s.984-.104 1.296-.312c.304-.216.456-.516.456-.9 0-.272-.08-.492-.24-.66-.168-.176-.396-.284-.684-.324v-1.896c.736.088 1.32.388 1.752.9.424.504.636 1.156.636 1.956zm-1.644-6.879a5.45 5.45 0 0 0-.012-.384 3.374 3.374 0 0 0-.072-.372h1.488a4.2 4.2 0 0 1 .144.684c.032.208.048.432.048.672 0 .72-.148 1.248-.444 1.584-.304.336-.776.504-1.416.504H7.26v.816H5.856v-.816H4.332v-1.98h1.524v-1.332H7.26v1.344h2.568c.24 0 .412-.052.516-.156.104-.112.156-.3.156-.564zm-5.496-4.082v2.076h-1.74v-2.076h1.74zm6.996.036v2.004H5.856v-2.004H12zm-6.288-4.521c0-.984.292-1.772.876-2.364.584-.6 1.364-.9 2.34-.9.976 0 1.756.3 2.34.9.584.592.876 1.38.876 2.364 0 .992-.292 1.788-.876 2.388-.584.592-1.364.888-2.34.888-.976 0-1.756-.296-2.34-.888-.584-.6-.876-1.396-.876-2.388zm1.44 0c0 .408.156.72.468.936.304.216.74.324 1.308.324.568 0 1.008-.108 1.32-.324.304-.216.456-.528.456-.936 0-.4-.152-.708-.456-.924-.304-.216-.744-.324-1.32-.324-.576 0-1.016.108-1.32.324-.304.216-.456.524-.456.924zm-1.296-4.526v-1.98h.948c-.336-.16-.6-.408-.792-.744-.2-.336-.3-.72-.3-1.152 0-.712.208-1.268.624-1.668.416-.408.992-.612 1.728-.612H12v2.016H8.544c-.432 0-.752.084-.96.252-.216.168-.324.424-.324.768 0 .352.124.628.372.828.248.192.608.288 1.08.288H12v2.004H5.856z" fill="#7C756C"/><path d="M735.958 352h-1.032v-7.704h-3.192v-.864h7.428v.864h-3.204V352zm4.096 1.404c.288 0 .52-.092.696-.276.176-.184.368-.544.576-1.08l-2.424-6.084h1.044l1.92 4.932h.024l1.812-4.932h1.032l-2.436 6.216c-.304.792-.612 1.328-.924 1.608-.304.288-.708.436-1.212.444-.08 0-.176-.008-.288-.024a3.421 3.421 0 0 1-.3-.036v-.816c.072.016.14.028.204.036.064.008.156.012.276.012zm9.084-1.26c-.44 0-.84-.108-1.2-.324a2.114 2.114 0 0 1-.804-.876v3.192h-.996v-8.172h.96v1.104c.168-.368.436-.668.804-.9a2.27 2.27 0 0 1 1.236-.348c.792 0 1.436.296 1.932.888.504.584.756 1.344.756 2.28 0 .936-.252 1.696-.756 2.28-.504.584-1.148.876-1.932.876zm-.204-5.544c-.568 0-1.02.208-1.356.624-.328.408-.492.964-.492 1.668v.168c0 .704.164 1.264.492 1.68.336.416.788.624 1.356.624.576 0 1.032-.216 1.368-.648.344-.432.516-1.008.516-1.728 0-.728-.172-1.308-.516-1.74-.336-.432-.792-.648-1.368-.648zm5.643-1.896h-1.128v-1.212h1.128v1.212zm-.06 7.296h-.996v-6.036h.996V352zm4.533.144c-.856 0-1.544-.288-2.064-.864-.52-.576-.78-1.34-.78-2.292 0-.952.26-1.716.78-2.292.528-.584 1.216-.876 2.064-.876.664 0 1.208.18 1.632.54.432.36.696.864.792 1.512h-.948c-.088-.408-.256-.716-.504-.924-.248-.216-.572-.324-.972-.324-.576 0-1.032.212-1.368.636-.328.424-.492 1-.492 1.728s.164 1.304.492 1.728c.336.416.792.624 1.368.624.4 0 .724-.104.972-.312.248-.216.416-.528.504-.936h.948c-.096.648-.356 1.152-.78 1.512-.424.36-.972.54-1.644.54zm8.761-.144h-.996a8.27 8.27 0 0 1-.084-.504 5.977 5.977 0 0 1-.024-.516c-.128.352-.384.632-.768.84-.376.208-.82.312-1.332.312-.576 0-1.048-.156-1.416-.468-.36-.32-.54-.74-.54-1.26s.172-.932.516-1.236c.352-.304.876-.496 1.572-.576l1.944-.252v-.348c0-.44-.124-.776-.372-1.008-.24-.24-.588-.36-1.044-.36-.4 0-.72.1-.96.3-.24.192-.38.464-.42.816h-.96c.056-.592.296-1.06.72-1.404.432-.344.98-.516 1.644-.516.768 0 1.356.184 1.764.552.408.368.612.9.612 1.596v2.772c0 .28.012.52.036.72.024.192.06.372.108.54zm-4.152-1.62c0 .304.104.548.312.732.208.176.488.264.84.264.536 0 .98-.16 1.332-.48.36-.328.54-.752.54-1.272v-.54l-1.644.18c-.52.072-.88.196-1.08.372-.2.176-.3.424-.3.744zm7.077-7.212V352h-.996v-8.832h.996zm6.978 8.976c-.784 0-1.428-.292-1.932-.876-.504-.584-.756-1.344-.756-2.28 0-.936.248-1.696.744-2.28.504-.592 1.152-.888 1.944-.888.456 0 .86.112 1.212.336.36.216.624.508.792.876v-3.864h.996V352h-.96v-1.056c-.176.352-.448.64-.816.864a2.308 2.308 0 0 1-1.224.336zm.204-5.544c-.576 0-1.036.216-1.38.648-.336.432-.504 1.012-.504 1.74 0 .72.168 1.296.504 1.728.344.432.804.648 1.38.648.568 0 1.016-.208 1.344-.624.336-.416.504-.976.504-1.68v-.168c0-.704-.168-1.26-.504-1.668-.328-.416-.776-.624-1.344-.624zm9.627 5.4h-.996a8.27 8.27 0 0 1-.084-.504 5.977 5.977 0 0 1-.024-.516c-.128.352-.384.632-.768.84-.376.208-.82.312-1.332.312-.576 0-1.048-.156-1.416-.468-.36-.32-.54-.74-.54-1.26s.172-.932.516-1.236c.352-.304.876-.496 1.572-.576l1.944-.252v-.348c0-.44-.124-.776-.372-1.008-.24-.24-.588-.36-1.044-.36-.4 0-.72.1-.96.3-.24.192-.38.464-.42.816h-.96c.056-.592.296-1.06.72-1.404.432-.344.98-.516 1.644-.516.768 0 1.356.184 1.764.552.408.368.612.9.612 1.596v2.772c0 .28.012.52.036.72.024.192.06.372.108.54zm-4.152-1.62c0 .304.104.548.312.732.208.176.488.264.84.264.536 0 .98-.16 1.332-.48.36-.328.54-.752.54-1.272v-.54l-1.644.18c-.52.072-.88.196-1.08.372-.2.176-.3.424-.3.744zm7.137-5.676h-1.128v-1.212h1.128v1.212zm-.06 7.296h-.996v-6.036h.996V352zm3.129-8.832V352h-.996v-8.832h.996zm2.553 10.236c.288 0 .52-.092.696-.276.176-.184.368-.544.576-1.08L795 345.964h1.044l1.92 4.932h.024l1.812-4.932h1.032l-2.436 6.216c-.304.792-.612 1.328-.924 1.608-.304.288-.708.436-1.212.444-.08 0-.176-.008-.288-.024a3.421 3.421 0 0 1-.3-.036v-.816c.072.016.14.028.204.036.064.008.156.012.276.012zm12.706-3.18h.936c-.128.6-.416 1.072-.864 1.416-.448.336-.992.504-1.632.504-.872 0-1.576-.284-2.112-.852-.528-.568-.792-1.328-.792-2.28 0-.952.264-1.72.792-2.304.536-.592 1.22-.888 2.052-.888.8 0 1.432.276 1.896.828.464.544.696 1.26.696 2.148v.396h-4.464c.024.688.204 1.22.54 1.596.344.376.808.564 1.392.564.392 0 .716-.092.972-.276.264-.192.46-.476.588-.852zm-1.62-3.6c-.504 0-.916.164-1.236.492-.32.32-.52.772-.6 1.356h3.456c-.016-.576-.168-1.028-.456-1.356-.28-.328-.668-.492-1.164-.492zm5.275-3.456V352h-.996v-8.832h.996zm6.153 7.056h.936c-.128.6-.416 1.072-.864 1.416-.448.336-.992.504-1.632.504-.872 0-1.576-.284-2.112-.852-.528-.568-.792-1.328-.792-2.28 0-.952.264-1.72.792-2.304.536-.592 1.22-.888 2.052-.888.8 0 1.432.276 1.896.828.464.544.696 1.26.696 2.148v.396h-4.464c.024.688.204 1.22.54 1.596.344.376.808.564 1.392.564.392 0 .716-.092.972-.276.264-.192.46-.476.588-.852zm-1.62-3.6c-.504 0-.916.164-1.236.492-.32.32-.52.772-.6 1.356h3.456c-.016-.576-.168-1.028-.456-1.356-.28-.328-.668-.492-1.164-.492zm6.68 5.52c-.856 0-1.544-.288-2.064-.864-.52-.576-.78-1.34-.78-2.292 0-.952.26-1.716.78-2.292.528-.584 1.216-.876 2.064-.876.664 0 1.208.18 1.632.54.432.36.696.864.792 1.512h-.948c-.088-.408-.256-.716-.504-.924-.248-.216-.572-.324-.972-.324-.576 0-1.032.212-1.368.636-.328.424-.492 1-.492 1.728s.164 1.304.492 1.728c.336.416.792.624 1.368.624.4 0 .724-.104.972-.312.248-.216.416-.528.504-.936h.948c-.096.648-.356 1.152-.78 1.512-.424.36-.972.54-1.644.54zm6.001-.888c.144 0 .284-.012.42-.036.144-.024.296-.06.456-.108v.816a3.818 3.818 0 0 1-.552.12 2.688 2.688 0 0 1-.504.048c-.56 0-.98-.136-1.26-.408-.272-.272-.408-.684-.408-1.236v-3.732h-.888v-.756h.888v-1.536h.984v1.536h1.584v.756h-1.596v3.684c0 .296.068.512.204.648.144.136.368.204.672.204zm5.377-5.424c.088 0 .172.004.252.012.08.008.152.02.216.036v.912a1.54 1.54 0 0 0-.24-.036 3.05 3.05 0 0 0-.276-.012c-.536 0-.976.208-1.32.624-.344.408-.516.96-.516 1.656V352h-.996v-6.036h.96v1.428c.128-.48.364-.86.708-1.14.344-.28.748-.42 1.212-.42zm2.793-1.128h-1.128v-1.212h1.128v1.212zm-.06 7.296h-.996v-6.036h.996V352zm4.533.144c-.856 0-1.544-.288-2.064-.864-.52-.576-.78-1.34-.78-2.292 0-.952.26-1.716.78-2.292.528-.584 1.216-.876 2.064-.876.664 0 1.208.18 1.632.54.432.36.696.864.792 1.512h-.948c-.088-.408-.256-.716-.504-.924-.248-.216-.572-.324-.972-.324-.576 0-1.032.212-1.368.636-.328.424-.492 1-.492 1.728s.164 1.304.492 1.728c.336.416.792.624 1.368.624.4 0 .724-.104.972-.312.248-.216.416-.528.504-.936h.948c-.096.648-.356 1.152-.78 1.512-.424.36-.972.54-1.644.54zm5.125-7.44h-1.128v-1.212h1.128v1.212zm-.06 7.296h-.996v-6.036h.996V352zm4.065-.744c.144 0 .284-.012.42-.036.144-.024.296-.06.456-.108v.816a3.818 3.818 0 0 1-.552.12 2.688 2.688 0 0 1-.504.048c-.56 0-.98-.136-1.26-.408-.272-.272-.408-.684-.408-1.236v-3.732h-.888v-.756h.888v-1.536h.984v1.536h1.584v.756h-1.596v3.684c0 .296.068.512.204.648.144.136.368.204.672.204zm2.918 2.148c.288 0 .52-.092.696-.276.176-.184.368-.544.576-1.08l-2.424-6.084h1.044l1.92 4.932h.024l1.812-4.932h1.032l-2.436 6.216c-.304.792-.612 1.328-.924 1.608-.304.288-.708.436-1.212.444-.08 0-.176-.008-.288-.024a3.421 3.421 0 0 1-.3-.036v-.816c.072.016.14.028.204.036.064.008.156.012.276.012zm13.653-7.44V352h-.972v-1.092a1.828 1.828 0 0 1-.732.912c-.344.216-.74.324-1.188.324-.68 0-1.208-.196-1.584-.588-.368-.4-.552-.968-.552-1.704v-3.888h1.008v3.696c0 .568.116.996.348 1.284.24.28.596.42 1.068.42.504 0 .896-.18 1.176-.54.28-.36.42-.872.42-1.536v-3.324h1.008zm4.246 6.18c-.768 0-1.388-.168-1.86-.504-.464-.344-.72-.82-.768-1.428h.96c.032.368.196.656.492.864.304.208.692.312 1.164.312.432 0 .776-.092 1.032-.276a.893.893 0 0 0 .396-.756.66.66 0 0 0-.264-.552c-.168-.144-.432-.252-.792-.324l-1.068-.216c-.592-.112-1.02-.296-1.284-.552-.264-.264-.396-.624-.396-1.08 0-.52.212-.952.636-1.296.424-.344.96-.516 1.608-.516.704 0 1.26.152 1.668.456.408.296.64.724.696 1.284h-.924a.924.924 0 0 0-.432-.708c-.256-.176-.592-.264-1.008-.264-.4 0-.72.092-.96.276a.834.834 0 0 0-.36.708c0 .24.08.428.24.564.16.128.432.228.816.3l1.2.228c.528.104.92.292 1.176.564.256.264.384.624.384 1.08 0 .528-.224.968-.672 1.32-.44.344-1 .516-1.68.516zm8.095-1.92h.936c-.128.6-.416 1.072-.864 1.416-.448.336-.992.504-1.632.504-.872 0-1.576-.284-2.112-.852-.528-.568-.792-1.328-.792-2.28 0-.952.264-1.72.792-2.304.536-.592 1.22-.888 2.052-.888.8 0 1.432.276 1.896.828.464.544.696 1.26.696 2.148v.396h-4.464c.024.688.204 1.22.54 1.596.344.376.808.564 1.392.564.392 0 .716-.092.972-.276.264-.192.46-.476.588-.852zm-1.62-3.6c-.504 0-.916.164-1.236.492-.32.32-.52.772-.6 1.356h3.456c-.016-.576-.168-1.028-.456-1.356-.28-.328-.668-.492-1.164-.492zm9.281 5.52c-.856 0-1.544-.288-2.064-.864-.52-.576-.78-1.34-.78-2.292 0-.952.26-1.716.78-2.292.528-.584 1.216-.876 2.064-.876.664 0 1.208.18 1.632.54.432.36.696.864.792 1.512h-.948c-.088-.408-.256-.716-.504-.924-.248-.216-.572-.324-.972-.324-.576 0-1.032.212-1.368.636-.328.424-.492 1-.492 1.728s.164 1.304.492 1.728c.336.416.792.624 1.368.624.4 0 .724-.104.972-.312.248-.216.416-.528.504-.936h.948c-.096.648-.356 1.152-.78 1.512-.424.36-.972.54-1.644.54zm9.037-6.18V352h-.972v-1.092a1.828 1.828 0 0 1-.732.912c-.344.216-.74.324-1.188.324-.68 0-1.208-.196-1.584-.588-.368-.4-.552-.968-.552-1.704v-3.888h1.008v3.696c0 .568.116.996.348 1.284.24.28.596.42 1.068.42.504 0 .896-.18 1.176-.54.28-.36.42-.872.42-1.536v-3.324h1.008zm5.014-.132c.088 0 .172.004.252.012.08.008.152.02.216.036v.912a1.54 1.54 0 0 0-.24-.036 3.05 3.05 0 0 0-.276-.012c-.536 0-.976.208-1.32.624-.344.408-.516.96-.516 1.656V352h-.996v-6.036h.96v1.428c.128-.48.364-.86.708-1.14.344-.28.748-.42 1.212-.42zm4.767 6.168h-1.116l-2.412-6.036h1.02l1.944 5.052h.024l1.86-5.052h.996L906.891 352zm7.517-1.776h.936c-.128.6-.416 1.072-.864 1.416-.448.336-.992.504-1.632.504-.872 0-1.576-.284-2.112-.852-.528-.568-.792-1.328-.792-2.28 0-.952.264-1.72.792-2.304.536-.592 1.22-.888 2.052-.888.8 0 1.432.276 1.896.828.464.544.696 1.26.696 2.148v.396h-4.464c.024.688.204 1.22.54 1.596.344.376.808.564 1.392.564.392 0 .716-.092.972-.276.264-.192.46-.476.588-.852zm-1.62-3.6c-.504 0-.916.164-1.236.492-.32.32-.52.772-.6 1.356h3.456c-.016-.576-.168-1.028-.456-1.356-.28-.328-.668-.492-1.164-.492z" fill="gray"/></svg>