<svg width="375" height="276" fill="none" xmlns="http://www.w3.org/2000/svg"><path d="M64.381 144.199c-11.832 0-14.214 28.01-64.381 19.563v14.228h375v-14.228c-4.32.741-31.774 1.111-47.659-3.113-21.74-5.78-33.864-12.004-44.733-28.455-14.522-21.978-21.321-37.348-48.913-37.348-23.411 0-40.134 13.338-50.167 35.569-11.639 25.788-30.1 33.347-51.003 33.347-44.844 0-48.913-19.563-68.144-19.563z" fill="#EFEDEB"/><path d="M0 164.354c50.167 8.52 52.55-19.731 64.381-19.731 19.23 0 23.3 19.731 68.144 19.731 20.903 0 39.782-6.727 51.421-32.736 10.033-22.422 26.338-36.772 49.749-36.772 27.592 0 34.391 15.502 48.913 37.669 10.869 16.592 22.993 22.87 44.733 28.7 15.885 4.26 43.339 3.886 47.659 3.139" stroke="#B2ADA6" stroke-width="2"/><mask id="a" maskUnits="userSpaceOnUse" x="183" y="85" width="98" height="93"><path d="M184 85h96.153v93H184V85z" fill="#C4C4C4"/></mask><g mask="url(#a)"><path opacity=".5" d="M64.38 144.343c-11.831 0-14.213 27.9-64.38 19.485V178h375v-14.172c-4.32.739-31.774 1.107-47.66-3.1-21.739-5.757-33.863-11.957-44.732-28.342-14.522-21.891-21.321-37.2-48.913-37.2-23.412 0-40.552 15.5-50.585 37.642-11.639 25.686-29.683 31-50.586 31-44.844 0-48.912-19.485-68.143-19.485z" fill="#F44D45"/><path d="M0 163.828c50.167 8.415 52.549-19.485 64.38-19.485 19.232 0 23.3 19.485 68.144 19.485 20.903 0 39.365-5.757 51.004-31.443 10.033-22.142 26.755-37.2 50.167-37.2 27.592 0 34.391 15.31 48.913 37.201 10.869 16.385 22.993 22.585 44.732 28.342 15.886 4.207 43.34 3.839 47.66 3.1" stroke="#F44D45" stroke-width="2"/></g><path d="M239.143 154.24c0 1.66-.63 3.06-1.89 4.2-1.26 1.12-2.88 1.74-4.86 1.86v2.97h-1.56v-3c-2.14-.18-3.87-.85-5.19-2.01-1.32-1.16-2.02-2.66-2.1-4.5h1.71c.14 1.42.69 2.55 1.65 3.39.98.84 2.29 1.34 3.93 1.5v-8.73l-1.44-.3c-1.8-.38-3.11-1.01-3.93-1.89-.82-.88-1.23-2.06-1.23-3.54 0-1.68.61-3.07 1.83-4.17 1.22-1.1 2.81-1.69 4.77-1.77v-2.82h1.56v2.88c1.88.16 3.35.71 4.41 1.65 1.08.94 1.71 2.23 1.89 3.87h-1.71c-.14-1.12-.61-2.01-1.41-2.67-.78-.66-1.84-1.07-3.18-1.23v8.52l1.65.33c1.74.38 3.02 1.02 3.84 1.92.84.88 1.26 2.06 1.26 3.54zm-13.2-10.05c0 1.06.29 1.87.87 2.43.58.56 1.6.99 3.06 1.29l.96.21v-8.25c-1.5.08-2.69.51-3.57 1.29-.88.78-1.32 1.79-1.32 3.03zm11.49 10.11c0-1.08-.33-1.93-.99-2.55-.64-.62-1.64-1.06-3-1.32l-1.05-.21v8.46c1.54-.08 2.76-.51 3.66-1.29.92-.8 1.38-1.83 1.38-3.09z" fill="#fff"/><path d="M237.253 158.44l.333.374.003-.003-.336-.371zm-4.86 1.86l-.03-.499-.47.028v.471h.5zm0 2.97v.5h.5v-.5h-.5zm-1.56 0h-.5v.5h.5v-.5zm0-3h.5v-.46l-.458-.038-.042.498zm-5.19-2.01l.33-.376-.33.376zm-2.1-4.5v-.5h-.522l.023.522.499-.022zm1.71 0l.498-.049-.044-.451h-.454v.5zm1.65 3.39l-.329.376.004.004.325-.38zm3.93 1.5l-.048.498.548.053v-.551h-.5zm0-8.73h.5v-.407l-.398-.082-.102.489zm-1.44-.3l-.103.489h.001l.102-.489zm1.44-11.37l.021.5.479-.02v-.48h-.5zm0-2.82v-.5h-.5v.5h.5zm1.56 0h.5v-.5h-.5v.5zm0 2.88h-.5v.459l.458.039.042-.498zm4.41 1.65l-.331.374.003.003.328-.377zm1.89 3.87v.5h.558l-.061-.555-.497.055zm-1.71 0l-.496.062.055.438h.441v-.5zm-1.41-2.67l-.323.382.005.004.318-.386zm-3.18-1.23l.06-.496-.56-.067v.563h.5zm0 8.52h-.5v.41l.402.08.098-.49zm1.65.33l.107-.489-.009-.001-.098.49zm3.84 1.92l-.369.337.008.008.361-.345zm-11.07-4.08l-.347.36.347-.36zm3.06 1.29l.107-.488-.006-.002-.101.49zm.96.21l-.106.488.606.133v-.621h-.5zm0-8.25h.5v-.527l-.526.028.026.499zm-3.57 1.29l.332.374-.332-.374zm9.18 10.59l-.348.359.006.005.342-.364zm-3-1.32l-.098.49.005.001.093-.491zm-1.05-.21l.098-.49-.598-.12v.61h.5zm0 8.46h-.5v.527l.526-.028-.026-.499zm3.66-1.29l.328.378.001-.001-.329-.377zm2.59-3.15c0 1.515-.567 2.781-1.725 3.829l.671.742c1.362-1.232 2.054-2.766 2.054-4.571h-1zm-1.722 3.826c-1.162 1.033-2.669 1.62-4.558 1.735l.061.998c2.071-.125 3.804-.778 5.162-1.985l-.665-.748zm-5.028 2.234v2.97h1v-2.97h-1zm.5 2.47h-1.56v1h1.56v-1zm-1.06.5v-3h-1v3h1zm-.458-3.498c-2.057-.173-3.678-.813-4.902-1.888l-.66.752c1.417 1.245 3.256 1.945 5.479 2.132l.083-.996zm-4.902-1.888c-1.212-1.065-1.856-2.435-1.93-4.146l-.999.044c.086 1.969.842 3.599 2.269 4.854l.66-.752zm-2.43-3.624h1.71v-1h-1.71v1zm1.213-.451c.151 1.53.751 2.783 1.818 3.717l.659-.752c-.853-.746-1.353-1.753-1.482-3.063l-.995.098zm1.822 3.721c1.077.923 2.493 1.45 4.207 1.618l.097-.996c-1.566-.152-2.77-.625-3.653-1.382l-.651.76zm4.755 1.12v-8.73h-1v8.73h1zm-.398-9.219l-1.44-.3-.204.978 1.44.3.204-.978zm-1.438-.3c-1.75-.369-2.946-.967-3.668-1.742l-.731.682c.918.985 2.341 1.647 4.192 2.038l.207-.978zm-3.668-1.742c-.715-.767-1.096-1.815-1.096-3.199h-1c0 1.576.44 2.888 1.365 3.881l.731-.682zm-1.096-3.199c0-1.542.553-2.796 1.665-3.799l-.669-.742c-1.328 1.197-1.996 2.723-1.996 4.541h1zm1.665-3.799c1.118-1.007 2.589-1.565 4.456-1.641l-.041-1c-2.053.084-3.762.706-5.084 1.899l.669.742zm4.935-2.141v-2.82h-1v2.82h1zm-.5-2.32h1.56v-1h-1.56v1zm1.06-.5v2.88h1v-2.88h-1zm.458 3.378c1.808.154 3.164.678 4.121 1.526l.663-.748c-1.163-1.032-2.747-1.608-4.699-1.774l-.085.996zm4.124 1.529c.971.845 1.553 2.012 1.721 3.548l.994-.11c-.191-1.744-.869-3.157-2.058-4.192l-.657.754zm2.218 2.993h-1.71v1h1.71v-1zm-1.213.438c-.155-1.234-.681-2.245-1.588-2.994l-.637.772c.693.571 1.107 1.34 1.232 2.346l.993-.124zm-1.584-2.99c-.875-.74-2.037-1.177-3.443-1.344l-.119.992c1.274.153 2.232.536 2.916 1.116l.646-.764zm-4.003-.848v8.52h1v-8.52h-1zm.402 9.01l1.65.33.196-.98-1.65-.33-.196.98zm1.642.328c1.683.368 2.852.973 3.577 1.769l.739-.674c-.915-1.004-2.306-1.679-4.103-2.071l-.213.976zm3.585 1.777c.733.768 1.121 1.814 1.121 3.195h1c0-1.579-.451-2.893-1.398-3.885l-.723.69zm-12.079-6.855c0 1.151.318 2.108 1.023 2.79l.695-.72c-.455-.438-.718-1.101-.718-2.07h-1zm1.023 2.79c.685.661 1.821 1.115 3.307 1.42l.201-.98c-1.434-.295-2.338-.701-2.813-1.16l-.695.72zm3.301 1.418l.96.21.213-.976-.96-.21-.213.976zm1.566-.278v-8.25h-1v8.25h1zm-.526-8.749c-1.581.084-2.89.541-3.875 1.415l.663.748c.774-.686 1.846-1.089 3.265-1.165l-.053-.998zm-3.875 1.415c-.994.88-1.489 2.03-1.489 3.404h1c0-1.106.386-1.976 1.152-2.656l-.663-.748zm11.001 13.514c0-1.189-.367-2.182-1.147-2.914l-.685.728c.54.508.832 1.215.832 2.186h1zm-1.142-2.909c-.738-.716-1.847-1.183-3.254-1.452l-.187.982c1.313.251 2.204.664 2.746 1.188l.695-.718zm-3.25-1.451l-1.05-.21-.196.98 1.05.21.196-.98zm-1.648.28v8.46h1v-8.46h-1zm.526 8.959c1.619-.084 2.956-.539 3.962-1.411l-.655-.756c-.794.688-1.897 1.093-3.359 1.169l.052.998zm3.963-1.412c1.033-.898 1.551-2.068 1.551-3.467h-1c0 1.121-.401 2.011-1.208 2.713l.657.754z" fill="#fff"/><path stroke="#F44D45" d="M184.5 76v102M279.5 178V76"/><path d="M201.46 76.192c0 1.163-.368 2.054-1.104 2.673-.725.618-1.776.928-3.152.928h-2.656V84h-2.08V72.577h4.72c1.376 0 2.432.31 3.168.928.736.62 1.104 1.515 1.104 2.688zm-6.912-1.935v3.871h2.464c.789 0 1.376-.16 1.76-.48.395-.32.592-.805.592-1.456 0-.65-.197-1.135-.592-1.455-.384-.32-.971-.48-1.76-.48h-2.464zm13.684 7.215h1.888c-.17.843-.586 1.51-1.248 2-.65.48-1.456.72-2.416.72-1.226 0-2.218-.383-2.976-1.151-.757-.78-1.136-1.808-1.136-3.088s.379-2.31 1.136-3.088c.758-.79 1.734-1.184 2.928-1.184 1.152 0 2.064.378 2.736 1.136.683.757 1.024 1.744 1.024 2.96v.656h-5.84c.064.725.278 1.285.64 1.68.363.383.859.576 1.488.576.448 0 .822-.102 1.12-.304.299-.203.518-.507.656-.913zm-1.824-4.271c-.544 0-.992.165-1.344.496-.341.32-.565.789-.672 1.407h3.824c0-.565-.165-1.023-.496-1.376-.32-.352-.757-.527-1.312-.527zm12.627 6.8h-1.968a13.976 13.976 0 0 1-.08-.64 6.53 6.53 0 0 1-.032-.64c-.192.458-.528.816-1.008 1.072-.469.255-1.034.383-1.696.383-.821 0-1.482-.213-1.984-.64-.501-.426-.752-.997-.752-1.712 0-.714.246-1.28.736-1.695.491-.416 1.222-.683 2.192-.8l2.432-.272v-.385c0-.469-.133-.831-.4-1.087-.266-.256-.645-.384-1.136-.384-.437 0-.789.112-1.056.336-.266.223-.416.527-.448.911h-1.968c.086-.863.443-1.54 1.072-2.031.63-.491 1.451-.737 2.464-.737 1.131 0 1.99.267 2.576.8.598.534.896 1.318.896 2.352v3.137c0 .437.011.816.032 1.136.032.309.075.608.128.895zm-5.488-2.288c0 .33.112.586.336.768.224.18.534.272.928.272.598 0 1.088-.171 1.472-.513.395-.352.592-.816.592-1.391v-.496l-1.808.208c-.576.074-.976.202-1.2.383-.213.171-.32.427-.32.769zM229.311 84h-2.352l-2.672-3.44-.944.911v2.529h-2.048V72.225h2.048v7.136l3.456-3.489h2.352l-3.44 3.392 3.6 4.737zm9.418-8.273c.117 0 .229.006.336.017a1.6 1.6 0 0 1 .272.047v1.888a3.153 3.153 0 0 0-.368-.048 5.02 5.02 0 0 0-.416-.016c-.694 0-1.248.235-1.664.704-.416.47-.624 1.11-.624 1.92V84h-2.048v-8.127h2.016v1.823c.192-.618.506-1.098.944-1.44.437-.352.954-.528 1.552-.528zm9.103 8.273h-1.968a13.976 13.976 0 0 1-.08-.64 6.53 6.53 0 0 1-.032-.64c-.192.458-.528.816-1.008 1.072-.469.255-1.034.383-1.696.383-.821 0-1.482-.213-1.984-.64-.501-.426-.752-.997-.752-1.712 0-.714.246-1.28.736-1.695.491-.416 1.222-.683 2.192-.8l2.432-.272v-.385c0-.469-.133-.831-.4-1.087-.266-.256-.645-.384-1.136-.384-.437 0-.789.112-1.056.336-.266.223-.416.527-.448.911h-1.968c.086-.863.443-1.54 1.072-2.031.63-.491 1.451-.737 2.464-.737 1.131 0 1.99.267 2.576.8.598.534.896 1.318.896 2.352v3.137c0 .437.011.816.032 1.136.032.309.075.608.128.895zm-5.488-2.288c0 .33.112.586.336.768.224.18.534.272.928.272.598 0 1.088-.171 1.472-.513.395-.352.592-.816.592-1.391v-.496l-1.808.208c-.576.074-.976.202-1.2.383-.213.171-.32.427-.32.769zm10.98.768c.181 0 .357-.011.528-.032.17-.032.352-.075.544-.129v1.569a4.73 4.73 0 0 1-.8.175 4.96 4.96 0 0 1-.816.065c-.864 0-1.504-.193-1.92-.577-.406-.384-.608-.976-.608-1.776v-4.431h-1.12v-1.472h1.12V73.84h2.032v2.032h1.936v1.471h-1.952v4.113c0 .352.08.613.24.784.17.16.442.24.816.24zm8.315-1.008h1.888c-.171.842-.587 1.509-1.248 2-.651.48-1.456.72-2.416.72-1.227 0-2.219-.385-2.976-1.153-.758-.778-1.136-1.808-1.136-3.088s.378-2.309 1.136-3.087c.757-.79 1.733-1.184 2.928-1.184 1.152 0 2.064.378 2.736 1.136.682.757 1.024 1.744 1.024 2.96v.656h-5.84c.064.725.277 1.285.64 1.68.362.383.858.576 1.488.576.448 0 .821-.102 1.12-.304.298-.203.517-.507.656-.913zm-1.824-4.272c-.544 0-.992.165-1.344.496-.342.32-.566.789-.672 1.407h3.824c0-.565-.166-1.023-.496-1.376-.32-.352-.758-.527-1.312-.527zm8.851 6.992c-1.12 0-2.016-.23-2.688-.689-.662-.469-1.035-1.125-1.12-1.968h1.952c.042.385.229.689.56.912.341.214.762.32 1.264.32.458 0 .826-.09 1.104-.272.288-.18.432-.426.432-.736 0-.256-.096-.448-.288-.576-.182-.138-.502-.25-.96-.335l-1.44-.257c-.79-.138-1.376-.4-1.76-.784-.384-.384-.576-.896-.576-1.536 0-.757.309-1.376.928-1.856.618-.49 1.408-.736 2.368-.736 1.034 0 1.85.22 2.448.656.608.427.954 1.04 1.04 1.84h-1.872a1.063 1.063 0 0 0-.496-.767c-.288-.193-.656-.288-1.104-.288-.427 0-.774.085-1.04.255-.256.171-.384.4-.384.688 0 .257.09.454.272.593.181.127.506.234.976.32l1.584.272c.736.127 1.29.394 1.664.8.373.394.56.917.56 1.567 0 .758-.326 1.377-.976 1.856-.64.48-1.456.72-2.448.72z" fill="#F44D45"/><path d="M12.306 138.032c0 .887.327 1.578.98 2.072.644.495 1.545.742 2.702.742 1.167 0 2.077-.247 2.73-.742.653-.494.98-1.185.98-2.072 0-.634-.154-1.143-.462-1.526-.317-.392-.775-.644-1.372-.756v-1.806c1.045.187 1.857.635 2.436 1.344.579.71.868 1.624.868 2.744 0 1.41-.476 2.548-1.428 3.416-.952.859-2.203 1.288-3.752 1.288-1.54 0-2.781-.434-3.724-1.302-.952-.868-1.428-2.002-1.428-3.402 0-1.12.29-2.034.868-2.744.57-.709 1.381-1.157 2.436-1.344v1.806c-.597.112-1.05.364-1.358.756-.317.383-.476.892-.476 1.526zm1.414-8.793c0-1.073.34-1.941 1.022-2.604.681-.662 1.582-.994 2.702-.994 1.13 0 2.035.332 2.716.994.672.654 1.008 1.522 1.008 2.604 0 1.083-.336 1.956-1.008 2.618-.681.654-1.587.98-2.716.98-1.12 0-2.02-.331-2.702-.994-.681-.662-1.022-1.53-1.022-2.604zm1.33 0c0 .57.21 1.013.63 1.33.42.318 1.008.476 1.764.476s1.344-.158 1.764-.476c.42-.317.63-.76.63-1.33 0-.569-.21-1.012-.63-1.33-.42-.317-1.008-.476-1.764-.476-.747 0-1.33.159-1.75.476-.43.318-.644.761-.644 1.33zm-1.162-5.286v-1.764h1.204a2.107 2.107 0 0 1-.994-.854 2.55 2.55 0 0 1-.378-1.386c0-.812.243-1.447.728-1.904.476-.467 1.139-.7 1.988-.7H21v1.792h-4.144c-.57 0-.999.121-1.288.364-.29.243-.434.597-.434 1.064 0 .504.173.896.518 1.176.345.28.84.42 1.484.42H21v1.792h-7.112zm7.28-11.467c0 .98-.2 1.764-.602 2.352-.41.579-.985.905-1.722.98v-1.708c.336-.037.602-.201.798-.49.187-.299.28-.667.28-1.106 0-.401-.08-.723-.238-.966-.159-.252-.373-.378-.644-.378-.224 0-.392.084-.504.252-.121.159-.22.439-.294.84l-.224 1.26c-.121.691-.35 1.204-.686 1.54-.336.336-.784.504-1.344.504-.663 0-1.204-.271-1.624-.812-.43-.541-.644-1.232-.644-2.072 0-.905.191-1.619.574-2.142.373-.532.91-.835 1.61-.91v1.638a.929.929 0 0 0-.672.434c-.168.252-.252.574-.252.966 0 .373.075.677.224.91.15.224.35.336.602.336.224 0 .397-.079.518-.238.112-.159.205-.443.28-.854l.238-1.386c.112-.644.345-1.129.7-1.456.345-.327.803-.49 1.372-.49.663 0 1.204.285 1.624.854.42.56.63 1.274.63 2.142zm-7.28-11.174H21v1.764h-1.19c.42.177.751.462.994.854.243.392.364.844.364 1.358 0 .802-.233 1.428-.7 1.876-.476.438-1.143.658-2.002.658h-4.578v-1.806h4.186c.57 0 .999-.112 1.288-.336.28-.234.42-.579.42-1.036 0-.486-.173-.859-.518-1.12-.355-.271-.859-.406-1.512-.406h-3.864v-1.806zm-.168-6.135c0-.542.117-.994.35-1.358.224-.364.57-.644 1.036-.84a2.452 2.452 0 0 1-1.008-.966 2.769 2.769 0 0 1-.378-1.428c0-.803.238-1.419.714-1.848.467-.439 1.134-.658 2.002-.658H21v1.806h-4.172c-.57 0-.994.107-1.274.322-.28.215-.42.541-.42.98 0 .476.173.85.518 1.12.345.27.835.406 1.47.406H21v1.792h-4.172c-.57 0-.994.107-1.274.322-.28.215-.42.541-.42.98 0 .485.173.863.518 1.134.345.261.835.392 1.47.392H21v1.792h-7.112V97.36h1.204a2.03 2.03 0 0 1-.994-.84 2.43 2.43 0 0 1-.378-1.344zm7.448-13.25c0 .494-.117.942-.35 1.343-.243.402-.56.705-.952.91h3.626v1.792h-9.604V84.21h1.176a2.177 2.177 0 0 1-.966-.897 2.643 2.643 0 0 1-.378-1.385c0-.934.345-1.69 1.036-2.269.69-.578 1.587-.868 2.688-.868 1.101 0 1.997.29 2.688.868.69.58 1.036 1.335 1.036 2.269zm-6.132.503c0 .56.205 1 .616 1.316.401.318.957.477 1.666.477h.252c.71 0 1.27-.16 1.68-.477.401-.317.602-.755.602-1.316 0-.569-.215-1.017-.644-1.344-.43-.326-1.017-.49-1.764-.49-.747 0-1.335.164-1.764.49-.43.327-.644.775-.644 1.344zm4.634-8.159c0-.158-.01-.312-.028-.462a5.722 5.722 0 0 0-.112-.476h1.372c.075.243.126.476.154.7.037.224.056.462.056.714 0 .756-.168 1.316-.504 1.68-.336.355-.854.532-1.554.532h-3.878v.98h-1.288v-.98H12.11v-1.778h1.778v-1.694h1.288v1.708h3.598c.308 0 .537-.07.686-.21.14-.149.21-.387.21-.714zm-6.986-4.461v1.904h-1.75V69.81h1.75zm8.316.056v1.792h-7.112v-1.792H21zm-7.28-5.294c0-1.074.34-1.942 1.022-2.605.681-.662 1.582-.993 2.702-.993 1.13 0 2.035.33 2.716.994.672.653 1.008 1.52 1.008 2.603 0 1.083-.336 1.956-1.008 2.618-.681.654-1.587.98-2.716.98-1.12 0-2.02-.33-2.702-.993-.681-.663-1.022-1.531-1.022-2.605zm1.33 0c0 .569.21 1.012.63 1.33.42.317 1.008.475 1.764.475s1.344-.158 1.764-.475c.42-.318.63-.761.63-1.33 0-.57-.21-1.013-.63-1.33-.42-.318-1.008-.476-1.764-.476-.747 0-1.33.158-1.75.476-.43.317-.644.76-.644 1.33zm-1.162-5.287v-1.764h1.204a2.109 2.109 0 0 1-.994-.854 2.551 2.551 0 0 1-.378-1.386c0-.812.243-1.447.728-1.904.476-.467 1.139-.7 1.988-.7H21v1.792h-4.144c-.57 0-.999.121-1.288.364-.29.243-.434.597-.434 1.064 0 .504.173.896.518 1.176.345.28.84.42 1.484.42H21v1.792h-7.112zm2.716-12.964c.99 0 1.988-.192 2.996-.575a11.529 11.529 0 0 0 2.912-1.68V45.2c-.924.756-1.88 1.326-2.87 1.708a8.428 8.428 0 0 1-3.038.575 8.392 8.392 0 0 1-3.024-.575c-.999-.392-1.96-.96-2.884-1.708v-1.134c1.008.738 2.011 1.298 3.01 1.68.999.383 1.965.575 2.898.575zM21 35.854v1.4l-3.318 2.674.882.91H21V42H10.696v-1.162h6.636l-3.374-3.472V35.98l2.982 3.108L21 35.854zm0-10.858v1.372l-8.4 2.254v.027l8.4 2.268v1.358l-9.996 2.815v-1.275l8.498-2.295v-.029l-8.498-2.253v-1.274l8.498-2.268v-.029l-8.498-2.282v-1.204L21 24.995zm-10.304-5.568h4.55a2.056 2.056 0 0 1-1.064-.854c-.261-.401-.392-.868-.392-1.4 0-.793.238-1.41.714-1.848.467-.448 1.12-.672 1.96-.672H21v1.162h-4.284c-.653 0-1.143.145-1.47.434-.336.28-.504.695-.504 1.246 0 .607.205 1.083.616 1.428.41.336.999.504 1.764.504H21v1.162H10.696v-1.162zm5.908-9.026c-.933 0-1.9.192-2.898.574-.999.383-2.002.943-3.01 1.68v-1.134c.924-.746 1.885-1.31 2.884-1.694a8.217 8.217 0 0 1 3.024-.588c1.027 0 2.04.192 3.038.574.99.383 1.946.952 2.87 1.708v1.134A11.196 11.196 0 0 0 19.6 10.99c-1.008-.392-2.007-.588-2.996-.588zM14.168 266.508c1.017 0 1.797.322 2.338.966.541.634.812 1.554.812 2.758v2.324H21v1.82h-9.996v-4.13c0-1.204.27-2.128.812-2.772.541-.644 1.325-.966 2.352-.966zm-1.694 6.048h3.388V270.4c0-.691-.14-1.204-.42-1.54-.28-.346-.705-.518-1.274-.518-.57 0-.994.172-1.274.518-.28.336-.42.849-.42 1.54v2.156zm1.288-11.534c0-.102.005-.2.014-.294a1.39 1.39 0 0 1 .042-.238h1.652a2.736 2.736 0 0 0-.042.322c-.01.112-.014.234-.014.364 0 .607.205 1.092.616 1.456.41.364.97.546 1.68.546H21v1.792h-7.112v-1.764h1.596c-.541-.168-.961-.443-1.26-.826a2.098 2.098 0 0 1-.462-1.358zm-.042-5.011c0-1.073.34-1.941 1.022-2.604.681-.663 1.582-.994 2.702-.994 1.13 0 2.035.331 2.716.994.672.653 1.008 1.521 1.008 2.604 0 1.083-.336 1.955-1.008 2.618-.681.653-1.587.98-2.716.98-1.12 0-2.02-.331-2.702-.994-.681-.663-1.022-1.531-1.022-2.604zm1.33 0c0 .569.21 1.013.63 1.33.42.317 1.008.476 1.764.476s1.344-.159 1.764-.476c.42-.317.63-.761.63-1.33 0-.569-.21-1.013-.63-1.33-.42-.317-1.008-.476-1.764-.476-.747 0-1.33.159-1.75.476-.43.317-.644.761-.644 1.33zm6.118-7.933c0 .934-.345 1.69-1.036 2.268-.69.579-1.587.868-2.688.868-1.101 0-1.997-.289-2.688-.868-.69-.578-1.036-1.334-1.036-2.268 0-.504.121-.956.364-1.358.243-.41.565-.709.966-.896h-4.354v-1.792H21v1.764h-1.134c.392.187.71.49.952.91.233.411.35.868.35 1.372zm-6.132-.504c0 .57.215 1.018.644 1.344.43.327 1.017.49 1.764.49.747 0 1.335-.163 1.764-.49.43-.326.644-.774.644-1.344 0-.56-.2-.998-.602-1.316-.41-.317-.97-.476-1.68-.476h-.252c-.71 0-1.265.159-1.666.476-.41.318-.616.756-.616 1.316zm-1.148-12.163H21v1.764h-1.19c.42.178.751.462.994.854.243.392.364.845.364 1.358 0 .803-.233 1.428-.7 1.876-.476.439-1.143.658-2.002.658h-4.578v-1.806h4.186c.57 0 .999-.112 1.288-.336.28-.233.42-.578.42-1.036 0-.485-.173-.858-.518-1.12-.355-.27-.859-.406-1.512-.406h-3.864v-1.806zm7.28-5.267c0 1.074-.336 1.937-1.008 2.59-.681.654-1.587.98-2.716.98-1.12 0-2.02-.326-2.702-.98-.681-.662-1.022-1.526-1.022-2.59 0-.868.233-1.572.7-2.114.457-.55 1.092-.877 1.904-.98v1.694c-.41.075-.723.234-.938.476-.215.243-.322.556-.322.938 0 .551.215.985.644 1.302.42.308.999.462 1.736.462.747 0 1.33-.154 1.75-.462.42-.317.63-.751.63-1.302 0-.382-.107-.695-.322-.938-.224-.242-.537-.401-.938-.476v-1.694c.812.103 1.451.43 1.918.98.457.542.686 1.246.686 2.114zm-1.498-7.541c0-.158-.01-.312-.028-.462a5.75 5.75 0 0 0-.112-.476h1.372c.075.243.126.476.154.7.037.224.056.462.056.714 0 .756-.168 1.316-.504 1.68-.336.355-.854.532-1.554.532h-3.878v.98h-1.288v-.98H12.11v-1.778h1.778v-1.694h1.288v1.708h3.598c.308 0 .537-.07.686-.21.14-.149.21-.387.21-.714zm-6.986-4.461v1.904h-1.75v-1.904h1.75zm8.316.056v1.792h-7.112v-1.792H21zm-7.28-5.294c0-1.074.34-1.942 1.022-2.604.681-.663 1.582-.994 2.702-.994 1.13 0 2.035.331 2.716.994.672.653 1.008 1.521 1.008 2.604 0 1.082-.336 1.955-1.008 2.618-.681.653-1.587.98-2.716.98-1.12 0-2.02-.332-2.702-.994-.681-.663-1.022-1.531-1.022-2.604zm1.33 0c0 .569.21 1.012.63 1.33.42.317 1.008.476 1.764.476s1.344-.159 1.764-.476c.42-.318.63-.761.63-1.33 0-.57-.21-1.013-.63-1.33-.42-.318-1.008-.476-1.764-.476-.747 0-1.33.158-1.75.476-.43.317-.644.76-.644 1.33zm-1.162-5.287v-1.764h1.204a2.107 2.107 0 0 1-.994-.854 2.55 2.55 0 0 1-.378-1.386c0-.812.243-1.447.728-1.904.476-.467 1.139-.7 1.988-.7H21v1.792h-4.144c-.57 0-.999.121-1.288.364-.29.243-.434.597-.434 1.064 0 .504.173.896.518 1.176.345.28.84.42 1.484.42H21v1.792h-7.112z" fill="#7C756C"/><path d="M42.982 190.732L39.496 200h-.77l-3.472-9.268h-.028V200H34.4v-9.996h1.428l3.304 8.932h.028l3.304-8.932h1.358V200h-.812v-9.268h-.028zm6.245 2.1c.952 0 1.722.341 2.31 1.022.597.672.896 1.554.896 2.646 0 1.101-.299 1.988-.896 2.66-.588.672-1.358 1.008-2.31 1.008s-1.727-.336-2.324-1.008c-.588-.672-.882-1.559-.882-2.66 0-1.092.294-1.974.882-2.646.597-.681 1.372-1.022 2.324-1.022zm0 .714c-.747 0-1.335.266-1.764.798-.43.523-.644 1.241-.644 2.156s.214 1.638.644 2.17c.429.523 1.017.784 1.764.784.746 0 1.334-.261 1.764-.784.429-.532.644-1.255.644-2.17s-.215-1.633-.644-2.156c-.43-.532-1.018-.798-1.764-.798zm8.375-.714c.094 0 .187.005.28.014l.28.028v.756a1.35 1.35 0 0 0-.252-.042 3.528 3.528 0 0 0-.308-.014c-.644 0-1.176.261-1.596.784-.42.523-.63 1.213-.63 2.072V200h-.812v-7h.77v1.708c.14-.569.416-1.022.826-1.358.411-.345.892-.518 1.442-.518zm2.103.168h.77v1.344c.159-.457.448-.821.868-1.092.42-.28.905-.42 1.456-.42.775 0 1.381.233 1.82.7.439.467.658 1.115.658 1.946V200h-.812v-4.354c0-.7-.154-1.227-.462-1.582-.308-.364-.765-.546-1.372-.546-.663 0-1.18.224-1.554.672-.373.448-.56 1.087-.56 1.918V200h-.812v-7zm9.058-1.61h-.994v-1.232h.994v1.232zM68.68 200h-.812v-7h.812v7zm2.66-7h.77v1.344c.16-.457.449-.821.869-1.092.42-.28.905-.42 1.456-.42.774 0 1.381.233 1.82.7.438.467.658 1.115.658 1.946V200H76.1v-4.354c0-.7-.154-1.227-.462-1.582-.308-.364-.766-.546-1.372-.546-.663 0-1.18.224-1.554.672-.374.448-.56 1.087-.56 1.918V200h-.812v-7zm10.753 8.974c.765 0 1.349-.205 1.75-.616.401-.411.602-1.008.602-1.792v-1.036c-.196.42-.504.756-.924 1.008-.42.252-.905.378-1.456.378-.924 0-1.675-.327-2.254-.98s-.868-1.512-.868-2.576c0-1.036.29-1.881.868-2.534.588-.663 1.34-.994 2.254-.994a2.67 2.67 0 0 1 1.456.406c.439.261.76.607.966 1.036V193h.784v6.566c0 .989-.28 1.75-.84 2.282-.56.541-1.34.812-2.338.812-.822 0-1.484-.168-1.988-.504-.504-.336-.822-.821-.952-1.456h.84c.112.429.336.747.672.952.345.215.821.322 1.428.322zm.028-2.772c.71 0 1.288-.247 1.736-.742.457-.504.686-1.148.686-1.932v-.35c0-.784-.229-1.423-.686-1.918-.448-.495-1.027-.742-1.736-.742-.728 0-1.307.257-1.736.77-.43.513-.644 1.204-.644 2.072 0 .859.215 1.549.644 2.072.439.513 1.017.77 1.736.77zM137.207 190.732L133.721 200h-.77l-3.472-9.268h-.028V200h-.826v-9.996h1.428l3.304 8.932h.028l3.304-8.932h1.358V200h-.812v-9.268h-.028zm4.466.658h-.994v-1.232h.994v1.232zm-.084 8.61h-.812v-7h.812v7zm5.279.168c-.915 0-1.671-.341-2.268-1.022-.588-.681-.882-1.563-.882-2.646s.294-1.965.882-2.646c.597-.681 1.353-1.022 2.268-1.022.551 0 1.036.135 1.456.406.429.271.737.625.924 1.064v-4.606h.812V200h-.77v-1.274a2.482 2.482 0 0 1-.966 1.05 2.795 2.795 0 0 1-1.456.392zm.084-6.65c-.737 0-1.325.271-1.764.812-.429.541-.644 1.265-.644 2.17s.215 1.629.644 2.17c.439.541 1.027.812 1.764.812.728 0 1.302-.261 1.722-.784.42-.532.63-1.241.63-2.128v-.154c0-.887-.21-1.591-.63-2.114-.42-.523-.994-.784-1.722-.784zm8.392 6.65c-.914 0-1.67-.341-2.268-1.022-.588-.681-.882-1.563-.882-2.646s.294-1.965.882-2.646c.598-.681 1.354-1.022 2.268-1.022.551 0 1.036.135 1.456.406.43.271.738.625.924 1.064v-4.606h.812V200h-.77v-1.274a2.482 2.482 0 0 1-.966 1.05 2.793 2.793 0 0 1-1.456.392zm.084-6.65c-.737 0-1.325.271-1.764.812-.429.541-.644 1.265-.644 2.17s.215 1.629.644 2.17c.439.541 1.027.812 1.764.812.728 0 1.302-.261 1.722-.784.42-.532.63-1.241.63-2.128v-.154c0-.887-.21-1.591-.63-2.114-.42-.523-.994-.784-1.722-.784zM166.341 200h-.84a4.087 4.087 0 0 1-.112-.588 7.96 7.96 0 0 1-.028-.644c-.149.411-.453.747-.91 1.008-.457.252-.985.378-1.582.378-.644 0-1.176-.182-1.596-.546-.42-.373-.63-.859-.63-1.456 0-.588.196-1.055.588-1.4.392-.345.985-.569 1.778-.672l2.352-.308v-.462c0-.569-.159-1.003-.476-1.302-.308-.308-.756-.462-1.344-.462-.513 0-.929.126-1.246.378-.308.252-.485.602-.532 1.05h-.798c.065-.653.331-1.171.798-1.554.476-.392 1.069-.588 1.778-.588.84 0 1.484.205 1.932.616.457.401.686.985.686 1.75v3.514c0 .252.014.485.042.7.037.215.084.411.14.588zm-4.858-1.834c0 .392.131.709.392.952.271.233.635.35 1.092.35.672 0 1.237-.205 1.694-.616.467-.42.7-.961.7-1.624v-.756l-2.114.238c-.663.093-1.125.257-1.386.49-.252.224-.378.546-.378.966zm7.743 3.71a.982.982 0 0 0 .784-.364c.214-.233.462-.705.742-1.414L167.896 193h.868l2.394 5.978h.028L173.44 193h.868l-2.87 7.266c-.374.971-.71 1.601-1.008 1.89-.299.289-.7.439-1.204.448-.084 0-.182-.009-.294-.028a3.209 3.209 0 0 1-.308-.042v-.728c.102.028.2.047.294.056.093.009.196.014.308.014zM309.894 190.004h1.092l5.698 8.484h.028v-8.484h.826V200h-.798l-5.992-8.96h-.028V200h-.826v-9.996zm11.271 1.386h-.994v-1.232h.994v1.232zm-.084 8.61h-.812v-7h.812v7zm5.251 1.974c.765 0 1.349-.205 1.75-.616.401-.411.602-1.008.602-1.792v-1.036c-.196.42-.504.756-.924 1.008-.42.252-.905.378-1.456.378-.924 0-1.675-.327-2.254-.98s-.868-1.512-.868-2.576c0-1.036.289-1.881.868-2.534.588-.663 1.339-.994 2.254-.994a2.67 2.67 0 0 1 1.456.406c.439.261.761.607.966 1.036V193h.784v6.566c0 .989-.28 1.75-.84 2.282-.56.541-1.339.812-2.338.812-.821 0-1.484-.168-1.988-.504-.504-.336-.821-.821-.952-1.456h.84c.112.429.336.747.672.952.345.215.821.322 1.428.322zm.028-2.772c.709 0 1.288-.247 1.736-.742.457-.504.686-1.148.686-1.932v-.35c0-.784-.229-1.423-.686-1.918-.448-.495-1.027-.742-1.736-.742-.728 0-1.307.257-1.736.77-.429.513-.644 1.204-.644 2.072 0 .859.215 1.549.644 2.072.439.513 1.017.77 1.736.77zm6.616-9.506v4.648a2.12 2.12 0 0 1 .854-1.106c.401-.271.877-.406 1.428-.406.775 0 1.381.233 1.82.7.439.467.658 1.115.658 1.946V200h-.812v-4.354c0-.7-.154-1.227-.462-1.582-.308-.364-.765-.546-1.372-.546-.663 0-1.181.224-1.554.672-.373.448-.56 1.087-.56 1.918V200h-.812v-10.304h.812zm9.282 9.702c.159 0 .327-.014.504-.042.177-.037.369-.089.574-.154v.714a3.39 3.39 0 0 1-.588.14 2.812 2.812 0 0 1-.546.056c-.597 0-1.05-.154-1.358-.462-.299-.308-.448-.77-.448-1.386v-4.606h-1.064V193h1.064v-1.806h.812V193h1.932v.658h-1.946v4.676c0 .364.084.635.252.812.177.168.448.252.812.252zM222.967 199.244V200h-6.482v-9.996h6.51v.756h-5.67v3.878h5.054v.756h-5.054v3.85h5.642zm5.191.756h-.938l-2.814-7h.84l2.422 6.188h.028L230.02 193h.826l-2.688 7zm8.93-1.988h.77c-.149.672-.476 1.199-.98 1.582-.495.383-1.087.574-1.778.574-.98 0-1.769-.327-2.366-.98-.597-.663-.896-1.545-.896-2.646s.294-1.993.882-2.674c.597-.691 1.363-1.036 2.296-1.036.896 0 1.601.313 2.114.938.513.625.77 1.451.77 2.478v.392h-5.264c.009.887.233 1.577.672 2.072.439.495 1.036.742 1.792.742.495 0 .905-.117 1.232-.35.327-.243.579-.607.756-1.092zm-2.072-4.466c-.644 0-1.176.215-1.596.644-.411.42-.663 1.013-.756 1.778h4.424c-.028-.765-.224-1.358-.588-1.778-.355-.429-.849-.644-1.484-.644zm5.01-.546h.77v1.344c.159-.457.448-.821.868-1.092.42-.28.906-.42 1.456-.42.775 0 1.382.233 1.82.7.439.467.658 1.115.658 1.946V200h-.812v-4.354c0-.7-.154-1.227-.462-1.582-.308-.364-.765-.546-1.372-.546-.662 0-1.18.224-1.554.672-.373.448-.56 1.087-.56 1.918V200h-.812v-7zm9.058-1.61h-.994v-1.232h.994v1.232zM249 200h-.812v-7H249v7zm2.661-7h.77v1.344c.159-.457.448-.821.868-1.092.42-.28.905-.42 1.456-.42.775 0 1.381.233 1.82.7.439.467.658 1.115.658 1.946V200h-.812v-4.354c0-.7-.154-1.227-.462-1.582-.308-.364-.765-.546-1.372-.546-.663 0-1.181.224-1.554.672-.373.448-.56 1.087-.56 1.918V200h-.812v-7zm10.752 8.974c.765 0 1.349-.205 1.75-.616.401-.411.602-1.008.602-1.792v-1.036c-.196.42-.504.756-.924 1.008-.42.252-.905.378-1.456.378-.924 0-1.675-.327-2.254-.98s-.868-1.512-.868-2.576c0-1.036.289-1.881.868-2.534.588-.663 1.339-.994 2.254-.994a2.67 2.67 0 0 1 1.456.406c.439.261.761.607.966 1.036V193h.784v6.566c0 .989-.28 1.75-.84 2.282-.56.541-1.339.812-2.338.812-.821 0-1.484-.168-1.988-.504-.504-.336-.821-.821-.952-1.456h.84c.112.429.336.747.672.952.345.215.821.322 1.428.322zm.028-2.772c.709 0 1.288-.247 1.736-.742.457-.504.686-1.148.686-1.932v-.35c0-.784-.229-1.423-.686-1.918-.448-.495-1.027-.742-1.736-.742-.728 0-1.307.257-1.736.77-.429.513-.644 1.204-.644 2.072 0 .859.215 1.549.644 2.072.439.513 1.017.77 1.736.77zM84.95 14h-1.203V5.012h-3.724V4.004h8.666v1.008H84.95V14zm4.78 1.638c.336 0 .607-.107.812-.322.206-.215.43-.635.672-1.26l-2.828-7.098h1.218l2.24 5.754h.028l2.114-5.754h1.204l-2.842 7.252c-.355.924-.714 1.55-1.078 1.876-.355.336-.826.509-1.414.518-.093 0-.205-.01-.336-.028a3.968 3.968 0 0 1-.35-.042v-.952c.084.019.163.033.238.042.075.01.182.014.322.014zm10.598-1.47a2.67 2.67 0 0 1-1.4-.378 2.466 2.466 0 0 1-.938-1.022v3.724h-1.162V6.958h1.12v1.288c.196-.43.509-.78.938-1.05.43-.27.91-.406 1.442-.406.924 0 1.675.345 2.254 1.036.588.681.882 1.568.882 2.66s-.294 1.979-.882 2.66c-.588.681-1.339 1.022-2.254 1.022zM100.09 7.7c-.663 0-1.19.243-1.582.728-.383.476-.574 1.125-.574 1.946v.196c0 .821.191 1.475.574 1.96.392.485.92.728 1.582.728.672 0 1.204-.252 1.596-.756.401-.504.602-1.176.602-2.016 0-.85-.201-1.526-.602-2.03-.392-.504-.924-.756-1.596-.756zm6.583-2.212h-1.316V4.074h1.316v1.414zm-.07 8.512h-1.162V6.958h1.162V14zm5.289.168c-.999 0-1.802-.336-2.408-1.008-.607-.672-.91-1.563-.91-2.674 0-1.11.303-2.002.91-2.674.616-.681 1.418-1.022 2.408-1.022.774 0 1.409.21 1.904.63.504.42.812 1.008.924 1.764h-1.106c-.103-.476-.299-.835-.588-1.078-.29-.252-.668-.378-1.134-.378-.672 0-1.204.247-1.596.742-.383.495-.574 1.167-.574 2.016 0 .85.191 1.521.574 2.016.392.485.924.728 1.596.728.466 0 .844-.121 1.134-.364.289-.252.485-.616.588-1.092h1.106c-.112.756-.416 1.344-.91 1.764-.495.42-1.134.63-1.918.63zM122.113 14h-1.162a9.165 9.165 0 0 1-.098-.588 6.842 6.842 0 0 1-.028-.602c-.15.41-.448.737-.896.98-.439.243-.957.364-1.554.364-.672 0-1.223-.182-1.652-.546-.42-.373-.63-.863-.63-1.47s.2-1.087.602-1.442c.41-.355 1.022-.579 1.834-.672l2.268-.294v-.406c0-.513-.145-.905-.434-1.176-.28-.28-.686-.42-1.218-.42-.467 0-.84.117-1.12.35-.28.224-.444.541-.49.952h-1.12c.065-.69.345-1.237.84-1.638.504-.401 1.143-.602 1.918-.602.896 0 1.582.215 2.058.644.476.43.714 1.05.714 1.862v3.234c0 .327.014.607.042.84.028.224.07.434.126.63zm-4.844-1.89c0 .355.121.64.364.854.242.205.569.308.98.308.625 0 1.143-.187 1.554-.56.42-.383.63-.877.63-1.484v-.63l-1.918.21c-.607.084-1.027.229-1.26.434-.234.205-.35.495-.35.868zm8.256-8.414V14h-1.162V3.696h1.162zm8.142 10.472c-.915 0-1.666-.34-2.254-1.022-.588-.681-.882-1.568-.882-2.66s.289-1.979.868-2.66c.588-.69 1.344-1.036 2.268-1.036.532 0 1.003.13 1.414.392.42.252.728.593.924 1.022V3.696h1.162V14h-1.12v-1.232c-.206.41-.523.747-.952 1.008-.43.261-.906.392-1.428.392zm.238-6.468c-.672 0-1.209.252-1.61.756-.392.504-.588 1.18-.588 2.03 0 .84.196 1.512.588 2.016.401.504.938.756 1.61.756.662 0 1.185-.243 1.568-.728.392-.485.588-1.139.588-1.96v-.196c0-.821-.196-1.47-.588-1.946-.383-.485-.906-.728-1.568-.728zm11.231 6.3h-1.162a9.922 9.922 0 0 1-.098-.588 6.842 6.842 0 0 1-.028-.602c-.149.41-.448.737-.896.98-.439.243-.957.364-1.554.364-.672 0-1.223-.182-1.652-.546-.42-.373-.63-.863-.63-1.47s.201-1.087.602-1.442c.411-.355 1.022-.579 1.834-.672l2.268-.294v-.406c0-.513-.145-.905-.434-1.176-.28-.28-.686-.42-1.218-.42-.467 0-.84.117-1.12.35-.28.224-.443.541-.49.952h-1.12c.065-.69.345-1.237.84-1.638.504-.401 1.143-.602 1.918-.602.896 0 1.582.215 2.058.644.476.43.714 1.05.714 1.862v3.234c0 .327.014.607.042.84.028.224.07.434.126.63zm-4.844-1.89c0 .355.121.64.364.854.243.205.569.308.98.308.625 0 1.143-.187 1.554-.56.42-.383.63-.877.63-1.484v-.63l-1.918.21c-.607.084-1.027.229-1.26.434-.233.205-.35.495-.35.868zm8.327-6.622h-1.316V4.074h1.316v1.414zm-.07 8.512h-1.162V6.958h1.162V14zm3.65-10.304V14h-1.162V3.696h1.162zm2.978 11.942c.336 0 .607-.107.812-.322.206-.215.43-.635.672-1.26l-2.828-7.098h1.218l2.24 5.754h.028l2.114-5.754h1.204l-2.842 7.252c-.354.924-.714 1.55-1.078 1.876-.354.336-.826.509-1.414.518-.093 0-.205-.01-.336-.028a3.982 3.982 0 0 1-.35-.042v-.952c.084.019.164.033.238.042.075.01.182.014.322.014zM170 11.928h1.092c-.149.7-.485 1.25-1.008 1.652-.522.392-1.157.588-1.904.588-1.017 0-1.838-.331-2.464-.994-.616-.663-.924-1.55-.924-2.66s.308-2.007.924-2.688c.626-.69 1.424-1.036 2.394-1.036.934 0 1.671.322 2.212.966.542.635.812 1.47.812 2.506v.462h-5.208c.028.803.238 1.423.63 1.862.402.439.943.658 1.624.658.458 0 .836-.107 1.134-.322.308-.224.537-.555.686-.994zm-1.89-4.2c-.588 0-1.068.191-1.442.574-.373.373-.606.9-.7 1.582H170c-.018-.672-.196-1.2-.532-1.582-.326-.383-.779-.574-1.358-.574zm6.155-4.032V14h-1.162V3.696h1.162zm7.179 8.232h1.092c-.15.7-.486 1.25-1.008 1.652-.523.392-1.158.588-1.904.588-1.018 0-1.839-.331-2.464-.994-.616-.663-.924-1.55-.924-2.66s.308-2.007.924-2.688c.625-.69 1.423-1.036 2.394-1.036.933 0 1.67.322 2.212.966.541.635.812 1.47.812 2.506v.462h-5.208c.028.803.238 1.423.63 1.862.401.439.942.658 1.624.658.457 0 .835-.107 1.134-.322.308-.224.536-.555.686-.994zm-1.89-4.2c-.588 0-1.069.191-1.442.574-.374.373-.607.9-.7 1.582h4.032c-.019-.672-.196-1.2-.532-1.582-.327-.383-.78-.574-1.358-.574zm7.793 6.44c-.999 0-1.802-.336-2.408-1.008-.607-.672-.91-1.563-.91-2.674 0-1.11.303-2.002.91-2.674.616-.681 1.418-1.022 2.408-1.022.774 0 1.409.21 1.904.63.504.42.812 1.008.924 1.764h-1.106c-.103-.476-.299-.835-.588-1.078-.29-.252-.668-.378-1.134-.378-.672 0-1.204.247-1.596.742-.383.495-.574 1.167-.574 2.016 0 .85.191 1.521.574 2.016.392.485.924.728 1.596.728.466 0 .844-.121 1.134-.364.289-.252.485-.616.588-1.092h1.106c-.112.756-.416 1.344-.91 1.764-.495.42-1.134.63-1.918.63zm7.001-1.036c.168 0 .331-.014.49-.042.168-.028.345-.07.532-.126v.952a4.469 4.469 0 0 1-.644.14 3.139 3.139 0 0 1-.588.056c-.654 0-1.144-.159-1.47-.476-.318-.317-.476-.798-.476-1.442V7.84h-1.036v-.882h1.036V5.166h1.148v1.792h1.848v.882h-1.862v4.298c0 .345.079.597.238.756.168.159.429.238.784.238zm6.274-6.328c.102 0 .2.005.294.014.093.01.177.023.252.042v1.064a1.802 1.802 0 0 0-.28-.042 3.566 3.566 0 0 0-.322-.014c-.626 0-1.139.243-1.54.728-.402.476-.602 1.12-.602 1.932V14h-1.162V6.958h1.12v1.666c.149-.56.424-1.003.826-1.33a2.17 2.17 0 0 1 1.414-.49zm3.258-1.316h-1.316V4.074h1.316v1.414zM203.81 14h-1.162V6.958h1.162V14zm5.289.168c-.999 0-1.802-.336-2.408-1.008-.607-.672-.91-1.563-.91-2.674 0-1.11.303-2.002.91-2.674.616-.681 1.418-1.022 2.408-1.022.774 0 1.409.21 1.904.63.504.42.812 1.008.924 1.764h-1.106c-.103-.476-.299-.835-.588-1.078-.29-.252-.668-.378-1.134-.378-.672 0-1.204.247-1.596.742-.383.495-.574 1.167-.574 2.016 0 .85.191 1.521.574 2.016.392.485.924.728 1.596.728.466 0 .844-.121 1.134-.364.289-.252.485-.616.588-1.092h1.106c-.112.756-.416 1.344-.91 1.764-.495.42-1.134.63-1.918.63zm5.979-8.68h-1.316V4.074h1.316v1.414zm-.07 8.512h-1.162V6.958h1.162V14zm4.742-.868c.168 0 .331-.014.49-.042.168-.028.345-.07.532-.126v.952a4.469 4.469 0 0 1-.644.14 3.139 3.139 0 0 1-.588.056c-.653 0-1.143-.159-1.47-.476-.317-.317-.476-.798-.476-1.442V7.84h-1.036v-.882h1.036V5.166h1.148v1.792h1.848v.882h-1.862v4.298c0 .345.079.597.238.756.168.159.429.238.784.238zm3.404 2.506c.336 0 .607-.107.812-.322.205-.215.429-.635.672-1.26l-2.828-7.098h1.218l2.24 5.754h.028l2.114-5.754h1.204l-2.842 7.252c-.355.924-.714 1.55-1.078 1.876-.355.336-.826.509-1.414.518-.093 0-.205-.01-.336-.028a3.982 3.982 0 0 1-.35-.042v-.952c.084.019.163.033.238.042.075.01.182.014.322.014zm15.929-8.68V14h-1.134v-1.274a2.134 2.134 0 0 1-.854 1.064 2.55 2.55 0 0 1-1.386.378c-.793 0-1.409-.229-1.848-.686-.429-.467-.644-1.13-.644-1.988V6.958h1.176v4.312c0 .663.135 1.162.406 1.498.28.327.695.49 1.246.49.588 0 1.045-.21 1.372-.63.327-.42.49-1.017.49-1.792V6.958h1.176zm4.953 7.21c-.896 0-1.619-.196-2.17-.588-.541-.401-.84-.957-.896-1.666h1.12c.038.43.229.765.574 1.008.355.243.808.364 1.358.364.504 0 .906-.107 1.204-.322.308-.224.462-.518.462-.882a.77.77 0 0 0-.308-.644c-.196-.168-.504-.294-.924-.378l-1.246-.252c-.69-.13-1.19-.345-1.498-.644-.308-.308-.462-.728-.462-1.26 0-.607.248-1.11.742-1.512.495-.401 1.12-.602 1.876-.602.822 0 1.47.177 1.946.532.476.345.747.845.812 1.498h-1.078a1.076 1.076 0 0 0-.504-.826c-.298-.205-.69-.308-1.176-.308-.466 0-.84.107-1.12.322a.973.973 0 0 0-.42.826c0 .28.094.5.28.658.187.15.504.266.952.35l1.4.266c.616.121 1.074.34 1.372.658.299.308.448.728.448 1.26 0 .616-.261 1.13-.784 1.54-.513.401-1.166.602-1.96.602zm9.445-2.24h1.092c-.149.7-.485 1.25-1.008 1.652-.523.392-1.157.588-1.904.588-1.017 0-1.839-.331-2.464-.994-.616-.663-.924-1.55-.924-2.66s.308-2.007.924-2.688c.625-.69 1.423-1.036 2.394-1.036.933 0 1.671.322 2.212.966.541.635.812 1.47.812 2.506v.462h-5.208c.028.803.238 1.423.63 1.862.401.439.943.658 1.624.658.457 0 .835-.107 1.134-.322.308-.224.537-.555.686-.994zm-1.89-4.2c-.588 0-1.069.191-1.442.574-.373.373-.607.9-.7 1.582h4.032c-.019-.672-.196-1.2-.532-1.582-.327-.383-.779-.574-1.358-.574zm10.828 6.44c-.999 0-1.801-.336-2.408-1.008-.607-.672-.91-1.563-.91-2.674 0-1.11.303-2.002.91-2.674.616-.681 1.419-1.022 2.408-1.022.775 0 1.409.21 1.904.63.504.42.812 1.008.924 1.764h-1.106c-.103-.476-.299-.835-.588-1.078-.289-.252-.667-.378-1.134-.378-.672 0-1.204.247-1.596.742-.383.495-.574 1.167-.574 2.016 0 .85.191 1.521.574 2.016.392.485.924.728 1.596.728.467 0 .845-.121 1.134-.364.289-.252.485-.616.588-1.092h1.106c-.112.756-.415 1.344-.91 1.764-.495.42-1.134.63-1.918.63zm10.543-7.21V14h-1.134v-1.274a2.134 2.134 0 0 1-.854 1.064 2.55 2.55 0 0 1-1.386.378c-.793 0-1.409-.229-1.848-.686-.429-.467-.644-1.13-.644-1.988V6.958h1.176v4.312c0 .663.135 1.162.406 1.498.28.327.695.49 1.246.49.588 0 1.045-.21 1.372-.63.327-.42.49-1.017.49-1.792V6.958h1.176zm5.849-.154c.103 0 .201.005.294.014.093.01.177.023.252.042v1.064a1.802 1.802 0 0 0-.28-.042 3.566 3.566 0 0 0-.322-.014 1.91 1.91 0 0 0-1.54.728c-.401.476-.602 1.12-.602 1.932V14h-1.162V6.958h1.12v1.666c.149-.56.425-1.003.826-1.33.401-.327.873-.49 1.414-.49zM284.373 14h-1.302l-2.814-7.042h1.19l2.268 5.894h.028l2.17-5.894h1.162L284.373 14zm8.77-2.072h1.092c-.149.7-.485 1.25-1.008 1.652-.523.392-1.157.588-1.904.588-1.017 0-1.839-.331-2.464-.994-.616-.663-.924-1.55-.924-2.66s.308-2.007.924-2.688c.625-.69 1.423-1.036 2.394-1.036.933 0 1.671.322 2.212.966.541.635.812 1.47.812 2.506v.462h-5.208c.028.803.238 1.423.63 1.862.401.439.943.658 1.624.658.457 0 .835-.107 1.134-.322.308-.224.537-.555.686-.994zm-1.89-4.2c-.588 0-1.069.191-1.442.574-.373.373-.607.9-.7 1.582h4.032c-.019-.672-.196-1.2-.532-1.582-.327-.383-.779-.574-1.358-.574z" fill="#393939"/></svg>