<?xml version="1.0" encoding="utf-8"?>
<!-- Generator: Adobe Illustrator 15.1.0, SVG Export Plug-In . SVG Version: 6.00 Build 0)  -->
<!DOCTYPE svg PUBLIC "-//W3C//DTD SVG 1.1//EN" "http://www.w3.org/Graphics/SVG/1.1/DTD/svg11.dtd">
<svg version="1.1" id="Layer_1" xmlns="http://www.w3.org/2000/svg" xmlns:xlink="http://www.w3.org/1999/xlink" x="0px" y="0px"
	 width="80px" height="80px" viewBox="0 0 80 80" enable-background="new 0 0 80 80" xml:space="preserve">
<path opacity="0.15" fill="#00AED6" enable-background="new    " d="M63.367,57.244l4.794,2.267l-4.701,0.572l-2.492,1.753
	L63.367,57.244z M51.53,51.697l-0.045-1.421l-0.987,0.492L48.035,48.3l-1.325-6.101l-8.924,0.539l-20.503,0.333L1.781,43.072
	l-0.733-0.686l4.549-19.451l7.6-0.122l9.358-0.095l24.761-0.471l3.021-3.399l7.026-2.359l1.11,4.644l3.954,2.085l-5.786,3.156
	l-2.91,6.947l2.949-0.598l4.142,2.833l4.628,11.214l5.803,2.483l5.307-2.553l-1.273-7.141l2.794,5.005l0.425,5.377l-5.28,0.801
	l-10.469,4.434l0.152-5.604l-5.175,2.757l-0.206,2.599l-4.175,1.387l-0.476-4.327L51.53,51.697z"/>
</svg>
