<?xml version="1.0" encoding="utf-8"?>
<!-- Generator: Adobe Illustrator 15.1.0, SVG Export Plug-In . SVG Version: 6.00 Build 0)  -->
<!DOCTYPE svg PUBLIC "-//W3C//DTD SVG 1.1//EN" "http://www.w3.org/Graphics/SVG/1.1/DTD/svg11.dtd">
<svg version="1.1" id="Layer_1" xmlns="http://www.w3.org/2000/svg" xmlns:xlink="http://www.w3.org/1999/xlink" x="0px" y="0px"
	 width="80px" height="80px" viewBox="0 0 80 80" enable-background="new 0 0 80 80" xml:space="preserve">
<path opacity="0.15" fill="#00AED6" enable-background="new    " d="M63.746,77.832l-20.27-3.111l-4.85-2.68L7.139,53.292
	l1.52-2.315l1.955,0.071l1.23-2.75L9.89,46.561l0.579-3.908l1.013-0.072l2.027-3.113l0.217-2.678l1.81-1.882l2.896-1.375
	l-1.882-2.679l-1.23-6.877l1.013-2.171l-0.145-4.054l0.869-4.198l0.072-2.751l1.737-0.435l3.836,2.244l1.231-1.954l1.882-9.266
	L57.159,7.11l16.434,2.534l-4.924,34.023L63.746,77.832z"/>
</svg>
