<?xml version="1.0" encoding="utf-8"?>
<!-- Generator: Adobe Illustrator 15.1.0, SVG Export Plug-In . SVG Version: 6.00 Build 0)  -->
<!DOCTYPE svg PUBLIC "-//W3C//DTD SVG 1.1//EN" "http://www.w3.org/Graphics/SVG/1.1/DTD/svg11.dtd">
<svg version="1.1" id="Layer_1" xmlns="http://www.w3.org/2000/svg" xmlns:xlink="http://www.w3.org/1999/xlink" x="0px" y="0px"
	 width="80px" height="80px" viewBox="0 0 80 80" enable-background="new 0 0 80 80" xml:space="preserve">
<path opacity="0.15" fill="#00AED6" enable-background="new    " d="M21.503,0.861l21.288,6.281l-5.522,20.444l7.756,11.549
	l6.238,9.484l9.021,13.445l0.718,4.004l1.096,1.562l-1.686,0.802l-1.057,1.096l-0.125,1.56l-1.181,1.812l-0.59,0.043l-0.338,2.276
	l1.14,1.013l-0.718,1.602l-1.138-0.042l-14.332-1.854l0.211-1.139l-0.717-0.253l0.295-2.864l-0.674-1.813l-3.121-3.878l-1.391-0.211
	l0.253-0.633l-0.506-1.603l-1.56-0.085l-2.023-1.645l-0.169-0.801l-1.687-1.644l-1.475-0.295l-1.349-0.843l-1.939-0.381
	l-0.716-1.223l1.054-3.752l-1.223-1.139l0.548-0.463l-1.307-2.614l-0.59-0.378L22.6,43.984l-0.717-0.971l0.084-1.981l1.138-0.464
	l0.379-0.8l-0.463-1.391l-1.18-0.337l-0.928-1.897l0.337-1.096l-0.295-1.349l0.548-1.688h0.633l-0.169,1.518l1.434,1.476
	l-0.253-1.645l-0.674-1.054l0.295-1.602l1.307,0.168l-1.18-1.18l-0.674,0.084l-0.717,1.981l-1.602-2.065l-0.295-3.162l-2.192-4.173
	l0.421-0.675v-2.36l0.675-1.222l0.21-2.066L17.92,13.76l-0.927-1.476l0.168-1.265l2.825-3.541l1.096-2.571l0.126-2.192l-0.421-0.421
	L21.503,0.861z"/>
</svg>
