<?xml version="1.0" encoding="utf-8"?>
<!-- Generator: Adobe Illustrator 15.1.0, SVG Export Plug-In . SVG Version: 6.00 Build 0)  -->
<!DOCTYPE svg PUBLIC "-//W3C//DTD SVG 1.1//EN" "http://www.w3.org/Graphics/SVG/1.1/DTD/svg11.dtd">
<svg version="1.1" id="Layer_1" xmlns="http://www.w3.org/2000/svg" xmlns:xlink="http://www.w3.org/1999/xlink" x="0px" y="0px"
	 width="80px" height="80px" viewBox="0 0 80 80" enable-background="new 0 0 80 80" xml:space="preserve">
<path opacity="0.15" fill="#00AED6" enable-background="new    " d="M51.834,56.631l-4.045-2.279l-0.736-2.502l-2.794-1.543
	L4.467,58.471l-0.588-3.236l4.781-4.78l1.913-3.679l-2.354-2.868l-0.368-2.06l3.089-1.618l5.075-1.471h3.31l2.06,0.662l1.397-0.809
	l3.457-0.515l2.207-1.177l2.06-2.942l1.912-1.103l-0.955-3.236l0.587-1.986l-1.471,0.736l-1.104-1.692l1.325-2.353l2.353-1.619
	l0.811-2.794l2.942-4.193l3.015-2.574l1.472-0.221L52.863,10l1.178,5.222l0.956,1.104l0.368,2.869l-0.368,2.427l1.545,3.53v1.913
	l1.69,0.147l2.281,9.635l-0.148,8.532l0.367,0.221l1.692,9.269l0.81,0.735l-1.84,1.912l1.03,1.029l-0.735,2.28l2.279-1.912
	l2.502-0.222l0.956-0.957l4.413-1.471l1.84-2.354l1.838,1.176l0.221-1.176l0.367,0.882l2.207-1.25l-4.266,3.824l-2.723,1.397
	l-2.428,2.354l-4.561,2.354l-3.751,1.03l-2.133,1.397l0.073-1.619l1.25-0.146l0.81-2.279l-0.735,0.44l0.221-3.017l-4.119-1.323
	l-3.088-0.957l-1.03-0.293L51.834,56.631L51.834,56.631z"/>
</svg>
