<?xml version="1.0" encoding="utf-8"?>
<!-- Generator: Adobe Illustrator 15.1.0, SVG Export Plug-In . SVG Version: 6.00 Build 0)  -->
<!DOCTYPE svg PUBLIC "-//W3C//DTD SVG 1.1//EN" "http://www.w3.org/Graphics/SVG/1.1/DTD/svg11.dtd">
<svg version="1.1" id="Layer_1" xmlns="http://www.w3.org/2000/svg" xmlns:xlink="http://www.w3.org/1999/xlink" x="0px" y="0px"
	 width="80px" height="80px" viewBox="0 0 80 80" enable-background="new 0 0 80 80" xml:space="preserve">
<path opacity="0.15" fill="#00AED6" enable-background="new    " d="M77.501,42.381l-0.285,0.156l-1.053-0.049l-1.473,0.873
	l-0.357-0.33l-1.312,0.475l-3.065,0.781l-0.611,0.303l-0.814-0.244l-1.223,0.17l-1.146-0.138l-0.625-1.147l1.582-0.096l0.778-0.311
	l1.62-1.104l3.133-0.565l0.502,0.079l1.374,0.444l2.065,0.041l0.516,0.188L77.501,42.381z M78.095,34.687l0.487,0.705l-0.538,0.012
	l0.276,0.274l-0.747-0.055l-0.34-0.508l-0.267,0.004l0.443,1.018l-0.148,0.406l-0.56-0.842l-1.669-1.494l0.008-0.145l0.967-0.026
	l1.125,0.203L78.095,34.687z M9.115,28.304l4.125,0.792l4.063-0.579l0.558,0.064l1.477,0.495l0.584,0.03l1.531-0.361l2.224-0.232
	l1.042,0.116l1.044,0.364l0.64-0.129l2.522-0.01l1.561,0.435l3.323-0.71l3.092,0.884l1.784-0.548l2.087,0.629l0.434-0.343
	l0.515,0.079l0.433,0.575l0.335,0.161l0.678-0.643l0.391,0.109l-0.121,0.542l0.767,0.388l0.392,0.913l0.6,0.024l1.287-0.414
	l-0.004-0.306l-0.652-0.072l-0.719-0.352l-1.062-1.042l2.59,0.767l1.725,0.375l0.561-0.265l0.337-0.535l0.891,0.175l1.806,0.485
	l0.605-0.423l0.472,0.087l0.488,0.354l1.27,0.263l0.693,0.365l0.726,0.74l0.427-0.214l0.285-0.415l0.282,0.286l-0.351,0.552
	l0.946-0.408l0.686,0.954l0.669,0.346l0.513-0.375l1.068,0.808l1.37,0.168l1.308-1.038l0.337,0.355l-0.346,2.04l-0.054,1.721
	l0.171,0.482l-0.153,0.508l0.611,0.423l0.542-0.277l-0.107,0.381l0.6,0.924l-0.401,0.3l-0.05,0.35l-0.349,0.039l-0.396-0.6
	l-0.437,0.011l-0.135,0.439l0.394,0.512l-0.372,0.33l-0.469-0.077l-0.666-0.328l-1.394,0.609l-0.771,0.195l-0.644,0.304l-0.67,0.688
	l-1.354,2.172l-0.093,1.085l-0.533,0.721l-1.106,0.341l-0.199,0.256l0.421,1.203l-0.754,0.719l-1.457,0.93l-2.03,0.74l-0.888-0.004
	l-1.707-0.24l-0.475,0.105l-1.15,0.482l-1.477,0.023l-0.805,0.215l-2.286,1.258l-1.298,0.078l-0.31,0.203l-0.254-0.559l0.524-0.328
	l-0.537-0.514l-0.754,0.697l-0.449,0.132l-2.021-0.315l-0.563-0.736l-0.848-0.336l-0.644,0.049l-0.908,0.232l-1.109,0.787
	l-0.801-0.087l-0.771-0.579l-0.648-0.736l-0.675-0.423l-1.288,0.245l-0.98,0.334l-1.292,0.092l-0.809,0.491l-0.466,0.099
	l-0.623-0.312l-0.558,0.315l-0.275-0.462l-0.677-0.051l-1.601,0.236l-1.483-0.516l-1.612,0.019l0.026-0.561l-0.351-0.167
	l-0.528,0.124l-0.493,0.313l0.004,0.307l0.536-0.008l-0.445,0.626l-0.771,0.433l-1.716,0.404l-1.225-0.029l-1.24,0.057l-0.234,0.844
	l-0.737-0.076l-0.559-0.398l-0.893-0.927l-1.686-0.175l-0.951,0.025l-0.563-0.174L6.66,50.693l-0.64,0.352l-0.574,0.139
	l-0.763-0.086l-1.69-9.263l0.562-0.575l0.218-0.479l-0.769-0.875l-0.767-2.212l-0.821-4.518l1.002-0.543l0.967-0.784l0.043-0.911
	l-0.422-0.715L2.946,29.18l0.708-0.948l1.953-0.589l2.086,0.045L9.115,28.304z"/>
</svg>
