<?xml version="1.0" encoding="utf-8"?>
<!-- Generator: Adobe Illustrator 15.1.0, SVG Export Plug-In . SVG Version: 6.00 Build 0)  -->
<!DOCTYPE svg PUBLIC "-//W3C//DTD SVG 1.1//EN" "http://www.w3.org/Graphics/SVG/1.1/DTD/svg11.dtd">
<svg version="1.1" id="Layer_1" xmlns="http://www.w3.org/2000/svg" xmlns:xlink="http://www.w3.org/1999/xlink" x="0px" y="0px"
	 width="80px" height="80px" viewBox="0 0 80 80" enable-background="new 0 0 80 80" xml:space="preserve">
<path opacity="0.15" fill="#00AED6" d="M66.891,46.735l0.289,0.222l0.33-0.082l0.514,0.025l1.523,0.533l1.266,0.643l2.355,1.48
	l0.75,0.746l0.412,0.541l-0.002,1.375l0.045,0.62l0.395-0.021l0.557-0.264l0.408,0.283l0.193,0.312l-0.043,0.645l0.188,0.396
	l0.25,0.37l0.725,0.661l0.76,0.322l0.305,0.262l0.166,0.312l-0.045,0.4l-0.812,1.012l-0.631,0.238l-0.896,0.88l-0.611,0.182
	l-0.02,0.169l-0.516,0.131l-0.434,0.327l-1.568,0.474l-0.605-0.146l-0.346-0.008l-0.312,0.104l-0.779,0.527l-0.262,0.319
	l-0.514,0.151l-0.525,0.359l-0.725,0.415l-0.215,0.074l-0.619,0.596l-0.105,0.245l0.023,0.545l-0.711,0.728l-0.234,0.631
	l-0.205,0.23l-0.596,0.515l-0.127-0.074l0.01-0.327l-0.307-0.242L65.01,64.27l-1.047-0.653l-0.873-0.233l-0.188-0.549l-0.186-0.057
	L62.6,62.376l-0.115-0.637l0.162-0.757l0.316-2.182l-0.025-0.382l-0.195-0.347l-0.518-1.476l-0.285-0.494l0.033-0.327l-0.168-0.309
	l-0.238-0.765l-0.252-0.365l-0.217-0.167l-0.309-0.367l-0.344-0.947l0.301-0.779l0.729-0.621l0.078-0.284l0.203-0.162l0.596-0.221
	l0.43-0.673l0.316-0.571l0.32-0.359l0.221-0.006l0.158-0.666l-0.102-0.29l-0.238-0.224l-0.502-0.755l-0.207-0.658l-0.039-1.014
	l0.268-0.531l0.188-0.168l0.512-0.009l1.332,0.291l0.381,0.71l0.547,0.217l0.357,0.201l0.252,0.295L66.891,46.735z M53.645,40.883
	l-0.146,0.279l-0.404,0.004L52.717,41.1l-0.67,0.141l-0.467,0.053l-0.307-0.309l0.174-0.221l0.305-0.264L52.58,40l0.373-0.135
	l0.299,0.029l0.359,0.406l-0.188,0.441L53.645,40.883z M48.24,37.853l-0.691,0.034l-0.283-0.404l-0.07-0.351l-0.021-0.629
	l-0.053-0.32l-0.242-0.143l-0.59-0.231l-0.176-0.285l0.113-0.312l0.338-0.169l0.584-0.072l1.391,0.201l0.629,0.559l0.455,0.525
	l0.186,0.436l-0.088,0.256l-0.307,0.473l-0.646,0.294L48.24,37.853z M52.846,33.467l0.115,0.142l0.555,0.219l0.068,0.191l0.164,0.05
	l0.041,0.376l0.199,0.178l0.391,0.685l0.25-0.019l0.158-0.184l0.273,0.001l0.785-0.094l0.455-0.328l0.225-0.081l0.459-0.023
	l0.791,0.164l0.227,0.143l0.072,0.175l0.348,0.378l0.443,0.35l0.021,0.13l0.289-0.068l0.186,0.145l0.168,0.319l0.49,0.069
	l0.486,0.231l0.699,0.227l0.318,0.644l-0.066,0.595l-0.264,0.476l-0.35,0.099l-0.293,0.429l-0.385,0.004l-0.77,0.394l-0.795-0.039
	l-0.264,0.02l-1.402,0.675l-0.713-0.166l-0.188,0.056l-0.598,0.025l-0.396-0.37l-0.229-0.355l0.117-0.102l0.006-0.27l-0.111-0.985
	l-0.113-0.27l0.004-0.304l-0.09-0.25l-0.307-0.226l-0.43,0.099l-0.074,0.207l-0.18,0.033l-0.412-0.265l-0.309-0.055l-0.301-0.195
	l-0.203,0.019l-0.521-0.606l-0.398-0.511l-0.02-0.329l-0.139-0.179l0.143-0.725l0.127-0.353l0.15-0.231l0.178-0.02l0.256-0.335
	l0.287,0.028l0.25-0.113L52.846,33.467z M43.477,30.57l0.561,0.021l0.178,0.048l0.115,0.179h0.215l2.066,0.306l0.545,0.026
	l0.201-0.422l0.139-0.034l0.189,0.25l0.066,0.282l0.721,0.188l0.715-0.022L49.5,31.35l0.344-0.122l0.383,0.008l0.348,0.093
	l0.143-0.028l0.143,0.178l0.332,0.065l-0.271,0.49l-0.436,0.422l-0.539,0.295l-0.533,0.221l-0.547,0.115l-0.553-0.054l-0.553-0.113
	l-1.102-0.288l-0.676-0.235l-1.631,0.115l-0.504,0.072l-0.717-0.008l-0.277-0.111l-0.16-0.223l-0.008-0.278l0.27-0.416l0.256-0.096
	l0.232-0.265l0.062-0.292l-0.184-0.333L43.477,30.57z M34.338,24.921l0.087,0.26l0.152,0.083l0.08,0.262l0.25,0.022l0.241,0.335
	v0.34l-0.188,0.086l0.104,0.663l0.305,0.116l0.241,0.364l0.214,0.072L36,27.688l0.229-0.298l-0.214-0.144l0.021-0.168l0.157-0.067
	l0.561,0.11l-0.209,0.207l-0.017,0.481l0.233,0.144l0.234,0.313l-0.066,0.17l0.202,0.406l0.603,0.358l0.091,0.092l-0.655,0.651
	l-0.155,0.047l-0.036-0.231l-0.125-0.102l-0.687,0.128l-0.443,0.274l-0.326-0.046l-0.181-0.294l-0.698-0.312l-0.21-0.365l0.001-0.14
	l-0.289,0.226l0.142,0.163l-0.592,0.042l0.092-0.12l-0.335-0.084l-0.055-0.471l0.454-0.226l0.063-0.129l-0.412-0.257l-0.12,0.25
	l-0.311-0.286l0.096,0.432l-0.072,0.05l-0.435-0.368l0.099,0.244l0.534,0.498l-0.076,0.229l-0.256,0.106l-1.358,0.26l-0.297-0.173
	l-0.125-0.504l-0.147-0.401l-0.321-0.435l-0.262-0.133l-0.065-0.402l-0.088-0.211l-0.402-0.314l-0.167-0.262l-0.021-0.74
	l-0.092-0.134l-0.607-0.506l0.604-0.143l0.603-0.031l1.031,0.023l0.117-0.267l0.257-0.147l0.413-0.325l-0.02-0.086l0.236-0.444
	l0.514-0.45l0.451-0.123l0.288,0.072l0.398,0.409l0.258,0.484l-0.066,0.268L34.338,24.921z M1.697,21.892l-0.186,0.051L1.17,21.75
	L1,21.223l0.042-0.34l0.161-0.349l0.559-0.555l0.449-0.329l0.576-0.32l0.158-0.377l-0.01-0.275l0.255-0.109l0.242,0.011l0.266,0.102
	l0.118,0.263l-0.298,0.348l-0.108,0.32l0.1,0.405l-0.187,0.256l-0.46,0.219l-0.268,0.078l-0.505,0.356l-0.116,0.226L1.697,21.892z
	 M13.235,15.382l0.204,0.102l0.226-0.008l0.269,0.148l0.104,0.224l0.273,0.206l0.143,0.5l0.121,0.067L14.543,17.2l-0.134,0.177
	l-0.213,0.566l-0.205,0.117l-0.024,0.418l0.051,0.548l-0.053,0.399l-0.355,0.074l0.157,0.245l-0.248,0.084l-0.244,0.197
	l-0.103,0.179l-0.536,0.382l-0.144,0.16l-0.629-0.226l-0.675-0.038l-0.74-0.137l-0.121-0.112L10.12,20.38l-0.069-0.121l-0.344-0.213
	l-0.219-0.39l-0.164-0.042l-0.201-0.19l-0.281-0.047l-0.39-0.179l-0.509-0.135l-0.16-0.401l-0.226-0.209l0.018-0.697l0.142-0.051
	l0.586-0.675l0.048-0.379l0.229-0.248l0.686-0.172l0.41-0.236l0.258-0.216l0.329-0.155l0.123-0.148l0.583-0.144l0.15,0.19
	l0.541,0.146l0.001-0.219l0.256-0.097l0.582,0.046l0.294,0.083l0.278-0.197L13.235,15.382z"/>
</svg>
