<?xml version="1.0" encoding="utf-8"?>
<!-- Generator: Adobe Illustrator 15.1.0, SVG Export Plug-In . SVG Version: 6.00 Build 0)  -->
<!DOCTYPE svg PUBLIC "-//W3C//DTD SVG 1.1//EN" "http://www.w3.org/Graphics/SVG/1.1/DTD/svg11.dtd">
<svg version="1.1" id="Layer_1" xmlns="http://www.w3.org/2000/svg" xmlns:xlink="http://www.w3.org/1999/xlink" x="0px" y="0px"
	 width="80px" height="80px" viewBox="0 0 80 80" enable-background="new 0 0 80 80" xml:space="preserve">
<path opacity="0.15" fill="#00AED6" d="M54.653,13.015V13h0.259l0.087,0.086c0.058,0.062,0.62,0.178,1.687,0.346
	c1.067,0.167,1.703,0.251,1.905,0.251c0.201,0,0.331,0.012,0.389,0.036c0.058,0.024,0.145,0.019,0.261-0.014
	c0.115-0.039,0.173-0.022,0.173,0.05s0.064,0.156,0.19,0.252c0.133,0.096,0.241,0.24,0.329,0.432
	c0.086,0.192,0.138,0.407,0.156,0.647l0.016,0.359l-0.172-0.014L59.76,15.41l-0.018-0.022c-0.017-0.01-0.063-0.043-0.139-0.101
	L59.5,15.194l-0.017-0.021l-0.026-0.015l-0.025-0.014l-0.035-0.042l-0.027-0.014l-0.025-0.015l-0.035-0.043l-0.026-0.015v0.288
	l0.026,0.014l0.035,0.043l0.025,0.014l0.027,0.015l0.035,0.043l0.025,0.014l0.026,0.014l0.033,0.043l0.025,0.014l0.027,0.014
	l0.017,0.022l0.328,0.237c0.214,0.154,0.437,0.59,0.667,1.309c0.23,0.72,0.433,1.235,0.607,1.547c0.17,0.311,0.41,0.846,0.717,1.604
	c0.299,0.752,0.617,1.448,0.953,2.085c0.328,0.633,0.909,1.584,1.747,2.856c0.837,1.27,1.419,2.133,1.748,2.588
	c0.335,0.457,0.565,0.731,0.693,0.828c0.132,0.095,0.328,0.288,0.587,0.576c0.261,0.287,0.63,0.7,1.108,1.236
	c0.475,0.542,0.85,0.893,1.124,1.05c0.272,0.154,0.553,0.41,0.841,0.77c0.288,0.359,0.434,0.671,0.434,0.936
	c0,0.264-0.01,0.439-0.026,0.524c-0.014,0.082-0.049,0.194-0.104,0.339c-0.06,0.143-0.117,0.222-0.174,0.236
	c-0.058,0.011-0.109,0.087-0.154,0.231c-0.041,0.143-0.062,0.299-0.062,0.468v0.323l-0.024,0.143l-0.018,0.145h-0.174l-0.018-0.107
	l-0.024-0.108l-0.043-0.217c-0.03-0.143-0.053-0.299-0.069-0.467l-0.017-0.253l-0.088,0.015l-0.086,0.021h-0.433l-0.018-0.021
	l-0.025-0.015l-0.025,0.015l-0.017,0.021l-0.017,0.022l-0.027,0.014l-0.025,0.015l-0.018,0.022l0.018,0.021l0.025,0.015l0.027,0.014
	l0.017,0.022l0.017,0.021l0.025,0.014l0.087,0.144l1.013,1.569c0.679,1.04,1.392,2.07,2.129,3.092
	c0.731,1.017,1.287,1.896,1.66,2.64c0.375,0.742,0.68,1.307,0.91,1.69c0.23,0.383,0.325,0.624,0.287,0.72
	C75.622,44.6,75.7,44.715,75.9,44.849c0.203,0.129,0.347,0.202,0.435,0.216c0.085,0.01,0.143,0.044,0.171,0.102
	c0.029,0.062,0.071,0.101,0.13,0.114c0.061,0.011,0.225,0.255,0.501,0.735c0.271,0.477,0.4,0.79,0.381,0.934
	c-0.012,0.145,0.035,0.24,0.139,0.287c0.1,0.049,0.22,0.204,0.365,0.469c0.143,0.263,0.282,0.832,0.416,1.703
	c0.127,0.879,0.161,1.324,0.104,1.339c-0.061,0.011-0.065,0.843-0.018,2.496c0.04,1.655,0.09,2.686,0.147,3.091
	c0.056,0.409,0.1,0.696,0.129,0.864l0.044,0.252h0.042v0.216h-0.042l-0.026,0.107l-0.018,0.108l-0.129-0.015l-0.13-0.021
	l-0.018-0.021l-0.027-0.014l-0.025-0.013l-0.018-0.023l-0.016-0.02l-0.026-0.015l-0.026-0.016l-0.016-0.02l-0.019-0.023
	l-0.023-0.014L78.3,57.654l-0.016-0.021l-0.017-0.021l-0.026-0.015l-0.025-0.013l-0.018-0.024l-0.017-0.02l-0.026-0.016
	l-0.025-0.013l-0.036-0.044l-0.025-0.015l-0.043-0.072l-0.044-0.07l-0.043,0.07l-0.043,0.072l-0.024,0.015l-0.017,0.021l0.017,0.022
	l0.024,0.013l0.089,0.396c0.058,0.265,0.013,0.431-0.13,0.503c-0.146,0.073-0.29,0.275-0.433,0.613
	c-0.146,0.334-0.245,0.742-0.304,1.222c-0.057,0.479-0.037,0.832,0.061,1.063c0.104,0.226,0.163,0.354,0.172,0.388
	c0.019,0.04,0.013,0.082-0.017,0.13l-0.043,0.072l-0.025,0.013l-0.017,0.023l0.104-0.023c0.075-0.009,0.121-0.017,0.139-0.027
	l0.019-0.022l0.13-0.021l0.131-0.014v0.217h0.261l-0.02,0.071L77.986,62.2l-0.027,0.014l-0.017,0.023l-0.016,0.02l-0.028,0.015
	v0.145l0.028,0.143c0.012,0.095-0.009,0.157-0.052,0.18c-0.041,0.022-0.077,0.072-0.104,0.143c-0.029,0.072-0.059,0.096-0.088,0.072
	c-0.027-0.023-0.079,0.023-0.155,0.145c-0.068,0.119-0.167,0.227-0.294,0.321c-0.134,0.097-0.266,0.26-0.397,0.489
	c-0.129,0.225-0.196,0.347-0.208,0.361l-0.026,0.013l-0.025,0.014l-0.017,0.021l-0.088,0.021l-0.088,0.016v0.143l-0.087,0.013
	l-0.086,0.022l-0.019,0.021l-0.025,0.014l-0.027,0.016l-0.017,0.02l-0.016,0.021l-0.024,0.017v-0.362l-0.044-0.07l-0.043-0.072
	l-0.027-0.157c-0.011-0.113,0.027-0.167,0.114-0.167s0.158,0.008,0.217,0.021l0.088,0.016l-0.018-0.145l-0.026-0.145l-0.026-0.014
	l-0.017-0.021l-0.017-0.021l-0.052-0.031l-0.017-0.021l-0.019-0.02l-0.025-0.015l-0.024-0.015l-0.019-0.021l-0.017-0.019
	l-0.024-0.016l-0.025-0.015l-0.019-0.02l-0.087-0.022l-0.086-0.015l-0.019,0.108l-0.023,0.109l-0.028,0.013
	c-0.012,0.015-0.031,0.035-0.06,0.058c-0.03,0.023-0.095,0.007-0.201-0.058c-0.097-0.058-0.224-0.109-0.378-0.158l-0.244-0.072
	l-0.017,0.108c-0.018,0.07-0.039,0.144-0.068,0.218c-0.029,0.071-0.139,0.13-0.331,0.179c-0.183,0.047-0.276,0.12-0.276,0.218
	c0,0.096-0.08,0.166-0.241,0.215c-0.157,0.05-0.501,0.054-1.039,0.015c-0.529-0.033-0.853,0.004-0.969,0.115
	c-0.116,0.104-0.46,0.227-1.038,0.359c-0.577,0.129-0.996,0.139-1.256,0.029c-0.26-0.106-0.389-0.183-0.389-0.229
	c0-0.049-0.028-0.076-0.087-0.088c-0.059-0.013-0.15-0.123-0.277-0.33c-0.133-0.202-0.199-0.447-0.199-0.734v-0.43l0.026-0.108
	l0.017-0.107l0.218,0.013l0.217,0.021l0.087,0.037l0.088,0.039l0.389,0.357c0.26,0.24,0.418,0.371,0.475,0.396l0.088,0.036
	l0.017,0.021l0.026,0.014l0.024,0.015l0.018,0.021h0.347l0.088-0.038l0.173-0.07l0.088-0.036l0.017-0.021l0.025-0.014v-0.288
	l-0.025-0.014l-0.017-0.021l-0.02-0.021l-0.025-0.014l-0.025-0.014l-0.036-0.042l-0.025-0.016l-0.026-0.014l-0.016-0.021
	l-0.017-0.021l-0.027-0.016l-0.024-0.013l-0.019-0.021l-0.346-0.036c-0.231-0.025-0.462-0.086-0.692-0.181
	c-0.231-0.095-0.525-0.327-0.883-0.698c-0.363-0.373-0.619-0.679-0.762-0.921c-0.145-0.239-0.254-0.37-0.329-0.396
	c-0.067-0.022-0.138-0.118-0.208-0.285c-0.074-0.168-0.242-0.36-0.502-0.575c-0.258-0.219-0.46-0.423-0.604-0.613
	c-0.144-0.192-0.179-0.311-0.104-0.36c0.07-0.048,0.099-0.096,0.088-0.143c-0.017-0.048-0.219-0.165-0.605-0.345
	c-0.393-0.178-0.854-0.297-1.386-0.359c-0.537-0.058-0.957-0.044-1.263,0.042l-0.45,0.121l-0.016-0.021l-0.053-0.027l-0.016-0.023
	l-0.019-0.022l-0.025-0.013l-0.026-0.015l-0.017-0.021l-0.017-0.021l-0.026-0.016l-0.026-0.015l-0.017-0.021l-0.018-0.021
	l-0.026-0.015l-0.023-0.015l-0.018-0.021l-0.018-0.02l-0.025-0.016l-0.043-0.108c-0.03-0.07-0.045-0.202-0.045-0.396
	c0-0.191-0.143-0.455-0.433-0.791c-0.288-0.335-0.488-0.754-0.603-1.258c-0.117-0.503-0.217-0.815-0.303-0.936
	c-0.087-0.12-0.167-0.359-0.243-0.72l-0.104-0.54h-0.088c-0.059,0-0.091,0.024-0.104,0.072s-0.19,0.061-0.519,0.037
	c-0.334-0.026-0.503-0.073-0.503-0.144c0-0.073-0.04-0.108-0.129-0.108c-0.086,0-0.13-0.036-0.13-0.108
	c0-0.073-0.029-0.113-0.087-0.123c-0.058-0.014-0.172-0.08-0.346-0.201c-0.175-0.119-0.266-0.291-0.276-0.518
	c-0.019-0.23-0.057-0.404-0.114-0.525c-0.058-0.119-0.095-0.479-0.112-1.078c-0.012-0.6-0.047-0.9-0.104-0.9
	s-0.174-0.076-0.346-0.229l-0.261-0.236l-0.085-0.037l-0.087-0.035l-0.017-0.021l-0.053-0.031l-0.017-0.021l-0.018-0.021
	l-0.026-0.014l-0.026-0.015l-0.017-0.021l-0.172-0.07h-0.261l0.017,0.02l0.025,0.015l0.026,0.015l0.019,0.021l0.017,0.021
	l0.052,0.029l0.017,0.021l0.017,0.021l0.028,0.014l0.024,0.016l0.018,0.021l0.086,0.02l0.086,0.016l0.158,0.322
	c0.096,0.217,0.161,0.371,0.188,0.469l0.043,0.145l0.044,0.179l0.043,0.181l0.025,0.072l0.018,0.071l-0.261-0.016l-0.261-0.021
	l-0.128-0.034c-0.087-0.025-0.275-0.072-0.562-0.145c-0.29-0.072-0.593-0.264-0.908-0.574c-0.32-0.312-0.645-0.692-0.98-1.139
	c-0.328-0.44-0.693-0.936-1.098-1.488c-0.403-0.551-0.653-1.02-0.753-1.401c-0.104-0.385-0.314-0.604-0.631-0.663
	c-0.319-0.062-0.491-0.125-0.521-0.187c-0.028-0.058-0.096-0.11-0.199-0.159l-0.146-0.072l-0.042-0.071l-0.088-0.144l-0.043-0.072
	l-0.026-0.016l-0.018-0.021l-0.017-0.021l-0.025-0.015l-0.086-0.145v-0.142l0.025-0.016l0.034-0.044l0.025-0.014l0.026,0.014
	l0.017,0.021l0.477,0.038c0.316,0.023,0.52,0.034,0.606,0.034h0.127l-0.016-0.021l-0.024-0.014v-0.073
	c0-0.048,0.013-0.096,0.04-0.143c0.031-0.049,0.024-0.085-0.016-0.108c-0.044-0.024,0.054-0.265,0.296-0.72
	c0.248-0.455,0.488-0.802,0.719-1.043c0.23-0.24,0.374-0.479,0.433-0.719l0.085-0.359L53.722,40.7l-0.042-0.072l-0.044-0.072
	l-0.086-0.144l-0.042-0.072l-0.026-0.014l-0.036-0.042l-0.025-0.017l-0.026,0.017l-0.018,0.021l-0.017,0.021l-0.027,0.014
	l-0.086,0.143l-0.025,0.016l-0.018,0.021l0.018,0.021l0.025,0.016l0.086,0.575l0.027,0.074l0.017,0.07l-0.302-0.014l-0.304-0.022
	l-0.016-0.021l-0.026-0.013l-0.025-0.016l-0.017-0.021l-0.019-0.021l-0.051-0.029L52.6,41.096l-0.087-0.021l-0.086-0.016
	l-0.019-0.07c-0.017-0.049-0.034-0.205-0.052-0.469c-0.012-0.263-0.081-0.42-0.207-0.467l-0.2-0.072l-0.023-0.014l-0.036-0.044
	l-0.052-0.029l-0.017-0.021l-0.174-0.071l-0.017-0.021l-0.026-0.016l-0.026-0.013l-0.018-0.023l-0.259-0.072h-0.173l-0.016,0.022
	l-0.027,0.013v0.144l0.027,0.252l0.016,0.252l0.502,0.359c0.329,0.24,0.494,0.455,0.494,0.646c0,0.193-0.015,0.42-0.043,0.684
	l-0.042,0.396l-0.044,0.073l-0.042,0.07l-0.026,0.015l-0.017,0.022l-0.261,0.021l-0.272,0.013l-0.019-0.071
	c-0.016-0.047-0.062-0.083-0.137-0.108l-0.104-0.036l-0.017-0.071l-0.026-0.072l-0.026-0.016l-0.016-0.021h-0.175l0.019,0.021
	l0.026,0.016l0.086,0.144l0.044,0.036c0.027,0.025,0.058,0.072,0.086,0.145l0.043,0.107v0.215l-0.024,0.016l-0.019,0.021
	l-0.017,0.023L51.076,43l-0.026-0.014l-0.015-0.023l-0.02-0.021l-0.025-0.016l-0.024-0.013l-0.018-0.022l-0.018-0.021l-0.025-0.015
	l-0.026-0.013l-0.018-0.022l-0.016-0.021l-0.026-0.015l-0.027-0.014l-0.016-0.021l-0.017-0.023l-0.026-0.014l-0.025-0.014
	l-0.018-0.023l-0.017-0.02l-0.052-0.03l-0.019-0.021l-0.017-0.022l-0.025-0.014l-0.043-0.072c-0.027-0.048-0.092-0.124-0.189-0.231
	c-0.104-0.108-0.278-0.314-0.521-0.617c-0.246-0.297-0.387-0.565-0.416-0.805c-0.028-0.24,0.016-0.443,0.13-0.611
	c0.115-0.168,0.173-0.479,0.173-0.935c0-0.456-0.015-0.815-0.043-1.079c-0.027-0.264,0.028-0.539,0.173-0.828
	c0.145-0.287,0.218-0.468,0.218-0.54s0.058-0.288,0.174-0.647c0.114-0.359,0.181-1.043,0.196-2.05
	c0.013-1.007-0.011-1.516-0.067-1.524c-0.06-0.015-0.14-0.101-0.244-0.26c-0.098-0.153-0.098-0.242,0-0.267
	c0.104-0.023,0.171-0.12,0.199-0.287l0.044-0.252l-0.129-0.014c-0.089-0.015-0.173-0.039-0.26-0.072
	c-0.09-0.038-0.132-0.081-0.132-0.129c0-0.049-0.058-0.115-0.173-0.202c-0.115-0.081-0.317-0.337-0.604-0.77
	c-0.289-0.431-0.462-0.712-0.52-0.84c-0.059-0.135-0.323-0.215-0.797-0.239c-0.479-0.023-0.784-0.006-0.916,0.051
	c-0.128,0.062-0.306,0.022-0.537-0.122c-0.23-0.144-0.374-0.295-0.433-0.453c-0.059-0.153-0.188-0.259-0.39-0.316
	c-0.203-0.063-0.366-0.173-0.495-0.332c-0.131-0.154-0.283-0.326-0.456-0.517c-0.175-0.192-0.355-0.317-0.548-0.375
	c-0.186-0.062-0.499-0.254-0.951-0.575c-0.444-0.326-0.695-0.632-0.753-0.92c-0.059-0.288-0.153-0.46-0.285-0.519
	c-0.126-0.062-0.379-0.188-0.754-0.38c-0.375-0.192-0.75-0.515-1.125-0.971c-0.376-0.456-1.025-0.875-1.948-1.26
	c-0.922-0.383-2.004-0.472-3.244-0.266c-1.243,0.202-1.838,0.386-1.793,0.554c0.041,0.167-0.219,0.376-0.778,0.625
	c-0.565,0.254-1.339,0.652-2.319,1.193c-0.98,0.538-1.477,0.83-1.488,0.878c-0.018,0.048-0.075,0.077-0.173,0.086
	c-0.103,0.015-0.17-0.009-0.199-0.072c-0.029-0.057-0.072-0.09-0.13-0.101c-0.058-0.014-0.173-0.005-0.346,0.029
	c-0.173,0.038-0.288,0.11-0.346,0.215c-0.058,0.111-0.202,0.178-0.433,0.202c-0.231,0.024-0.534,0.073-0.909,0.144
	c-0.375,0.073-0.736,0.132-1.082,0.18s-0.577,0.024-0.692-0.071c-0.115-0.096-0.208-0.32-0.276-0.669
	c-0.075-0.346-0.215-0.625-0.416-0.842c-0.202-0.215-0.514-0.4-0.935-0.553c-0.416-0.158-0.695-0.302-0.84-0.432
	c-0.145-0.133-0.403-0.297-0.779-0.489c-0.374-0.191-0.568-0.312-0.58-0.359c-0.018-0.048-0.228-0.156-0.632-0.324
	c-0.404-0.167-0.989-0.39-1.757-0.668c-0.762-0.273-1.878-0.53-3.349-0.769l-2.207-0.36l-0.173-0.072l-0.018-0.021l-0.026-0.015
	l-0.026-0.072l-0.017-0.072h-0.26v-0.216l0.173-0.014l0.173-0.021l0.779-0.036c0.519-0.024,0.888-0.044,1.108-0.058
	c0.213-0.01,0.305-0.039,0.277-0.086c-0.028-0.048,0.034-0.067,0.19-0.057c0.161,0.013,0.248,0.028,0.26,0.042
	c0.017,0.011,0.035,0.02,0.052,0.03l0.017,0.021l0.174,0.073l0.259,0.072l0.129,0.021l0.13,0.014L15.622,20.2l-0.026-0.072
	l-0.026-0.014l-0.017-0.022l-0.017-0.021l-0.052-0.03l-0.032-0.028l-0.086-0.036l-0.261-0.107l-0.129-0.036
	c-0.086-0.024-0.188-0.048-0.303-0.071c-0.116-0.024-0.318-0.012-0.606,0.036c-0.288,0.047-0.562,0.055-0.821,0.021
	c-0.26-0.038-0.39-0.081-0.39-0.129s-0.072-0.072-0.216-0.072c-0.145,0-0.217,0.072-0.217,0.216s-0.159,0.252-0.477,0.324
	c-0.317,0.072-0.481,0.156-0.493,0.251c-0.017,0.097-0.236,0.163-0.657,0.202c-0.415,0.034-1.359,0.188-2.83,0.46
	c-1.471,0.278-2.207,0.381-2.207,0.31c0-0.072-0.057-0.127-0.173-0.167l-0.172-0.05l0.017-0.021l0.052-0.028l0.018-0.022H5.326
	l-0.017,0.022l-0.026,0.014l-0.061,0.216c-0.046,0.144-0.127,0.229-0.242,0.252c-0.115,0.024-0.173,0.072-0.173,0.144
	c0,0.072-0.288,0.175-0.866,0.309c-0.576,0.129-0.909,0.207-0.995,0.23l-0.129,0.037L2.73,22.338l-0.086,0.015l0.016-0.073
	l0.027-0.072l0.025-0.014l0.018-0.021l0.017-0.021l0.051-0.029L2.817,22.1h-0.52l0.017-0.022l0.052-0.029l0.018-0.021l0.018-0.022
	l0.052-0.029l0.017-0.021l0.017-0.021l0.026-0.014l0.043-0.071c0.029-0.048,0.058-0.084,0.087-0.108
	c0.028-0.024,0.139-0.065,0.329-0.123c0.185-0.062,0.3-0.182,0.347-0.36c0.041-0.181,0.138-0.325,0.294-0.432l0.243-0.165
	l-0.018-0.022c-0.017-0.01-0.062-0.034-0.138-0.072c-0.069-0.034-0.196-0.153-0.381-0.359c-0.191-0.202-0.243-0.518-0.156-0.949
	c0.086-0.432-0.035-0.719-0.364-0.863c-0.334-0.144-0.507-0.241-0.519-0.288C2.263,18.06,2.217,18.023,2.142,18
	c-0.069-0.023-0.126-0.083-0.173-0.18c-0.041-0.096-0.213-0.276-0.519-0.54L1,16.885v-0.36h0.043l0.086-0.287V15.95
	c0-0.192-0.008-0.312-0.026-0.36l-0.017-0.072l12.071-0.776c8.047-0.514,12.145-0.778,12.289-0.792
	c0.145-0.01,0.384,0.177,0.718,0.561c0.33,0.384,0.542,0.768,0.641,1.151c0.104,0.384,0.184,0.576,0.242,0.576
	c0.058,0,0.086,0.023,0.086,0.071c0,0.048,4.155-0.049,12.462-0.288s12.462-0.323,12.462-0.251c0,0.072,0.043,0.107,0.131,0.107
	c0.085,0,0.181,0.167,0.285,0.503c0.099,0.335,0.162,0.539,0.19,0.612c0.028,0.071,0.057,0.131,0.088,0.18l0.087,0.144l0.042,0.072
	l0.026,0.015l0.016,0.021h0.174l0.604-0.072l0.173-0.072l0.019-0.021l0.025-0.016l0.086-0.898c0.06-0.6,0.015-1.008-0.13-1.224
	c-0.144-0.216-0.201-0.527-0.173-0.934c0.029-0.408,0.12-0.688,0.277-0.842c0.162-0.158,0.315-0.249,0.458-0.274
	C54.582,13.048,54.653,13.028,54.653,13.015L54.653,13.015z M69.383,34.348c-0.013-0.014-0.013-0.029,0-0.044l0.026-0.014v0.036
	C69.409,34.35,69.398,34.356,69.383,34.348z M77.223,62.195l-0.025,0.072l-0.026,0.015l-0.016,0.021h-0.264l0.019-0.021l0.053-0.029
	l0.017-0.021l0.016-0.022l0.029-0.015l0.026-0.013l0.015-0.024l0.089-0.019C77.212,62.129,77.233,62.148,77.223,62.195
	L77.223,62.195z"/>
</svg>
