<svg width="80" height="67" viewBox="0 0 80 67" fill="none" xmlns="http://www.w3.org/2000/svg">
<path d="M21 26.9851V29.1238V62.9999H79V29.1238L78.9142 26.9851" stroke="#333333" stroke-width="2" stroke-miterlimit="10" stroke-linecap="round" stroke-linejoin="round"/>
<path d="M66.4892 23.6165V34.5453L61.5587 37.6355H37.5864L32.996 34.5453V23.6165H66.4892ZM68.1893 22.1091H66.4892H32.996H31.2958V23.6165V34.6207V35.3744L31.9759 35.8266L36.5663 38.9168L36.9914 39.2183H37.5864H61.5587H62.0688L62.4938 38.9168L67.4243 35.8266L68.1893 35.3744V34.6207V23.6165V22.1091Z" fill="white"/>
<path d="M38.074 33.7434H61.926" stroke="white" stroke-width="2" stroke-miterlimit="10"/>
<path d="M21.0858 26.8997L50 5L78.9142 26.8997" stroke="white" stroke-width="2" stroke-miterlimit="10" stroke-linecap="round" stroke-linejoin="round"/>
<path d="M78.9142 26.9851L54.8905 44.8642L78.9142 62.8288L54.8905 44.8642H45.0237L21 62.8288L45.0237 44.8642L21 26.9851V29.1238V62.9999H79V29.1238L78.9142 26.9851Z" stroke="white" stroke-width="2" stroke-miterlimit="10" stroke-linecap="round" stroke-linejoin="round"/>
<path d="M51.2012 29.2949H48.7988V26.8997H51.2012C51.2012 29.2949 51.2012 26.8997 51.2012 29.2949Z" fill="#FCD40B"/>
<path d="M56.0917 29.2949H53.6893V26.8997H56.0917C56.0917 29.2949 56.0917 26.8997 56.0917 29.2949Z" fill="#FAA81E"/>
<path d="M46.2248 29.2949H43.8224V26.8997H46.2248C46.2248 29.2949 46.2248 26.8997 46.2248 29.2949Z" fill="#8CDB60"/>
</svg>
