<svg width="30" height="30" fill="none" xmlns="http://www.w3.org/2000/svg"><path d="M29.634 15.366c.202-8.082-6.186-14.797-14.268-15C7.284.164.568 6.552.366 14.634c-.202 8.083 6.186 14.798 14.268 15 8.082.203 14.798-6.185 15-14.268z" fill="#fff"/><path d="M9.956 12.666h2.528v7.82H9.956v-7.82zm1.268-3.892c.807 0 1.463.632 1.463 1.409s-.656 1.408-1.463 1.408c-.808 0-1.464-.631-1.464-1.408 0-.777.656-1.409 1.464-1.409zM13.679 12.869h2.398v1.04h.03c.336-.602 1.15-1.231 2.368-1.231 2.533 0 2.996 1.577 2.996 3.628v4.179h-2.503v-3.706c0-.884-.014-2.022-1.3-2.022-1.3 0-1.501.962-1.501 1.952v3.769h-2.503v-7.61h.015z" fill="#41414D"/></svg>