<svg data-name="Layer 2" xmlns="http://www.w3.org/2000/svg" viewBox="0 0 90 90"><path d="M80 25.88l-10.6-15.1a.93.93 0 0 0-.59-.32.88.88 0 0 0-.41-.12H21.5a1 1 0 0 0-.51.16 1.23 1.23 0 0 0-.49.29L10 26a.85.85 0 0 0 0 1l21 30.5a15.24 15.24 0 0 0-1.54 6.73 15.43 15.43 0 0 0 30.85 0 14.68 14.68 0 0 0-1.53-6.61L80 26.92a.85.85 0 0 0 0-1.04zm-61.7-1.77l1.76-1.24-2.83-4L21.29 13l2.41 3.48 18.2 26.44a1 1 0 0 0 .72.43.75.75 0 0 0 .56-.2 1 1 0 0 0 .42-.72.7.7 0 0 0-.2-.55L33.33 27.17h23.16L45.72 42.86l-4.43 6.45a15.45 15.45 0 0 0-2 .64l-17.1-24.06-.07-.1L20.36 27l16.92 23.86A15.31 15.31 0 0 0 32 55.73L12 26.55l4-5.78zm39.56 1.11H32.07l-8.93-13h43.7zm-25 32.69a13.88 13.88 0 0 1 .79-1.29A13.32 13.32 0 0 1 42 51.07a14.4 14.4 0 0 1 2.87-.29 13.58 13.58 0 0 1 12 7.23 14.3 14.3 0 0 1 1.59 6.34 13.58 13.58 0 0 1-27.15 0 14.33 14.33 0 0 1 1.6-6.44zm22.76-4.66a15.29 15.29 0 0 0-10.72-4.42h-.94L68.7 13l4 5.85-7.3 10.64-.07.1L67 30.71l7-10.08 4.08 5.92L57.8 55.83a14.77 14.77 0 0 0-2.13-2.58zM45 73.58a9.13 9.13 0 1 0-9.12-9.13A9.15 9.15 0 0 0 45 73.58zm-7.54-9.21A7.54 7.54 0 1 1 45 71.91a7.55 7.55 0 0 1-7.59-7.54z" fill="#0087ff"/></svg>