<svg fill="none" height="28" viewBox="0 0 24 28" width="24" xmlns="http://www.w3.org/2000/svg"><path d="m23.2169 20.9634v4.2151c.0014.3913-.0652.7786-.1955 1.1372-.1302.3585-.3213.6804-.5608.9449-.2396.2645-.5224.4659-.8304.5913s-.6343.1719-.9581.1367c-3.5923-.4698-7.0428-1.9472-10.0745-4.3135-2.82059-2.1572-5.21196-5.0354-7.00427-8.4302-1.9729-3.6655-3.200671-7.83879-3.58385474-12.18177-.02917216-.38854.00919304-.78014.11265274-1.14985.103459-.36972.269746-.70946.488274-.997588.218527-.28813.484508-.518337.781008-.675965.29649-.1576282.61701-.23922339.94115-.23959078h3.50213c.56654-.00671111 1.11577.23475278 1.54533.67938378.42956.44463.71013 1.06209.78943 1.73729.14781 1.34893.42195 2.67341.81716 3.94817.15706.5029.19106 1.04945.09795 1.57489-.0931.52543-.3094 1.00774-.62327 1.38975l-1.48257 1.78438c1.66183 3.5176 4.08168 6.4301 7.00428 8.4303l1.4826-1.7844c.3174-.3778.7181-.6381 1.1546-.7502.4366-.112.8907-.0711 1.3085.1179 1.0592.4757 2.1596.8056 3.2804.9835.567.0963 1.0849.4401 1.4551.966s.567 1.1972.5527 1.8863z" fill="#fff"/></svg>