<svg width="188" height="26" viewBox="0 0 188 26" fill="none" xmlns="http://www.w3.org/2000/svg">
<path d="M88.3598 5.45572C88.0443 5.33579 87.7079 5.2803 87.3706 5.2925C85.3921 5.2925 83.9775 6.37078 83.2306 8.3839V5.4854H77.6512V19.7257H83.28V13.8198C83.28 11.5544 84.6897 10.5058 86.7424 10.5058C87.287 10.5001 87.8312 10.5382 88.3697 10.6196L88.3598 5.45572ZM67.8824 8.96261C68.1732 8.95424 68.4626 9.00577 68.7327 9.11399C69.0028 9.22222 69.2477 9.38483 69.4523 9.59172C69.6569 9.79861 69.8167 10.0454 69.9219 10.3166C70.027 10.5879 70.0753 10.8779 70.0637 11.1686H65.5082C65.7555 9.81831 66.4974 8.96261 67.8824 8.96261ZM75.1682 14.8684H70.0093C69.7323 15.7241 68.9854 16.1644 67.8824 16.1644C66.3985 16.1644 65.6763 15.2839 65.4538 13.7654H75.2226V12.4398C75.2226 8.5224 72.7495 5.15399 67.8824 5.15399C63.5247 5.15399 60.0722 7.88433 60.0722 12.5734C60.0722 17.2624 63.5346 20.0521 67.8824 20.0521C71.9383 20.0521 74.5895 17.9796 75.1682 14.8635V14.8684ZM49.8088 5.46561H44.8625L42.9681 14.1611H42.884L40.7324 5.47055H35.1283L39.5799 19.7108H45.1791L47.2466 11.4605H47.306L49.3488 19.7108H54.9479L59.3995 5.47055H53.9735L51.7922 14.1611H51.7378L49.8088 5.46561ZM24.3108 12.5833C24.3108 10.3476 25.028 9.08132 26.5713 9.08132C28.1145 9.08132 28.8366 10.3476 28.8366 12.5833C28.8366 14.819 28.1194 16.0902 26.5713 16.0902C25.0231 16.0902 24.3108 14.819 24.3108 12.5833ZM34.4902 12.5833C34.4902 7.9239 31.2653 5.13421 26.5762 5.13421C21.8872 5.13421 18.6622 7.9239 18.6622 12.5833C18.6622 17.2426 21.8921 20.0373 26.5762 20.0373C31.2603 20.0373 34.4902 17.2476 34.4902 12.5833ZM5.68324 9.21981V4.41701H8.83895C11.134 4.41701 11.96 5.27271 11.96 6.84562C11.96 8.32949 11.134 9.21981 8.83895 9.21981H5.68324ZM9.60067 13.6071C14.7052 13.6071 17.6581 11.317 17.6581 6.84562C17.6581 2.37421 14.6904 0 9.54626 0H0V19.7059H5.68324V13.6269L9.60067 13.6071Z" fill="#FFD45B"/>
<path d="M92.2566 19.968V18.8056H92.7067C94.7643 18.8056 95.0809 18.7265 95.0809 18.1181V3.77393H92.8353C90.2237 3.77393 90.0407 4.56534 89.1157 7.86449H88.1265L88.3639 2.5621H104.306L104.543 7.86449H103.554C102.629 4.56534 102.446 3.77393 99.8342 3.77393H97.5936V18.1181C97.5936 18.7265 97.9102 18.8056 99.9678 18.8056H100.413V19.968H92.2566Z" fill="white"/>
<path d="M111.75 19.968H106.052V18.8304C107.634 18.8304 107.768 18.7809 107.768 18.3357V3.24966C107.768 2.69568 107.634 2.61654 107.16 2.40385L105.948 1.84987V1.27116L109.667 0.187927H110.033V9.65506C110.825 8.62624 112.541 7.31053 114.337 7.31053C116.894 7.31053 117.893 9.36817 117.893 11.7127V18.3357C117.893 18.7858 118.027 18.8304 119.609 18.8304V19.968H113.911V18.8304C115.494 18.8304 115.628 18.7809 115.628 18.3357V11.9056C115.628 10.0606 114.861 9.00215 113.229 9.00215C111.999 9.07776 110.85 9.63812 110.033 10.5602V18.3159C110.033 18.7661 110.167 18.8106 111.75 18.8106V19.968Z" fill="white"/>
<path d="M127.706 19.968H121.222V18.8304C122.805 18.8304 122.933 18.7809 122.933 18.3357V10.3624C122.933 9.8084 122.805 9.72925 122.33 9.52151L121.123 8.96753V8.38387L124.842 7.30559H125.213V10.8125C126.005 9.4671 127.637 7.30559 129.141 7.30559C129.361 7.28573 129.583 7.31182 129.793 7.38223C130.002 7.45264 130.195 7.56583 130.359 7.71462C130.523 7.86341 130.654 8.04456 130.744 8.24661C130.834 8.44866 130.881 8.6672 130.882 8.88839C130.893 9.07847 130.864 9.26884 130.797 9.44691C130.729 9.62498 130.625 9.78668 130.49 9.92134C130.356 10.056 130.194 10.1605 130.016 10.228C129.838 10.2955 129.647 10.3245 129.457 10.3129C128.72 10.3129 128.404 9.54624 127.795 9.54624C127.058 9.60065 125.926 10.9164 125.213 11.9749V18.2764C125.213 18.771 125.347 18.8304 127.716 18.8304L127.706 19.968Z" fill="white"/>
<path d="M137.727 7.30557C140.868 7.30557 143.475 9.86278 143.475 13.7654C143.475 17.668 140.868 20.2301 137.727 20.2301C134.587 20.2301 131.975 17.6729 131.975 13.7654C131.975 9.85784 134.587 7.30557 137.727 7.30557ZM137.727 8.62128C135.566 8.62128 134.404 10.575 134.404 13.7654C134.404 16.9557 135.566 18.9095 137.727 18.9095C139.889 18.9095 141.051 16.9607 141.051 13.7654C141.051 10.5701 139.889 8.62128 137.727 8.62128Z" fill="white"/>
<path d="M154.822 20.2301H154.451V18.0142C153.659 19.043 152.21 20.2301 150.494 20.2301C148.199 20.2301 146.853 18.5138 146.853 15.823V9.83805C146.853 9.28407 146.75 9.09612 146.25 8.99225L144.984 8.75483V7.83483L148.753 7.56772H149.124V15.645C149.124 17.574 149.965 18.5484 151.444 18.5484C152.026 18.5129 152.594 18.356 153.112 18.0876C153.63 17.8193 154.086 17.4455 154.451 16.9903V9.81827C154.451 9.26429 154.347 9.07633 153.842 8.97246L152.576 8.73504V7.81504L156.35 7.54794H156.736V17.6779C156.736 18.2318 156.865 18.311 157.339 18.5237L158.556 19.0777V19.6564L154.822 20.2301Z" fill="white"/>
<path d="M165.214 25.8194C161.811 25.8194 159.382 24.6867 159.382 22.4708C159.382 21.1798 160.678 20.2548 162.35 19.9383C161.871 19.8079 161.446 19.5279 161.137 19.1391C160.828 18.7502 160.652 18.2729 160.634 17.7768C160.634 16.4561 161.771 15.6153 162.825 15.1404C162.142 14.8108 161.564 14.2984 161.154 13.6602C160.745 13.022 160.52 12.2828 160.505 11.5247C160.505 9.22964 162.8 7.30555 165.491 7.30555C166.86 7.30349 168.179 7.8215 169.181 8.75481C169.947 7.80513 170.872 6.80598 171.951 6.80598C172.16 6.78766 172.371 6.81395 172.569 6.88312C172.767 6.95229 172.948 7.06277 173.101 7.20724C173.253 7.35171 173.373 7.52688 173.453 7.72118C173.533 7.91549 173.57 8.12449 173.563 8.33437C173.575 8.68352 173.449 9.02332 173.212 9.27989C172.975 9.53646 172.646 9.68905 172.297 9.70449C171.308 9.70449 171.214 8.80921 170.764 8.80921C170.352 8.86155 169.975 9.06842 169.71 9.38793C170.164 10.0085 170.413 10.7556 170.422 11.5247C170.422 13.795 168.152 15.7439 165.476 15.7439C164.875 15.7542 164.277 15.6656 163.705 15.4817C162.676 15.9763 162.122 16.4067 162.122 17.1189C162.119 17.248 162.142 17.3765 162.191 17.4961C162.24 17.6157 162.313 17.7237 162.406 17.8132C162.5 17.9026 162.611 17.9716 162.732 18.0156C162.853 18.0596 162.983 18.0776 163.112 18.0686H168.058C170.353 18.0686 172.252 18.9391 172.252 21.2045C172.282 24.1574 168.909 25.8194 165.214 25.8194ZM163.077 20.2301C162.152 20.6258 161.44 21.2194 161.44 22.2877C161.44 23.8161 163.156 24.5531 165.427 24.5531C168.167 24.5531 170.254 23.4204 170.254 21.8376C170.254 20.6505 169.512 20.2301 167.781 20.2301H163.077ZM165.506 14.5864C167.059 14.5864 168.063 13.3993 168.063 11.5247C168.063 9.65007 167.074 8.43824 165.506 8.43824C163.938 8.43824 162.919 9.62534 162.919 11.5247C162.919 13.4241 163.923 14.5864 165.506 14.5864Z" fill="white"/>
<path d="M179.746 19.968H174.048V18.8304C175.631 18.8304 175.759 18.7809 175.759 18.3357V3.24966C175.759 2.69568 175.631 2.61654 175.156 2.40385L173.939 1.84987V1.27116L177.659 0.187927H178.03V9.65506C178.821 8.62624 180.532 7.31053 182.328 7.31053C184.885 7.31053 185.889 9.36817 185.889 11.7127V18.3357C185.889 18.7858 186.023 18.8304 187.605 18.8304V19.968H181.912V18.8304C183.495 18.8304 183.624 18.7809 183.624 18.3357V11.9056C183.624 10.0606 182.862 9.00215 181.225 9.00215C180.617 9.03916 180.022 9.19583 179.474 9.4632C178.927 9.73057 178.438 10.1034 178.034 10.5602V18.3159C178.034 18.7661 178.163 18.8106 179.746 18.8106V19.968Z" fill="white"/>
</svg>
