<svg width="16" height="16" viewBox="0 0 16 16" fill="none" xmlns="http://www.w3.org/2000/svg">
<path d="M14.6757 8.01086C14.9145 7.62008 15.7612 6.25238 15.8697 6.0787L16 5.88331L15.7829 5.77476C15.5224 5.64451 14.1764 4.90638 13.7639 4.68928C13.7639 4.23338 13.829 2.69199 13.829 2.40977V2.17096L13.5902 2.19267C13.2646 2.21438 11.81 2.30122 11.3541 2.32293C11.137 1.91045 10.3989 0.542741 10.2469 0.260516L10.1384 0.0434194L9.96472 0.130258C9.66079 0.303935 8.42334 1.08548 8.03257 1.32429L5.90502 0L5.79647 0.217096C5.66621 0.477612 4.92809 1.82361 4.71099 2.23609C4.2768 2.23609 2.82225 2.17096 2.43148 2.17096H2.19267V2.40977C2.19267 2.80054 2.23609 4.23338 2.2578 4.68928C1.84532 4.92809 0.477612 5.64451 0.238806 5.77476L0.0217097 5.88331L0.130258 6.0787C0.282225 6.3175 1.08548 7.62008 1.32429 8.01086L0 10.1384L0.217096 10.2469C0.499322 10.3989 1.82361 11.1153 2.23609 11.3324C2.23609 11.7883 2.17096 13.308 2.17096 13.6119V13.829H2.38806C2.69199 13.829 4.21167 13.7856 4.66757 13.7639C4.90638 14.1764 5.6228 15.5224 5.75305 15.7829L5.8616 16L6.05699 15.8697C6.3175 15.7178 7.59837 14.9145 7.98915 14.6757C8.37992 14.9145 9.6825 15.7178 9.9213 15.8697L10.1167 16L10.2252 15.8046C10.3772 15.5224 11.0936 14.1981 11.3107 13.7856C11.7883 13.7856 13.3297 13.829 13.5902 13.8507H13.829V13.6119C13.829 13.3514 13.7856 11.81 13.7639 11.3324C14.1981 11.0936 15.5875 10.3555 15.7829 10.2469L16 10.1384L15.8697 9.94301C15.7395 9.73677 14.9145 8.40163 14.6757 8.01086ZM13.4274 11.0068L13.3189 11.0719V11.2022C13.3189 11.2022 13.3623 12.7653 13.384 13.3948C12.7544 13.3731 11.2564 13.3297 11.1913 13.3297H11.0611L10.9959 13.4383C10.9959 13.4383 10.2795 14.806 9.97558 15.3704L8.10855 14.2198L8 14.1547L7.89145 14.2632C7.89145 14.2632 6.61058 15.0665 6.04613 15.4138C5.7422 14.8494 5.04749 13.5468 5.00407 13.4817L4.93894 13.3731H4.80868C4.78697 13.3731 3.2673 13.4166 2.61601 13.4383C2.63772 12.787 2.68114 11.2673 2.68114 11.2456V11.1153L2.57259 11.0502L0.640434 10.0081L1.85617 8.03257L1.79104 7.92402C1.79104 7.92402 0.987789 6.59973 0.640434 6.05699L2.57259 5.01493L2.68114 4.9498V4.81954C2.68114 4.81954 2.63772 3.32157 2.5943 2.62687L4.78697 2.69199H4.91723L4.98236 2.58345C5.02578 2.51832 5.72049 1.21574 6.02442 0.651289L8 1.86703L8.10855 1.8019L9.97558 0.651289C10.2795 1.25916 11.0393 2.64858 11.0393 2.64858L11.1045 2.75712H11.2347C11.2347 2.75712 12.7327 2.67029 13.384 2.62687C13.3623 3.25645 13.3189 4.79783 13.3189 4.79783V4.92809L13.4274 4.99322L15.3596 6.03528C15.0339 6.57802 14.209 7.90231 14.209 7.90231L14.1438 8.01086L14.209 8.1194C14.2524 8.18453 15.0339 9.4654 15.3596 9.98643C14.7843 10.2687 13.4274 11.0068 13.4274 11.0068ZM8.04342 3.03935C7.05585 3.03935 6.09047 3.3322 5.26934 3.88086C4.44821 4.42952 3.80821 5.20935 3.43029 6.12174C3.05237 7.03413 2.95348 8.0381 3.14615 9.00669C3.33881 9.97528 3.81437 10.865 4.51268 11.5633C5.211 12.2616 6.1007 12.7372 7.06929 12.9298C8.03788 13.1225 9.04185 13.0236 9.95424 12.6457C10.8666 12.2678 11.6465 11.6278 12.1951 10.8066C12.7438 9.98552 13.0366 9.02013 13.0366 8.03257C13.0366 7.37593 12.9071 6.72575 12.6555 6.11923C12.4039 5.51272 12.0351 4.96179 11.5703 4.49798C11.1055 4.03418 10.5538 3.66661 9.94672 3.41631C9.33966 3.16602 8.6892 3.03792 8.03257 3.03935H8.04342ZM8.04342 12.5916C7.14173 12.5916 6.26029 12.3242 5.51056 11.8233C4.76083 11.3223 4.17649 10.6103 3.83143 9.77723C3.48637 8.94417 3.39609 8.02751 3.572 7.14314C3.74791 6.25878 4.18211 5.44644 4.8197 4.80885C5.45729 4.17126 6.26963 3.73705 7.154 3.56114C8.03836 3.38523 8.95503 3.47551 9.78808 3.82058C10.6211 4.16564 11.3332 4.74998 11.8341 5.49971C12.3351 6.24943 12.6024 7.13088 12.6024 8.03257C12.6024 8.63218 12.4842 9.2259 12.2544 9.77974C12.0246 10.3336 11.6878 10.8366 11.2633 11.2601C10.8388 11.6836 10.3349 12.0192 9.78056 12.2477C9.22618 12.4761 8.63218 12.593 8.03257 12.5916H8.04342Z" fill="#01193F"/>
</svg>
