<svg width="34" height="34" viewBox="0 0 34 34" fill="none" xmlns="http://www.w3.org/2000/svg">
<path d="M20.582 7.74489C21.9848 8.01859 23.2741 8.70466 24.2847 9.7153C25.2953 10.7259 25.9814 12.0152 26.2551 13.418M20.582 2C23.4965 2.32378 26.2143 3.62893 28.2891 5.70116C30.364 7.77339 31.6726 10.4895 32 13.4036M30.5638 24.8647V29.1733C30.5654 29.5733 30.4835 29.9693 30.3232 30.3357C30.163 30.7022 29.928 31.0312 29.6332 31.3016C29.3385 31.572 28.9905 31.7779 28.6116 31.9061C28.2327 32.0342 27.8312 32.0818 27.4328 32.0458C23.0133 31.5656 18.7681 30.0554 15.0382 27.6366C11.568 25.4315 8.62595 22.4894 6.42086 19.0192C3.99361 15.2724 2.48309 11.0065 2.01166 6.56719C1.97577 6.17003 2.02297 5.76974 2.15025 5.39182C2.27754 5.0139 2.48212 4.66662 2.75098 4.3721C3.01983 4.07757 3.34706 3.84226 3.71185 3.68113C4.07663 3.52 4.47096 3.4366 4.86974 3.43622H9.17841C9.87542 3.42936 10.5511 3.67619 11.0796 4.13068C11.6081 4.58518 11.9533 5.21635 12.0509 5.90653C12.2327 7.2854 12.57 8.63927 13.0562 9.94231C13.2494 10.4564 13.2913 11.0151 13.1767 11.5521C13.0622 12.0892 12.7961 12.5823 12.4099 12.9727L10.5859 14.7967C12.6305 18.3924 15.6076 21.3695 19.2033 23.4141L21.0273 21.5901C21.4177 21.2039 21.9108 20.9378 22.4478 20.8233C22.9849 20.7087 23.5436 20.7506 24.0577 20.9438C25.3607 21.43 26.7146 21.7673 28.0935 21.9491C28.7911 22.0476 29.4283 22.399 29.8838 22.9365C30.3392 23.4741 30.5813 24.1603 30.5638 24.8647Z" stroke="white" stroke-width="2.87245" stroke-linecap="round" stroke-linejoin="round"/>
</svg>
