<svg width="30" height="30" fill="none" xmlns="http://www.w3.org/2000/svg"><path d="M15.406 29.594c8.06-.224 14.412-6.94 14.188-15-.224-8.06-6.94-14.413-15-14.188C6.534.63.182 7.346.406 15.406c.224 8.06 6.94 14.412 15 14.188z" fill="#fff"/><path fill-rule="evenodd" clip-rule="evenodd" d="M12.598 18.15c-1.346-.042-2.194-.963-2.418-1.702.373.07.744.056 1.116-.028a.127.127 0 00.038-.014c-.73-.162-1.295-.535-1.689-1.125a2.257 2.257 0 01-.38-1.309c.365.183.744.289 1.154.296-.55-.373-.915-.866-1.072-1.492-.148-.626-.052-1.217.283-1.78 1.406 1.57 3.184 2.427 5.356 2.568-.015-.098-.03-.183-.037-.267a2.238 2.238 0 01.38-1.604 2.53 2.53 0 011.762-1.111c.87-.134 1.636.098 2.276.682.045.042.082.05.142.042a5.435 5.435 0 001.51-.548.06.06 0 01.037-.015h.015a2.567 2.567 0 01-1.109 1.337 5.282 5.282 0 001.444-.366c.007.007.007.007.007.014a7.244 7.244 0 01-.298.366 4.822 4.822 0 01-.944.851c-.03.021-.045.042-.045.078.015.365 0 .731-.052 1.09a6.883 6.883 0 01-.67 2.187A7.026 7.026 0 0118 18.235c-.99.963-2.18 1.59-3.571 1.878-.476.098-.96.148-1.45.162a7.665 7.665 0 01-4.159-1.055c-.015-.008-.03-.021-.06-.036a5.58 5.58 0 002.597-.337 5.604 5.604 0 001.242-.697z" fill="#41414D"/></svg>