<svg width="184" height="98" viewBox="0 0 184 98" fill="none" xmlns="http://www.w3.org/2000/svg">
<rect x="0.5" y="0.5" width="183" height="97" stroke="#E4E4F0"/>
<rect x="14" y="18" width="16" height="16" fill="#0085FE"/>
<path d="M44.104 31.144C43.056 31.144 42.216 30.912 41.584 30.448C40.96 29.976 40.62 29.316 40.564 28.468H41.56C41.616 29.068 41.86 29.528 42.292 29.848C42.732 30.16 43.332 30.316 44.092 30.316C44.732 30.316 45.244 30.172 45.628 29.884C46.02 29.588 46.216 29.192 46.216 28.696C46.216 28.304 46.092 28 45.844 27.784C45.596 27.56 45.2 27.396 44.656 27.292L43.024 26.968C42.28 26.832 41.728 26.58 41.368 26.212C41.016 25.844 40.84 25.356 40.84 24.748C40.84 24.036 41.12 23.448 41.68 22.984C42.24 22.52 42.956 22.288 43.828 22.288C44.772 22.288 45.524 22.492 46.084 22.9C46.644 23.3 46.964 23.876 47.044 24.628H46.048C45.976 24.156 45.744 23.788 45.352 23.524C44.96 23.252 44.456 23.116 43.84 23.116C43.24 23.116 42.756 23.264 42.388 23.56C42.028 23.856 41.848 24.24 41.848 24.712C41.848 25.104 41.956 25.4 42.172 25.6C42.396 25.8 42.796 25.956 43.372 26.068L45.052 26.416C45.796 26.568 46.34 26.824 46.684 27.184C47.036 27.544 47.212 28.032 47.212 28.648C47.212 29.376 46.92 29.976 46.336 30.448C45.76 30.912 45.016 31.144 44.104 31.144ZM51.367 24.82C52.223 24.82 52.915 25.112 53.443 25.696C53.971 26.272 54.235 27.036 54.235 27.988C54.235 28.94 53.971 29.704 53.443 30.28C52.915 30.856 52.223 31.144 51.367 31.144C50.511 31.144 49.819 30.856 49.291 30.28C48.763 29.704 48.499 28.94 48.499 27.988C48.499 27.036 48.763 26.272 49.291 25.696C49.819 25.112 50.511 24.82 51.367 24.82ZM51.367 25.624C50.783 25.624 50.323 25.836 49.987 26.26C49.651 26.684 49.483 27.26 49.483 27.988C49.483 28.716 49.651 29.292 49.987 29.716C50.323 30.132 50.783 30.34 51.367 30.34C51.951 30.34 52.411 30.132 52.747 29.716C53.083 29.292 53.251 28.716 53.251 27.988C53.251 27.26 53.083 26.684 52.747 26.26C52.411 25.836 51.951 25.624 51.367 25.624ZM56.9234 22.168V31H55.9274V22.168H56.9234ZM63.7483 31H62.7523C62.7203 30.84 62.6923 30.672 62.6683 30.496C62.6523 30.312 62.6443 30.14 62.6443 29.98C62.5163 30.332 62.2603 30.612 61.8763 30.82C61.5003 31.028 61.0563 31.132 60.5443 31.132C59.9683 31.132 59.4963 30.976 59.1283 30.664C58.7683 30.344 58.5883 29.924 58.5883 29.404C58.5883 28.884 58.7603 28.472 59.1043 28.168C59.4563 27.864 59.9803 27.672 60.6763 27.592L62.6203 27.34V26.992C62.6203 26.552 62.4963 26.216 62.2483 25.984C62.0083 25.744 61.6603 25.624 61.2043 25.624C60.8043 25.624 60.4843 25.724 60.2443 25.924C60.0043 26.116 59.8643 26.388 59.8243 26.74H58.8643C58.9203 26.148 59.1603 25.68 59.5843 25.336C60.0163 24.992 60.5643 24.82 61.2283 24.82C61.9963 24.82 62.5843 25.004 62.9923 25.372C63.4003 25.74 63.6043 26.272 63.6043 26.968V29.74C63.6043 30.02 63.6163 30.26 63.6403 30.46C63.6643 30.652 63.7003 30.832 63.7483 31ZM59.5963 29.38C59.5963 29.684 59.7003 29.928 59.9083 30.112C60.1163 30.288 60.3963 30.376 60.7483 30.376C61.2843 30.376 61.7283 30.216 62.0803 29.896C62.4403 29.568 62.6203 29.144 62.6203 28.624V28.084L60.9763 28.264C60.4563 28.336 60.0963 28.46 59.8963 28.636C59.6963 28.812 59.5963 29.06 59.5963 29.38ZM68.5574 24.832C68.6454 24.832 68.7294 24.836 68.8094 24.844C68.8894 24.852 68.9614 24.864 69.0254 24.88V25.792C68.9614 25.776 68.8814 25.764 68.7854 25.756C68.6974 25.748 68.6054 25.744 68.5094 25.744C67.9734 25.744 67.5334 25.952 67.1894 26.368C66.8454 26.776 66.6734 27.328 66.6734 28.024V31H65.6774V24.964H66.6374V26.392C66.7654 25.912 67.0014 25.532 67.3454 25.252C67.6894 24.972 68.0934 24.832 68.5574 24.832ZM76.3281 22.288C77.4881 22.288 78.4281 22.7 79.1481 23.524C79.8681 24.34 80.2281 25.404 80.2281 26.716C80.2281 28.028 79.8681 29.096 79.1481 29.92C78.4361 30.736 77.4961 31.144 76.3281 31.144C75.1601 31.144 74.2161 30.736 73.4961 29.92C72.7841 29.096 72.4281 28.028 72.4281 26.716C72.4281 25.404 72.7881 24.34 73.5081 23.524C74.2281 22.7 75.1681 22.288 76.3281 22.288ZM76.3281 30.268C77.2161 30.268 77.9081 29.952 78.4041 29.32C78.9081 28.688 79.1601 27.82 79.1601 26.716C79.1601 25.62 78.9081 24.756 78.4041 24.124C77.9081 23.484 77.2161 23.164 76.3281 23.164C75.4401 23.164 74.7441 23.484 74.2401 24.124C73.7361 24.756 73.4841 25.62 73.4841 26.716C73.4841 27.82 73.7321 28.688 74.2281 29.32C74.7321 29.952 75.4321 30.268 76.3281 30.268ZM81.8961 24.964H82.8561V26.068C83.0001 25.692 83.2481 25.392 83.6001 25.168C83.9601 24.936 84.3681 24.82 84.8241 24.82C85.5041 24.82 86.0321 25.024 86.4081 25.432C86.7921 25.832 86.9841 26.392 86.9841 27.112V31H85.9881V27.328C85.9881 26.768 85.8641 26.348 85.6161 26.068C85.3761 25.78 85.0201 25.636 84.5481 25.636C84.0281 25.636 83.6201 25.812 83.3241 26.164C83.0361 26.516 82.8921 27.02 82.8921 27.676V31H81.8961V24.964ZM90.0523 22.168V31H89.0563V22.168H90.0523ZM92.6052 32.404C92.8932 32.404 93.1252 32.312 93.3012 32.128C93.4772 31.944 93.6692 31.584 93.8772 31.048L91.4532 24.964H92.4972L94.4172 29.896H94.4412L96.2532 24.964H97.2852L94.8492 31.18C94.5452 31.972 94.2372 32.508 93.9252 32.788C93.6212 33.076 93.2172 33.224 92.7132 33.232C92.6332 33.232 92.5372 33.224 92.4252 33.208C92.3212 33.2 92.2212 33.188 92.1252 33.172V32.356C92.1972 32.372 92.2652 32.384 92.3292 32.392C92.3932 32.4 92.4852 32.404 92.6052 32.404ZM104.327 31.144C103.279 31.144 102.439 30.912 101.807 30.448C101.183 29.976 100.843 29.316 100.787 28.468H101.783C101.839 29.068 102.083 29.528 102.515 29.848C102.955 30.16 103.555 30.316 104.315 30.316C104.955 30.316 105.467 30.172 105.851 29.884C106.243 29.588 106.439 29.192 106.439 28.696C106.439 28.304 106.315 28 106.067 27.784C105.819 27.56 105.423 27.396 104.879 27.292L103.247 26.968C102.503 26.832 101.951 26.58 101.591 26.212C101.239 25.844 101.063 25.356 101.063 24.748C101.063 24.036 101.343 23.448 101.903 22.984C102.463 22.52 103.179 22.288 104.051 22.288C104.995 22.288 105.747 22.492 106.307 22.9C106.867 23.3 107.187 23.876 107.267 24.628H106.271C106.199 24.156 105.967 23.788 105.575 23.524C105.183 23.252 104.679 23.116 104.063 23.116C103.463 23.116 102.979 23.264 102.611 23.56C102.251 23.856 102.071 24.24 102.071 24.712C102.071 25.104 102.179 25.4 102.395 25.6C102.619 25.8 103.019 25.956 103.595 26.068L105.275 26.416C106.019 26.568 106.563 26.824 106.907 27.184C107.259 27.544 107.435 28.032 107.435 28.648C107.435 29.376 107.143 29.976 106.559 30.448C105.983 30.912 105.239 31.144 104.327 31.144ZM111.098 30.256C111.242 30.256 111.382 30.244 111.518 30.22C111.662 30.196 111.814 30.16 111.974 30.112V30.928C111.782 30.984 111.598 31.024 111.422 31.048C111.254 31.08 111.086 31.096 110.918 31.096C110.358 31.096 109.938 30.96 109.658 30.688C109.386 30.416 109.25 30.004 109.25 29.452V25.72H108.362V24.964H109.25V23.428H110.234V24.964H111.818V25.72H110.222V29.404C110.222 29.7 110.29 29.916 110.426 30.052C110.57 30.188 110.794 30.256 111.098 30.256ZM118.287 31H117.291C117.259 30.84 117.231 30.672 117.207 30.496C117.191 30.312 117.183 30.14 117.183 29.98C117.055 30.332 116.799 30.612 116.415 30.82C116.039 31.028 115.595 31.132 115.083 31.132C114.507 31.132 114.035 30.976 113.667 30.664C113.307 30.344 113.127 29.924 113.127 29.404C113.127 28.884 113.299 28.472 113.643 28.168C113.995 27.864 114.519 27.672 115.215 27.592L117.159 27.34V26.992C117.159 26.552 117.035 26.216 116.787 25.984C116.547 25.744 116.199 25.624 115.743 25.624C115.343 25.624 115.023 25.724 114.783 25.924C114.543 26.116 114.403 26.388 114.363 26.74H113.403C113.459 26.148 113.699 25.68 114.123 25.336C114.555 24.992 115.103 24.82 115.767 24.82C116.535 24.82 117.123 25.004 117.531 25.372C117.939 25.74 118.143 26.272 118.143 26.968V29.74C118.143 30.02 118.155 30.26 118.179 30.46C118.203 30.652 118.239 30.832 118.287 31ZM114.135 29.38C114.135 29.684 114.239 29.928 114.447 30.112C114.655 30.288 114.935 30.376 115.287 30.376C115.823 30.376 116.267 30.216 116.619 29.896C116.979 29.568 117.159 29.144 117.159 28.624V28.084L115.515 28.264C114.995 28.336 114.635 28.46 114.435 28.636C114.235 28.812 114.135 29.06 114.135 29.38ZM122.148 30.256C122.292 30.256 122.432 30.244 122.568 30.22C122.712 30.196 122.864 30.16 123.024 30.112V30.928C122.832 30.984 122.648 31.024 122.472 31.048C122.304 31.08 122.136 31.096 121.968 31.096C121.408 31.096 120.988 30.96 120.708 30.688C120.436 30.416 120.3 30.004 120.3 29.452V25.72H119.412V24.964H120.3V23.428H121.284V24.964H122.868V25.72H121.272V29.404C121.272 29.7 121.34 29.916 121.476 30.052C121.62 30.188 121.844 30.256 122.148 30.256ZM128.666 29.224H129.602C129.474 29.824 129.186 30.296 128.738 30.64C128.29 30.976 127.746 31.144 127.106 31.144C126.234 31.144 125.53 30.86 124.994 30.292C124.466 29.724 124.202 28.964 124.202 28.012C124.202 27.06 124.466 26.292 124.994 25.708C125.53 25.116 126.214 24.82 127.046 24.82C127.846 24.82 128.478 25.096 128.942 25.648C129.406 26.192 129.638 26.908 129.638 27.796V28.192H125.174C125.198 28.88 125.378 29.412 125.714 29.788C126.058 30.164 126.522 30.352 127.106 30.352C127.498 30.352 127.822 30.26 128.078 30.076C128.342 29.884 128.538 29.6 128.666 29.224ZM127.046 25.624C126.542 25.624 126.13 25.788 125.81 26.116C125.49 26.436 125.29 26.888 125.21 27.472H128.666C128.65 26.896 128.498 26.444 128.21 26.116C127.93 25.788 127.542 25.624 127.046 25.624ZM133.438 31.144C132.67 31.144 132.05 30.976 131.578 30.64C131.114 30.296 130.858 29.82 130.81 29.212H131.77C131.802 29.58 131.966 29.868 132.262 30.076C132.566 30.284 132.954 30.388 133.426 30.388C133.858 30.388 134.202 30.296 134.458 30.112C134.722 29.92 134.854 29.668 134.854 29.356C134.854 29.124 134.766 28.94 134.59 28.804C134.422 28.66 134.158 28.552 133.798 28.48L132.73 28.264C132.138 28.152 131.71 27.968 131.446 27.712C131.182 27.448 131.05 27.088 131.05 26.632C131.05 26.112 131.262 25.68 131.686 25.336C132.11 24.992 132.646 24.82 133.294 24.82C133.998 24.82 134.554 24.972 134.962 25.276C135.37 25.572 135.602 26 135.658 26.56H134.734C134.702 26.256 134.558 26.02 134.302 25.852C134.046 25.676 133.71 25.588 133.294 25.588C132.894 25.588 132.574 25.68 132.334 25.864C132.094 26.04 131.974 26.276 131.974 26.572C131.974 26.812 132.054 27 132.214 27.136C132.374 27.264 132.646 27.364 133.03 27.436L134.23 27.664C134.758 27.768 135.15 27.956 135.406 28.228C135.662 28.492 135.79 28.852 135.79 29.308C135.79 29.836 135.566 30.276 135.118 30.628C134.678 30.972 134.118 31.144 133.438 31.144Z" fill="#01193F"/>
<rect x="14.5" y="50.5" width="15" height="15" fill="#4BAC81" stroke="#4BAC81"/>
<path d="M44.104 63.144C43.056 63.144 42.216 62.912 41.584 62.448C40.96 61.976 40.62 61.316 40.564 60.468H41.56C41.616 61.068 41.86 61.528 42.292 61.848C42.732 62.16 43.332 62.316 44.092 62.316C44.732 62.316 45.244 62.172 45.628 61.884C46.02 61.588 46.216 61.192 46.216 60.696C46.216 60.304 46.092 60 45.844 59.784C45.596 59.56 45.2 59.396 44.656 59.292L43.024 58.968C42.28 58.832 41.728 58.58 41.368 58.212C41.016 57.844 40.84 57.356 40.84 56.748C40.84 56.036 41.12 55.448 41.68 54.984C42.24 54.52 42.956 54.288 43.828 54.288C44.772 54.288 45.524 54.492 46.084 54.9C46.644 55.3 46.964 55.876 47.044 56.628H46.048C45.976 56.156 45.744 55.788 45.352 55.524C44.96 55.252 44.456 55.116 43.84 55.116C43.24 55.116 42.756 55.264 42.388 55.56C42.028 55.856 41.848 56.24 41.848 56.712C41.848 57.104 41.956 57.4 42.172 57.6C42.396 57.8 42.796 57.956 43.372 58.068L45.052 58.416C45.796 58.568 46.34 58.824 46.684 59.184C47.036 59.544 47.212 60.032 47.212 60.648C47.212 61.376 46.92 61.976 46.336 62.448C45.76 62.912 45.016 63.144 44.104 63.144ZM51.367 56.82C52.223 56.82 52.915 57.112 53.443 57.696C53.971 58.272 54.235 59.036 54.235 59.988C54.235 60.94 53.971 61.704 53.443 62.28C52.915 62.856 52.223 63.144 51.367 63.144C50.511 63.144 49.819 62.856 49.291 62.28C48.763 61.704 48.499 60.94 48.499 59.988C48.499 59.036 48.763 58.272 49.291 57.696C49.819 57.112 50.511 56.82 51.367 56.82ZM51.367 57.624C50.783 57.624 50.323 57.836 49.987 58.26C49.651 58.684 49.483 59.26 49.483 59.988C49.483 60.716 49.651 61.292 49.987 61.716C50.323 62.132 50.783 62.34 51.367 62.34C51.951 62.34 52.411 62.132 52.747 61.716C53.083 61.292 53.251 60.716 53.251 59.988C53.251 59.26 53.083 58.684 52.747 58.26C52.411 57.836 51.951 57.624 51.367 57.624ZM56.9234 54.168V63H55.9274V54.168H56.9234ZM63.7483 63H62.7523C62.7203 62.84 62.6923 62.672 62.6683 62.496C62.6523 62.312 62.6443 62.14 62.6443 61.98C62.5163 62.332 62.2603 62.612 61.8763 62.82C61.5003 63.028 61.0563 63.132 60.5443 63.132C59.9683 63.132 59.4963 62.976 59.1283 62.664C58.7683 62.344 58.5883 61.924 58.5883 61.404C58.5883 60.884 58.7603 60.472 59.1043 60.168C59.4563 59.864 59.9803 59.672 60.6763 59.592L62.6203 59.34V58.992C62.6203 58.552 62.4963 58.216 62.2483 57.984C62.0083 57.744 61.6603 57.624 61.2043 57.624C60.8043 57.624 60.4843 57.724 60.2443 57.924C60.0043 58.116 59.8643 58.388 59.8243 58.74H58.8643C58.9203 58.148 59.1603 57.68 59.5843 57.336C60.0163 56.992 60.5643 56.82 61.2283 56.82C61.9963 56.82 62.5843 57.004 62.9923 57.372C63.4003 57.74 63.6043 58.272 63.6043 58.968V61.74C63.6043 62.02 63.6163 62.26 63.6403 62.46C63.6643 62.652 63.7003 62.832 63.7483 63ZM59.5963 61.38C59.5963 61.684 59.7003 61.928 59.9083 62.112C60.1163 62.288 60.3963 62.376 60.7483 62.376C61.2843 62.376 61.7283 62.216 62.0803 61.896C62.4403 61.568 62.6203 61.144 62.6203 60.624V60.084L60.9763 60.264C60.4563 60.336 60.0963 60.46 59.8963 60.636C59.6963 60.812 59.5963 61.06 59.5963 61.38ZM68.5574 56.832C68.6454 56.832 68.7294 56.836 68.8094 56.844C68.8894 56.852 68.9614 56.864 69.0254 56.88V57.792C68.9614 57.776 68.8814 57.764 68.7854 57.756C68.6974 57.748 68.6054 57.744 68.5094 57.744C67.9734 57.744 67.5334 57.952 67.1894 58.368C66.8454 58.776 66.6734 59.328 66.6734 60.024V63H65.6774V56.964H66.6374V58.392C66.7654 57.912 67.0014 57.532 67.3454 57.252C67.6894 56.972 68.0934 56.832 68.5574 56.832ZM80.3241 63H79.0401L78.1161 62.088C77.7321 62.432 77.3041 62.696 76.8321 62.88C76.3601 63.056 75.8561 63.144 75.3201 63.144C74.5041 63.144 73.8281 62.928 73.2921 62.496C72.7641 62.056 72.5001 61.492 72.5001 60.804C72.5001 60.3 72.6401 59.864 72.9201 59.496C73.2081 59.128 73.7041 58.76 74.4081 58.392C74.0401 58.008 73.7801 57.66 73.6281 57.348C73.4761 57.036 73.4001 56.716 73.4001 56.388C73.4001 55.78 73.6121 55.28 74.0361 54.888C74.4681 54.488 75.0201 54.288 75.6921 54.288C76.3561 54.288 76.8841 54.468 77.2761 54.828C77.6761 55.188 77.8761 55.66 77.8761 56.244C77.8761 56.708 77.7241 57.112 77.4201 57.456C77.1241 57.8 76.6041 58.156 75.8601 58.524L78.1521 60.828C78.3521 60.532 78.5081 60.204 78.6201 59.844C78.7401 59.476 78.8201 59.084 78.8601 58.668H79.7601C79.7201 59.172 79.6121 59.66 79.4361 60.132C79.2601 60.604 79.0281 61.032 78.7401 61.416L80.3241 63ZM75.6921 55.056C75.3081 55.056 74.9921 55.176 74.7441 55.416C74.5041 55.656 74.3841 55.968 74.3841 56.352C74.3841 56.6 74.4481 56.844 74.5761 57.084C74.7121 57.324 74.9521 57.616 75.2961 57.96C75.9201 57.672 76.3481 57.404 76.5801 57.156C76.8121 56.908 76.9281 56.604 76.9281 56.244C76.9281 55.916 76.8121 55.636 76.5801 55.404C76.3481 55.172 76.0521 55.056 75.6921 55.056ZM73.5081 60.744C73.5081 61.192 73.6841 61.568 74.0361 61.872C74.3961 62.176 74.8361 62.328 75.3561 62.328C75.7801 62.328 76.1761 62.26 76.5441 62.124C76.9201 61.988 77.2561 61.788 77.5521 61.524L74.9601 58.956C74.4161 59.228 74.0361 59.5 73.8201 59.772C73.6121 60.044 73.5081 60.368 73.5081 60.744ZM93.2857 60.6C93.2857 61.368 93.0257 61.96 92.5057 62.376C91.9857 62.792 91.2417 63 90.2737 63H86.8777V54.432H89.8897C90.8577 54.432 91.6017 54.632 92.1217 55.032C92.6417 55.424 92.9017 55.988 92.9017 56.724C92.9017 57.116 92.7697 57.492 92.5057 57.852C92.2497 58.204 91.9377 58.436 91.5697 58.548C92.0977 58.684 92.5137 58.936 92.8177 59.304C93.1297 59.664 93.2857 60.096 93.2857 60.6ZM87.8977 55.272V58.212H89.9497C90.5737 58.212 91.0457 58.088 91.3657 57.84C91.6937 57.584 91.8577 57.216 91.8577 56.736C91.8577 56.256 91.6977 55.892 91.3777 55.644C91.0577 55.396 90.5857 55.272 89.9617 55.272H87.8977ZM90.2017 59.016H87.8977V62.16H90.2257C90.8737 62.16 91.3737 62.024 91.7257 61.752C92.0777 61.48 92.2537 61.096 92.2537 60.6C92.2537 60.104 92.0737 59.716 91.7137 59.436C91.3537 59.156 90.8497 59.016 90.2017 59.016ZM99.6077 63H98.6117C98.5797 62.84 98.5517 62.672 98.5277 62.496C98.5117 62.312 98.5037 62.14 98.5037 61.98C98.3757 62.332 98.1197 62.612 97.7357 62.82C97.3597 63.028 96.9157 63.132 96.4037 63.132C95.8277 63.132 95.3557 62.976 94.9877 62.664C94.6277 62.344 94.4477 61.924 94.4477 61.404C94.4477 60.884 94.6197 60.472 94.9637 60.168C95.3157 59.864 95.8397 59.672 96.5357 59.592L98.4797 59.34V58.992C98.4797 58.552 98.3557 58.216 98.1077 57.984C97.8677 57.744 97.5197 57.624 97.0637 57.624C96.6637 57.624 96.3437 57.724 96.1037 57.924C95.8637 58.116 95.7237 58.388 95.6837 58.74H94.7237C94.7797 58.148 95.0197 57.68 95.4437 57.336C95.8757 56.992 96.4237 56.82 97.0877 56.82C97.8557 56.82 98.4437 57.004 98.8517 57.372C99.2597 57.74 99.4637 58.272 99.4637 58.968V61.74C99.4637 62.02 99.4757 62.26 99.4997 62.46C99.5237 62.652 99.5597 62.832 99.6077 63ZM95.4557 61.38C95.4557 61.684 95.5597 61.928 95.7677 62.112C95.9757 62.288 96.2557 62.376 96.6077 62.376C97.1437 62.376 97.5877 62.216 97.9397 61.896C98.2997 61.568 98.4797 61.144 98.4797 60.624V60.084L96.8357 60.264C96.3157 60.336 95.9557 60.46 95.7557 60.636C95.5557 60.812 95.4557 61.06 95.4557 61.38ZM103.469 62.256C103.613 62.256 103.753 62.244 103.889 62.22C104.033 62.196 104.185 62.16 104.345 62.112V62.928C104.153 62.984 103.969 63.024 103.793 63.048C103.625 63.08 103.457 63.096 103.289 63.096C102.729 63.096 102.309 62.96 102.029 62.688C101.757 62.416 101.621 62.004 101.621 61.452V57.72H100.733V56.964H101.621V55.428H102.605V56.964H104.189V57.72H102.593V61.404C102.593 61.7 102.661 61.916 102.797 62.052C102.941 62.188 103.165 62.256 103.469 62.256ZM107.898 62.256C108.042 62.256 108.182 62.244 108.318 62.22C108.462 62.196 108.614 62.16 108.774 62.112V62.928C108.582 62.984 108.398 63.024 108.222 63.048C108.054 63.08 107.886 63.096 107.718 63.096C107.158 63.096 106.738 62.96 106.458 62.688C106.186 62.416 106.05 62.004 106.05 61.452V57.72H105.162V56.964H106.05V55.428H107.034V56.964H108.618V57.72H107.022V61.404C107.022 61.7 107.09 61.916 107.226 62.052C107.37 62.188 107.594 62.256 107.898 62.256ZM114.416 61.224H115.352C115.224 61.824 114.936 62.296 114.488 62.64C114.04 62.976 113.496 63.144 112.856 63.144C111.984 63.144 111.28 62.86 110.744 62.292C110.216 61.724 109.952 60.964 109.952 60.012C109.952 59.06 110.216 58.292 110.744 57.708C111.28 57.116 111.964 56.82 112.796 56.82C113.596 56.82 114.228 57.096 114.692 57.648C115.156 58.192 115.388 58.908 115.388 59.796V60.192H110.924C110.948 60.88 111.128 61.412 111.464 61.788C111.808 62.164 112.272 62.352 112.856 62.352C113.248 62.352 113.572 62.26 113.828 62.076C114.092 61.884 114.288 61.6 114.416 61.224ZM112.796 57.624C112.292 57.624 111.88 57.788 111.56 58.116C111.24 58.436 111.04 58.888 110.96 59.472H114.416C114.4 58.896 114.248 58.444 113.96 58.116C113.68 57.788 113.292 57.624 112.796 57.624ZM119.956 56.832C120.044 56.832 120.128 56.836 120.208 56.844C120.288 56.852 120.36 56.864 120.424 56.88V57.792C120.36 57.776 120.28 57.764 120.184 57.756C120.096 57.748 120.004 57.744 119.908 57.744C119.372 57.744 118.932 57.952 118.588 58.368C118.244 58.776 118.072 59.328 118.072 60.024V63H117.076V56.964H118.036V58.392C118.164 57.912 118.4 57.532 118.744 57.252C119.088 56.972 119.492 56.832 119.956 56.832ZM122.347 64.404C122.635 64.404 122.867 64.312 123.043 64.128C123.219 63.944 123.411 63.584 123.619 63.048L121.195 56.964H122.239L124.159 61.896H124.183L125.995 56.964H127.027L124.591 63.18C124.287 63.972 123.979 64.508 123.667 64.788C123.363 65.076 122.959 65.224 122.455 65.232C122.375 65.232 122.279 65.224 122.167 65.208C122.063 65.2 121.963 65.188 121.867 65.172V64.356C121.939 64.372 122.007 64.384 122.071 64.392C122.135 64.4 122.227 64.404 122.347 64.404ZM134.069 63.144C133.021 63.144 132.181 62.912 131.549 62.448C130.925 61.976 130.585 61.316 130.529 60.468H131.525C131.581 61.068 131.825 61.528 132.257 61.848C132.697 62.16 133.297 62.316 134.057 62.316C134.697 62.316 135.209 62.172 135.593 61.884C135.985 61.588 136.181 61.192 136.181 60.696C136.181 60.304 136.057 60 135.809 59.784C135.561 59.56 135.165 59.396 134.621 59.292L132.989 58.968C132.245 58.832 131.693 58.58 131.333 58.212C130.981 57.844 130.805 57.356 130.805 56.748C130.805 56.036 131.085 55.448 131.645 54.984C132.205 54.52 132.921 54.288 133.793 54.288C134.737 54.288 135.489 54.492 136.049 54.9C136.609 55.3 136.929 55.876 137.009 56.628H136.013C135.941 56.156 135.709 55.788 135.317 55.524C134.925 55.252 134.421 55.116 133.805 55.116C133.205 55.116 132.721 55.264 132.353 55.56C131.993 55.856 131.813 56.24 131.813 56.712C131.813 57.104 131.921 57.4 132.137 57.6C132.361 57.8 132.761 57.956 133.337 58.068L135.017 58.416C135.761 58.568 136.305 58.824 136.649 59.184C137.001 59.544 137.177 60.032 137.177 60.648C137.177 61.376 136.885 61.976 136.301 62.448C135.725 62.912 134.981 63.144 134.069 63.144ZM140.84 62.256C140.984 62.256 141.124 62.244 141.26 62.22C141.404 62.196 141.556 62.16 141.716 62.112V62.928C141.524 62.984 141.34 63.024 141.164 63.048C140.996 63.08 140.828 63.096 140.66 63.096C140.1 63.096 139.68 62.96 139.4 62.688C139.128 62.416 138.992 62.004 138.992 61.452V57.72H138.104V56.964H138.992V55.428H139.976V56.964H141.56V57.72H139.964V61.404C139.964 61.7 140.032 61.916 140.168 62.052C140.312 62.188 140.536 62.256 140.84 62.256ZM148.03 63H147.034C147.002 62.84 146.974 62.672 146.95 62.496C146.934 62.312 146.926 62.14 146.926 61.98C146.798 62.332 146.542 62.612 146.158 62.82C145.782 63.028 145.338 63.132 144.826 63.132C144.25 63.132 143.778 62.976 143.41 62.664C143.05 62.344 142.87 61.924 142.87 61.404C142.87 60.884 143.042 60.472 143.386 60.168C143.738 59.864 144.262 59.672 144.958 59.592L146.902 59.34V58.992C146.902 58.552 146.778 58.216 146.53 57.984C146.29 57.744 145.942 57.624 145.486 57.624C145.086 57.624 144.766 57.724 144.526 57.924C144.286 58.116 144.146 58.388 144.106 58.74H143.146C143.202 58.148 143.442 57.68 143.866 57.336C144.298 56.992 144.846 56.82 145.51 56.82C146.278 56.82 146.866 57.004 147.274 57.372C147.682 57.74 147.886 58.272 147.886 58.968V61.74C147.886 62.02 147.898 62.26 147.922 62.46C147.946 62.652 147.982 62.832 148.03 63ZM143.878 61.38C143.878 61.684 143.982 61.928 144.19 62.112C144.398 62.288 144.678 62.376 145.03 62.376C145.566 62.376 146.01 62.216 146.362 61.896C146.722 61.568 146.902 61.144 146.902 60.624V60.084L145.258 60.264C144.738 60.336 144.378 60.46 144.178 60.636C143.978 60.812 143.878 61.06 143.878 61.38ZM151.891 62.256C152.035 62.256 152.175 62.244 152.311 62.22C152.455 62.196 152.607 62.16 152.767 62.112V62.928C152.575 62.984 152.391 63.024 152.215 63.048C152.047 63.08 151.879 63.096 151.711 63.096C151.151 63.096 150.731 62.96 150.451 62.688C150.179 62.416 150.043 62.004 150.043 61.452V57.72H149.155V56.964H150.043V55.428H151.027V56.964H152.611V57.72H151.015V61.404C151.015 61.7 151.083 61.916 151.219 62.052C151.363 62.188 151.587 62.256 151.891 62.256ZM158.408 61.224H159.344C159.216 61.824 158.928 62.296 158.48 62.64C158.032 62.976 157.488 63.144 156.848 63.144C155.976 63.144 155.272 62.86 154.736 62.292C154.208 61.724 153.944 60.964 153.944 60.012C153.944 59.06 154.208 58.292 154.736 57.708C155.272 57.116 155.956 56.82 156.788 56.82C157.588 56.82 158.22 57.096 158.684 57.648C159.148 58.192 159.38 58.908 159.38 59.796V60.192H154.916C154.94 60.88 155.12 61.412 155.456 61.788C155.8 62.164 156.264 62.352 156.848 62.352C157.24 62.352 157.564 62.26 157.82 62.076C158.084 61.884 158.28 61.6 158.408 61.224ZM156.788 57.624C156.284 57.624 155.872 57.788 155.552 58.116C155.232 58.436 155.032 58.888 154.952 59.472H158.408C158.392 58.896 158.24 58.444 157.952 58.116C157.672 57.788 157.284 57.624 156.788 57.624ZM163.18 63.144C162.412 63.144 161.792 62.976 161.32 62.64C160.856 62.296 160.6 61.82 160.552 61.212H161.512C161.544 61.58 161.708 61.868 162.004 62.076C162.308 62.284 162.696 62.388 163.168 62.388C163.6 62.388 163.944 62.296 164.2 62.112C164.464 61.92 164.596 61.668 164.596 61.356C164.596 61.124 164.508 60.94 164.332 60.804C164.164 60.66 163.9 60.552 163.54 60.48L162.472 60.264C161.88 60.152 161.452 59.968 161.188 59.712C160.924 59.448 160.792 59.088 160.792 58.632C160.792 58.112 161.004 57.68 161.428 57.336C161.852 56.992 162.388 56.82 163.036 56.82C163.74 56.82 164.296 56.972 164.704 57.276C165.112 57.572 165.344 58 165.4 58.56H164.476C164.444 58.256 164.3 58.02 164.044 57.852C163.788 57.676 163.452 57.588 163.036 57.588C162.636 57.588 162.316 57.68 162.076 57.864C161.836 58.04 161.716 58.276 161.716 58.572C161.716 58.812 161.796 59 161.956 59.136C162.116 59.264 162.388 59.364 162.772 59.436L163.972 59.664C164.5 59.768 164.892 59.956 165.148 60.228C165.404 60.492 165.532 60.852 165.532 61.308C165.532 61.836 165.308 62.276 164.86 62.628C164.42 62.972 163.86 63.144 163.18 63.144ZM42.064 75.232C42.064 76.08 42.228 76.936 42.556 77.8C42.892 78.664 43.372 79.496 43.996 80.296H43.024C42.376 79.504 41.888 78.684 41.56 77.836C41.232 76.98 41.068 76.112 41.068 75.232C41.068 74.36 41.232 73.496 41.56 72.64C41.896 71.784 42.384 70.96 43.024 70.168H43.996C43.364 71.032 42.884 71.892 42.556 72.748C42.228 73.604 42.064 74.432 42.064 75.232ZM52.2232 76.6C52.2232 77.368 51.9632 77.96 51.4432 78.376C50.9232 78.792 50.1792 79 49.2112 79H45.8152V70.432H48.8272C49.7952 70.432 50.5392 70.632 51.0592 71.032C51.5792 71.424 51.8392 71.988 51.8392 72.724C51.8392 73.116 51.7072 73.492 51.4432 73.852C51.1872 74.204 50.8752 74.436 50.5072 74.548C51.0352 74.684 51.4512 74.936 51.7552 75.304C52.0672 75.664 52.2232 76.096 52.2232 76.6ZM46.8352 71.272V74.212H48.8872C49.5112 74.212 49.9832 74.088 50.3032 73.84C50.6312 73.584 50.7952 73.216 50.7952 72.736C50.7952 72.256 50.6352 71.892 50.3152 71.644C49.9952 71.396 49.5232 71.272 48.8992 71.272H46.8352ZM49.1392 75.016H46.8352V78.16H49.1632C49.8112 78.16 50.3112 78.024 50.6632 77.752C51.0152 77.48 51.1912 77.096 51.1912 76.6C51.1912 76.104 51.0112 75.716 50.6512 75.436C50.2912 75.156 49.7872 75.016 49.1392 75.016ZM56.7332 72.832C56.8212 72.832 56.9052 72.836 56.9852 72.844C57.0652 72.852 57.1372 72.864 57.2012 72.88V73.792C57.1372 73.776 57.0572 73.764 56.9612 73.756C56.8732 73.748 56.7812 73.744 56.6852 73.744C56.1492 73.744 55.7092 73.952 55.3652 74.368C55.0212 74.776 54.8492 75.328 54.8492 76.024V79H53.8532V72.964H54.8132V74.392C54.9412 73.912 55.1772 73.532 55.5212 73.252C55.8652 72.972 56.2692 72.832 56.7332 72.832ZM59.5263 71.704H58.3983V70.492H59.5263V71.704ZM59.4663 79H58.4703V72.964H59.4663V79ZM63.9633 80.512C64.5713 80.512 65.0313 80.348 65.3433 80.02C65.6633 79.7 65.8233 79.232 65.8233 78.616V77.728C65.6553 78.08 65.3913 78.364 65.0313 78.58C64.6793 78.788 64.2753 78.892 63.8193 78.892C63.0193 78.892 62.3713 78.616 61.8753 78.064C61.3873 77.504 61.1433 76.764 61.1433 75.844C61.1433 74.948 61.3913 74.22 61.8873 73.66C62.3913 73.1 63.0353 72.82 63.8193 72.82C64.2673 72.82 64.6753 72.932 65.0433 73.156C65.4113 73.372 65.6833 73.66 65.8593 74.02V72.964H66.8313V78.544C66.8313 79.416 66.5793 80.088 66.0753 80.56C65.5713 81.04 64.8713 81.28 63.9753 81.28C63.2313 81.28 62.6273 81.128 62.1633 80.824C61.7073 80.52 61.4193 80.084 61.2993 79.516H62.3073C62.3953 79.852 62.5753 80.1 62.8473 80.26C63.1193 80.428 63.4913 80.512 63.9633 80.512ZM63.9993 78.1C64.5593 78.1 65.0153 77.904 65.3673 77.512C65.7193 77.12 65.8953 76.612 65.8953 75.988V75.7C65.8953 75.076 65.7193 74.572 65.3673 74.188C65.0153 73.796 64.5593 73.6 63.9993 73.6C63.4233 73.6 62.9673 73.804 62.6313 74.212C62.2953 74.612 62.1273 75.156 62.1273 75.844C62.1273 76.532 62.2953 77.08 62.6313 77.488C62.9673 77.896 63.4233 78.1 63.9993 78.1ZM69.9663 70.168V74.068C70.1103 73.676 70.3543 73.372 70.6983 73.156C71.0423 72.932 71.4423 72.82 71.8983 72.82C72.5783 72.82 73.1063 73.024 73.4823 73.432C73.8663 73.832 74.0583 74.392 74.0583 75.112V79H73.0623V75.328C73.0623 74.768 72.9383 74.348 72.6903 74.068C72.4503 73.78 72.0943 73.636 71.6223 73.636C71.1023 73.636 70.6943 73.812 70.3983 74.164C70.1103 74.516 69.9663 75.02 69.9663 75.676V79H68.9703V70.168H69.9663ZM78.0625 78.256C78.2065 78.256 78.3465 78.244 78.4825 78.22C78.6265 78.196 78.7785 78.16 78.9385 78.112V78.928C78.7465 78.984 78.5625 79.024 78.3865 79.048C78.2185 79.08 78.0505 79.096 77.8825 79.096C77.3225 79.096 76.9025 78.96 76.6225 78.688C76.3505 78.416 76.2145 78.004 76.2145 77.452V73.72H75.3265V72.964H76.2145V71.428H77.1985V72.964H78.7825V73.72H77.1865V77.404C77.1865 77.7 77.2545 77.916 77.3905 78.052C77.5345 78.188 77.7585 78.256 78.0625 78.256ZM83.5602 79.144C83.1122 79.144 82.7042 79.032 82.3362 78.808C81.9682 78.584 81.6962 78.296 81.5202 77.944V79H80.5602V70.168H81.5562V74.032C81.7242 73.664 81.9842 73.372 82.3362 73.156C82.6962 72.932 83.1042 72.82 83.5602 72.82C84.3522 72.82 84.9962 73.116 85.4922 73.708C85.9962 74.292 86.2482 75.052 86.2482 75.988C86.2482 76.924 85.9962 77.684 85.4922 78.268C84.9882 78.852 84.3442 79.144 83.5602 79.144ZM83.3562 73.6C82.7882 73.6 82.3362 73.808 82.0002 74.224C81.6722 74.632 81.5082 75.188 81.5082 75.892V76.06C81.5082 76.764 81.6722 77.324 82.0002 77.74C82.3362 78.156 82.7882 78.364 83.3562 78.364C83.9322 78.364 84.3882 78.148 84.7242 77.716C85.0682 77.284 85.2402 76.708 85.2402 75.988C85.2402 75.26 85.0682 74.68 84.7242 74.248C84.3882 73.816 83.9322 73.6 83.3562 73.6ZM90.367 72.82C91.223 72.82 91.915 73.112 92.443 73.696C92.971 74.272 93.235 75.036 93.235 75.988C93.235 76.94 92.971 77.704 92.443 78.28C91.915 78.856 91.223 79.144 90.367 79.144C89.511 79.144 88.819 78.856 88.291 78.28C87.763 77.704 87.499 76.94 87.499 75.988C87.499 75.036 87.763 74.272 88.291 73.696C88.819 73.112 89.511 72.82 90.367 72.82ZM90.367 73.624C89.783 73.624 89.323 73.836 88.987 74.26C88.651 74.684 88.483 75.26 88.483 75.988C88.483 76.716 88.651 77.292 88.987 77.716C89.323 78.132 89.783 78.34 90.367 78.34C90.951 78.34 91.411 78.132 91.747 77.716C92.083 77.292 92.251 76.716 92.251 75.988C92.251 75.26 92.083 74.684 91.747 74.26C91.411 73.836 90.951 73.624 90.367 73.624ZM96.901 76.576L95.149 79H94.081L96.373 75.892L94.201 72.964H95.377L96.985 75.184L98.581 72.964H99.661L97.525 75.844L99.853 79H98.689L96.901 76.576ZM102.921 71.092V74.224H102.153V71.092H100.833V70.432H104.253V71.092H102.921ZM108.165 71.164L107.229 74.224H106.653L105.705 71.164H105.669V74.224H104.985V70.432H106.125L106.953 73.228H106.989L107.829 70.432H108.933V74.224H108.189V71.164H108.165ZM113.093 75.232C113.093 74.432 112.929 73.604 112.601 72.748C112.273 71.892 111.793 71.032 111.161 70.168H112.133C112.773 70.96 113.257 71.784 113.585 72.64C113.921 73.496 114.089 74.36 114.089 75.232C114.089 76.112 113.925 76.98 113.597 77.836C113.269 78.684 112.781 79.504 112.133 80.296H111.161C111.785 79.496 112.261 78.664 112.589 77.8C112.925 76.936 113.093 76.08 113.093 75.232Z" fill="#01193F"/>
</svg>
